<?xml version="1.0" encoding="UTF-8"?>
<svg width="172px" height="50px" viewBox="0 0 172 50" version="1.1" xmlns="http://www.w3.org/2000/svg" xmlns:xlink="http://www.w3.org/1999/xlink">
    <!-- Generator: sketchtool 51.2 (57519) - http://www.bohemiancoding.com/sketch -->
    <title>CF7069D8-5CC1-49D3-A1C2-44BCD0ED8A48</title>
    <desc>Created with sketchtool.</desc>
    <defs>
        <path d="M33.1822481,0.000516717325 C33.9850159,0.000516717325 34.3219377,0.524123607 34.3374086,1.17346505 L34.3374086,1.27164134 C34.3339706,1.44732523 34.3064668,1.63162107 34.2600541,1.81591692 C33.9506361,3.03881459 32.7679718,4.26343465 31.5302998,3.26100304 C30.5900129,2.45147923 31.5302998,0.303657548 32.6785844,0.055633232 C32.8607972,0.0194630193 33.0292581,0.000516717325 33.1822481,0.000516717325 Z M29.5637766,8.71237082 C29.6755109,6.89869301 30.5539142,5.98927052 31.5148289,5.99099291 C31.6265632,5.99099291 31.7400165,6.00132725 31.8517507,6.02716312 C33.8492158,6.4560385 32.7679718,10.6018338 30.7464409,10.2539108 C30.0880682,10.0816717 29.6033133,9.54256332 29.5637766,8.71237082 Z M28.9260317,2.86485309 C28.9776014,2.85968592 29.0308901,2.85796353 29.0807407,2.85796353 C30.1258859,2.85796353 30.3184127,3.74843972 30.0622834,4.63374873 C29.7098907,5.8566464 28.5048795,7.08126646 27.5233369,5.97549139 C27.3583139,5.75674772 27.3015873,5.45877406 27.3222152,5.13151976 C27.344562,4.23243161 28.0459095,3.13871327 28.6802163,2.91308004 L28.6767784,2.92685917 C28.7575708,2.89241135 28.8418013,2.87174265 28.9260317,2.86485309 Z M26.263318,2.99403242 C24.6577825,2.65299899 25.7149606,0.315714286 27.0042022,0.315714286 C27.19501,0.315714286 27.3875367,0.365663627 27.5800635,0.48106383 C28.3656414,0.9891692 27.3376861,3.1335461 26.263318,2.99403242 Z M20.8313133,1.45765957 C21.0754098,0.865157042 21.6426761,0.346717325 22.2322892,0.346717325 C22.4368489,0.346717325 22.6448466,0.408723404 22.8408113,0.549959473 C23.5679436,1.18035461 22.1566537,3.44702128 21.0874427,2.85796353 C20.6422246,2.51693009 20.6181587,1.95887538 20.8313133,1.45765957 Z M22.4712287,6.00132725 C21.4398354,5.40365755 22.3921552,3.19727457 23.5765385,3.19727457 C23.8189159,3.19727457 24.0698883,3.29028369 24.3174227,3.50730496 C25.1064386,4.38400203 23.5954474,6.65239108 22.4712287,6.00132725 Z M24.5907419,6.09605876 C24.7609218,6.05816616 24.9156308,6.03921986 25.0565879,6.03921986 C26.1000141,6.03921986 26.3320776,6.9968693 26.0948571,7.95279635 C25.7871581,9.1808612 24.7024762,10.408926 23.5748195,9.60284701 L23.5748195,9.6045694 C22.3182387,8.71064843 23.3771358,6.35441743 24.5907419,6.09605876 Z M26.3630194,10.0523911 C26.6105538,9.96627153 26.8271464,9.92665653 27.0196731,9.92665653 C28.0252816,9.92665653 28.272816,11.0307092 28.0476285,12.1347619 C27.7502434,13.6005167 26.6191487,15.0662715 25.3230312,13.9484397 C24.3053898,12.813384 25.1408183,10.6741743 26.3630194,10.0523911 Z M29.3867208,15.5709321 C29.498455,15.5519858 29.6033133,15.5450963 29.7030147,15.5450963 C30.9320917,15.5450963 31.4168466,16.8127761 31.2776085,18.0873455 C31.1280564,19.4583688 30.2565291,20.8311145 28.8177354,20.6037589 C26.7738577,20.2816717 27.2362657,15.9136879 29.3867208,15.5709321 Z M26.6019588,26.4202736 C26.7962046,26.373769 26.9818554,26.3513779 27.1571922,26.3513779 C30.4593698,26.3513779 30.3613874,34.1589767 27.0557719,34.1796454 C23.9340882,34.1985917 23.7003057,27.1143972 26.6019588,26.4202736 Z M24.3019518,18.9364843 C24.4360329,18.9106484 24.5649571,18.8985917 24.6870053,18.8985917 C26.0192216,18.8985917 26.577893,20.3901824 26.4678777,21.8852178 C26.3458295,23.4767072 25.4605503,25.0699189 23.9306502,24.8460081 C21.4432734,24.4860284 22.1325879,19.3550253 24.3019518,18.9364843 Z M22.5554591,13.2990983 C22.6156238,13.2922087 22.6723504,13.2904863 22.725639,13.2904863 C23.808602,13.2904863 24.2005315,14.4754914 24.0406655,15.6587741 C23.8704856,16.9247315 23.0711558,18.190689 21.812856,18.0098379 C19.7277225,17.7101418 20.6491005,13.5075076 22.5554591,13.2990983 Z M20.0698013,13.0149037 C18.6928912,12.5791388 19.4853451,9.16708207 21.1751111,9.16708207 C21.3796708,9.16708207 21.5945444,9.21530902 21.8214509,9.32554205 C23.1708571,10.2556332 21.8592687,13.5953495 20.0698013,13.0149037 Z M19.7982011,5.99960486 C19.9202493,5.97721378 20.0302646,5.96687943 20.1316849,5.96687943 C21.0255591,5.96687943 21.1355744,6.79534954 20.8553792,7.62554205 C20.4961105,8.69859169 19.4853451,9.77164134 18.6860153,9.04651469 C17.7611993,8.20771023 18.8063445,6.17873354 19.7982011,5.99960486 Z M17.6769688,5.72057751 C16.9653075,5.16424519 17.8660576,2.96819656 19.0538789,2.96819656 C19.1759271,2.96819656 19.3031323,2.99058764 19.4286185,3.04225937 C20.6353486,3.74843972 18.9696484,6.45259372 17.6769688,5.72057751 Z M16.9051429,3.06637285 C16.0714333,2.44975684 17.2936343,0.52929078 18.2872099,0.52929078 C18.4316049,0.52929078 18.570843,0.570628166 18.6997672,0.660192503 C19.5162869,1.36981763 17.8540247,3.54347518 16.9051429,3.06637285 Z M15.8170229,8.8897771 C16.0559624,8.59524823 16.3705373,8.40922999 16.7538718,8.40922999 C16.8965479,8.40922999 17.0495379,8.43506586 17.2111229,8.49190476 C17.7869841,8.79676798 17.7336955,9.71135765 17.350361,10.4640426 C16.9567125,11.2683992 16.2089524,11.8987943 15.4560353,11.4440831 C14.8973639,10.9497568 15.1345844,9.60801418 15.8170229,8.8897771 Z M16.4668007,15.9722492 C15.2600705,15.359078 16.1573827,12.4361803 17.6975967,12.4379027 C17.7801082,12.4379027 17.8643386,12.4447923 17.9485691,12.4620162 C19.196555,12.8598886 18.2236073,16.6026444 16.4668007,15.9722492 Z M17.9279412,17.4001114 C18.0998401,17.3398278 18.2545491,17.3122695 18.3937872,17.3122695 C19.2464056,17.3122695 19.492221,18.3560385 19.3065703,19.3980851 C19.0985726,20.5727558 18.3404985,21.7491489 17.2953533,21.4253394 C15.7706102,20.9516819 16.9549935,17.7394225 17.9279412,17.4001114 Z M14.5295003,20.8690071 C14.5879459,20.8586727 14.6463915,20.855228 14.6979612,20.855228 C15.5161999,20.8569504 15.7293545,21.85077 15.5402657,22.8497568 C15.344301,23.8935258 14.7099941,24.9355724 13.8831605,24.8373961 C12.1555767,24.6410436 13.350274,21.044691 14.5295003,20.8690071 Z M13.3296461,19.0208815 C11.8994474,18.8848126 12.6128277,15.4021378 14.1547607,15.4021378 C14.3043128,15.4021378 14.4624597,15.4365856 14.6257637,15.508926 C15.6124633,16.0532016 14.6154497,19.1380041 13.3296461,19.0208815 Z M12.6919012,13.936383 C11.651913,13.3783283 12.6231417,10.9411449 13.955358,10.9411449 C14.0550594,10.9411449 14.1564797,10.9532016 14.259619,10.9824823 C15.189592,11.2839007 13.9364491,14.3755927 12.6919012,13.936383 Z M9.92261023,16.244387 C9.11640447,15.6794428 9.88994944,13.5230091 11.029639,13.5230091 C11.1207454,13.5230091 11.2135708,13.5367882 11.3098342,13.5660689 C12.1418248,14.0052786 10.881806,16.6818744 9.92261023,16.244387 Z M9.91573427,21.6957548 C8.77776367,21.115309 9.67851382,18.4232118 11.0210441,18.4232118 C11.1138695,18.4232118 11.2101329,18.4369909 11.3063962,18.4645491 C12.3532604,18.9674873 11.1654392,22.0454002 9.91573427,21.6957548 Z M9.91057731,28.3459068 C8.59211287,27.6793414 9.42582246,24.5566464 10.9299377,24.5566464 C11.0777707,24.5566464 11.2307607,24.5876494 11.3906267,24.6531003 C12.3738883,25.1491489 11.2668595,28.7833941 9.91057731,28.3459068 Z M6.3110147,31.2102432 C5.31915814,30.6074063 6.21990829,27.6173354 7.51946384,27.6173354 C7.63979306,27.6173354 7.76184127,27.6448936 7.88560847,27.6982877 C8.58351793,27.9618136 7.74293239,31.6770111 6.3110147,31.2102432 Z M6.87140506,24.0950456 C5.956903,23.5283789 6.65481246,20.9206788 7.91311229,20.9206788 C7.99562375,20.9206788 8.07813521,20.9327356 8.16580364,20.9551266 C9.0184221,21.384002 8.00249971,24.3930193 6.87140506,24.0950456 Z M6.78545561,18.3680952 C6.16318166,17.8978825 7.03642798,15.6794428 7.88732745,15.6794428 C7.91998824,15.6794428 7.95264903,15.6811651 7.98359083,15.6897771 C9.11984245,15.9274671 8.1572087,19.115613 6.78545561,18.3680952 Z M3.82879483,26.5873455 C2.82834333,26.3909929 3.60360729,23.9744782 4.51467137,23.977923 C4.56108407,23.977923 4.61093474,23.9848126 4.65734744,23.9985917 C5.58216343,24.4584701 4.62124868,26.7423607 3.82879483,26.5873455 Z M3.82363786,30.8382067 C3.88552146,30.8261499 3.94224809,30.8227052 3.99553674,30.8227052 C4.65562845,30.8227052 4.66078542,31.5995035 4.39949912,32.3763019 C3.99553674,33.5681966 2.96586243,34.7600912 2.71832804,33.1462107 C2.56533804,32.178227 3.27184245,30.9294934 3.82363786,30.8382067 Z M0.469890653,35.8159169 C-0.453206349,35.4232118 0.20860435,33.3942351 1.15404821,33.3942351 C1.21249383,33.3942351 1.27265844,33.3994022 1.33282305,33.4183485 C1.88805644,33.6457042 1.2468736,36.0691084 0.469890653,35.8159169 Z M0.966678424,28.7076089 C0.365032334,28.3614083 1.04231393,26.3754914 1.83820576,26.3754914 C1.88633745,26.3754914 1.93618812,26.3841033 1.9860388,26.3996049 C2.59627984,26.6855218 1.76944621,28.9384093 0.966678424,28.7076089 Z M1.99119577,22.5173354 C1.43424339,22.2658663 2.02729453,20.4384093 2.78880658,20.4384093 C2.85928513,20.4384093 2.92976367,20.4539108 3.0019612,20.4866363 C3.4024856,20.7932219 2.67363433,22.7601925 1.99119577,22.5173354 Z M4.2018154,20.6726545 C3.70158965,20.3970719 4.3410535,18.4301013 5.2177378,18.4301013 C5.27790241,18.4301013 5.33806702,18.4387133 5.40166961,18.459382 C6.08582716,18.7642452 5.13522634,21.0188551 4.2018154,20.6726545 Z" id="path-1"></path>
        <linearGradient x1="-1.11022302e-14%" y1="50%" x2="100%" y2="50%" id="linearGradient-3">
            <stop stop-color="#004B8D" offset="0%"></stop>
            <stop stop-color="#0078B5" offset="70%"></stop>
            <stop stop-color="#13B5EA" offset="100%"></stop>
        </linearGradient>
    </defs>
    <g id="Page-1" stroke="none" stroke-width="1" fill="none" fill-rule="evenodd">
        <g id="08-Nearmap-Design-System" transform="translate(-145.000000, -6590.000000)">
            <g id="Nearmap-logo-blue" transform="translate(145.000000, 6590.000000)">
                <g>
                    <g id="Group-15" transform="translate(0.000000, 20.212766)">
                        <path d="M2.29827911,0.574192741 L6.41660259,0.574192741 L6.18436631,2.31411765 C6.97224941,1.5869587 7.77905548,1.04202753 8.59962369,0.679324155 C9.4201919,0.314868586 10.2562425,0.132640801 11.1077756,0.132640801 C12.563123,0.132640801 13.7552693,0.605732165 14.6807739,1.54490613 C15.1469667,2.01449312 15.4961813,2.54715895 15.7266973,3.13939925 C15.9606539,3.73339174 16.0759119,4.38520651 16.0759119,5.10010013 C16.0759119,5.43652065 16.0535484,5.85529412 16.0105416,6.35817272 C15.9658147,6.85929912 15.9004444,7.44453066 15.8127107,8.11211514 L14.5259497,17.7106133 L10.4059059,17.7106133 L11.6617021,8.33989987 C11.7236318,7.85629537 11.7700791,7.43226533 11.8010439,7.07131414 C11.8320088,6.71036295 11.8474912,6.40723404 11.8474912,6.16718398 C11.8474912,5.47331665 11.6548211,4.93889862 11.2660403,4.5656821 C11.0733702,4.37994994 10.8376934,4.24152691 10.5624504,4.14866083 C10.2872074,4.05229036 9.97067792,4.00848561 9.61458228,4.00848561 C8.91959369,4.00848561 8.22632536,4.25204005 7.53477731,4.74090113 C6.83978872,5.2297622 6.30650539,5.90610763 5.9366476,6.7734418 C5.7491383,7.20623279 5.57023035,7.82826033 5.39992374,8.6412766 C5.22961713,9.45254068 5.06619159,10.4565457 4.9113674,11.648035 L4.12004376,17.7106133 L0,17.7106133 L2.29827911,0.574192741 Z" id="Fill-1" fill="#13B5EA"></path>
                        <path d="M34.7470212,14.6118648 C33.9316138,15.7034793 32.851285,16.5655569 31.5060348,17.1998498 C30.8334097,17.5169962 30.124659,17.7552941 29.3780623,17.9129912 C28.6331859,18.0706884 27.8487434,18.1495369 27.0316157,18.1495369 C24.4632544,18.1495369 22.4402183,17.4171214 20.9607871,15.9470338 C20.2210715,15.2111139 19.667145,14.3542929 19.2955669,13.3783229 C18.9274294,12.4023529 18.7416404,11.3054819 18.7416404,10.0859574 C18.7416404,7.30523154 19.667145,4.95028786 21.5181542,3.0228786 C22.4436588,2.06092616 23.4637782,1.33727159 24.5802327,0.857171464 C25.6966871,0.375319149 26.9111969,0.133516896 28.2203214,0.133516896 C29.7960876,0.133516896 31.2032675,0.485707134 32.43498,1.18833542 C33.6649722,1.8909637 34.6386443,2.91774718 35.3491153,4.25992491 C35.7034907,4.93276596 35.9718526,5.63188986 36.1490403,6.36255319 C36.326228,7.09146433 36.415682,7.85191489 36.415682,8.6404005 C36.415682,8.88570713 36.4036401,9.15379224 36.3761158,9.44115144 C36.352032,9.73201502 36.3124658,10.0404005 36.2608578,10.3680601 L22.8393206,10.3680601 C22.8806071,11.5613016 23.2676676,12.5127409 23.9919007,13.2171214 C24.3565977,13.5693116 24.7866649,13.8356446 25.2872631,14.0126158 C25.7913019,14.1878348 26.3607109,14.2771965 26.9989306,14.2771965 C27.7713313,14.2771965 28.5024455,14.14403 29.1871125,13.8812015 C29.8717795,13.618373 30.51516,13.222378 31.1120933,12.6949687 L34.7470212,14.6118648 Z M32.1631775,7.28420526 C31.8552494,6.2346433 31.3374485,5.43914894 30.6183761,4.89772215 C30.2553994,4.62788486 29.8597376,4.4228786 29.4227893,4.28971214 C28.9875613,4.15479349 28.5144874,4.08645807 28.0052878,4.08645807 C26.9937698,4.08645807 26.0820273,4.36505632 25.2683402,4.92050063 C24.8606365,5.19909887 24.5028206,5.53376721 24.1931722,5.9297622 C23.8835238,6.32400501 23.6237632,6.77607009 23.4121702,7.28420526 L32.1631775,7.28420526 Z" id="Fill-3" fill="#13B5EA"></path>
                        <path d="M52.9421322,0.574192741 L57.0759381,0.574192741 L54.7312118,17.7106133 L50.6438531,17.7106133 L50.8898515,15.8690613 C49.9935915,16.7188736 49.1558206,17.3111139 48.3748186,17.6475344 C47.9860378,17.8157447 47.571453,17.9419024 47.1345048,18.0260075 C46.6975565,18.1101126 46.2348042,18.150413 45.7514087,18.150413 C43.5236606,18.150413 41.7483432,17.3181227 40.4340578,15.6465332 C39.7751949,14.8124906 39.2814777,13.9101126 38.9529064,12.9393992 C38.6226148,11.9669337 38.4591892,10.9261327 38.4591892,9.81874844 C38.4591892,8.12613267 38.8806551,6.52112641 39.7235868,4.99321652 C40.563078,3.46355444 41.6950148,2.27381727 43.1142366,1.41699625 C43.8229873,0.989461827 44.5489408,0.668811014 45.2920969,0.455043805 C46.0335327,0.241276596 46.790451,0.132640801 47.564572,0.132640801 C48.6053346,0.132640801 49.5669648,0.377947434 50.4425817,0.86155194 C50.8829705,1.10510638 51.2837931,1.40473091 51.6450495,1.75867334 C52.006306,2.11261577 52.3331571,2.52262829 52.6187217,2.9869587 L52.9421322,0.574192741 Z M49.4035393,13.7121151 C50.1604576,13.2512891 50.7935165,12.5276345 51.3078769,11.5411514 C51.8291183,10.5406508 52.0785573,9.53664581 52.0785573,8.52387985 C52.0785573,7.16593242 51.6932171,6.07256571 50.9208164,5.24728411 C50.5337559,4.83201502 50.086486,4.52362954 49.5755662,4.31687109 C49.0680869,4.11011264 48.4952374,4.00848561 47.8621785,4.00848561 C46.3896284,4.00848561 45.138993,4.56042553 44.1137128,5.660801 C43.5993524,6.21274093 43.2122919,6.8452816 42.9576921,7.55491865 C42.7013721,8.26806008 42.5723519,9.05829787 42.5723519,9.93088861 C42.5723519,11.2730663 42.9594124,12.3559199 43.7386942,13.1741927 C44.1274749,13.5842053 44.5730245,13.8908385 45.0736228,14.0958448 C45.574221,14.3008511 46.1298678,14.4042303 46.7422835,14.4042303 C47.7572421,14.4042303 48.646621,14.171189 49.4035393,13.7121151 Z" id="Fill-5" fill="#13B5EA"></path>
                        <path d="M60.0418535,0.574192741 L63.7215085,0.574192741 L63.4273425,2.90635795 C63.9795488,1.9812015 64.5850834,1.28733417 65.2473869,0.826508135 C65.9114107,0.363929912 66.6270425,0.132640801 67.3994432,0.132640801 C67.7830631,0.132640801 68.1684033,0.239524406 68.5589043,0.435769712 L67.0502286,4.25904881 C66.8936841,4.20297872 66.7595032,4.15742178 66.6442452,4.13113892 C66.5272669,4.10135169 66.4343724,4.08558198 66.3621211,4.08558198 C65.555315,4.08558198 64.8362427,4.56042553 64.2031837,5.51186483 C63.8883746,5.98846058 63.6045302,6.70510638 63.3550912,7.66355444 C63.103932,8.62375469 62.8888984,9.82750939 62.7048296,11.2678098 L61.8911425,17.7106133 L57.7435744,17.7106133 L60.0418535,0.574192741 Z" id="Fill-7" fill="#13B5EA"></path>
                        <path d="M70.5480511,0.574192741 L74.6852976,0.574192741 L74.4306978,2.44728411 C75.1790147,1.67807259 75.9703384,1.09634543 76.806389,0.71261577 C77.6458802,0.327133917 78.5283781,0.132640801 79.4538827,0.132640801 C80.2073604,0.132640801 80.9092301,0.265807259 81.5646525,0.525131414 C82.2183546,0.78795995 82.7481974,1.1208761 83.1576214,1.53088861 C83.3588928,1.73414268 83.5464021,1.97769712 83.7218695,2.26330413 C83.8956167,2.54891114 84.0556017,2.87306633 84.198384,3.24102628 C84.9742252,2.22650814 85.8790866,1.45554443 86.9198492,0.926382979 C87.4410907,0.661802253 87.9726537,0.463804756 88.5110979,0.330638298 C89.0529825,0.19747184 89.6051888,0.132640801 90.1659964,0.132640801 C91.5766168,0.132640801 92.7446794,0.614493116 93.6753448,1.57644556 C94.1363768,2.06005006 94.4855914,2.61198999 94.7178277,3.23401752 C94.9500639,3.86130163 95.0670422,4.55692115 95.0670422,5.32262829 C95.0670422,5.61173967 95.0532801,5.93764706 95.027476,6.29684606 C94.9982315,6.65779725 94.9603856,7.05204005 94.9104978,7.48483104 L93.5222409,17.7106133 L89.4021971,17.7106133 L90.5874623,8.90760951 C90.6631541,8.31186483 90.719923,7.82125156 90.7612094,7.42525657 C90.7990554,7.03276596 90.816258,6.73664581 90.816258,6.54565707 C90.816258,5.73439299 90.6184271,5.11937422 90.2193248,4.70060075 C90.0197736,4.49033792 89.7823765,4.33439299 89.5002524,4.22750939 C89.2181283,4.12237797 88.8981583,4.07156446 88.5369019,4.07156446 C87.833312,4.07156446 87.1211207,4.32563204 86.4003281,4.83376721 C85.682976,5.34540676 85.13249,6.02350438 84.7557511,6.86806008 C84.5682418,7.29209011 84.3927744,7.86505632 84.2345096,8.59221527 C84.0728044,9.31762203 83.9300221,10.1954693 83.8027222,11.2257572 L82.9305459,17.7106133 L78.8122224,17.7106133 L80.0611376,8.38720901 C80.1127456,8.00873592 80.1523118,7.65654568 80.1781158,7.33239049 C80.2039199,7.00823529 80.217682,6.71036295 80.217682,6.44403004 C80.217682,5.69409262 80.006089,5.10185232 79.5811826,4.66380476 C79.3678692,4.44478098 79.1218708,4.28182728 78.841467,4.17319149 C78.5627834,4.0628035 78.2496945,4.00848561 77.9022002,4.00848561 C77.2398967,4.00848561 76.5586703,4.2432791 75.8585209,4.7093617 C75.1600918,5.1771965 74.6164868,5.81324155 74.2277061,6.61749687 C74.0333157,7.01874844 73.8595686,7.52863579 73.7081849,8.14540676 C73.5568013,8.76217772 73.4277811,9.4840801 73.3176839,10.3146183 L72.3698158,17.7106133 L68.249772,17.7106133 L70.5480511,0.574192741 Z" id="Fill-9" fill="#004B8D"></path>
                        <path d="M111.267846,0.574192741 L115.401652,0.574192741 L113.051764,17.7106133 L108.967846,17.7106133 L109.215565,15.8690613 C108.317585,16.7188736 107.478093,17.3111139 106.698812,17.6475344 C106.311751,17.8157447 105.893726,17.9419024 105.458498,18.0260075 C105.019829,18.1101126 104.558797,18.150413 104.075402,18.150413 C101.845933,18.150413 100.072336,17.3181227 98.7580509,15.6465332 C98.099188,14.8124906 97.6071911,13.9101126 97.2751792,12.9393992 C96.9500484,11.9669337 96.7831824,10.9261327 96.7831824,9.81874844 C96.7831824,8.12613267 97.2063685,6.52112641 98.0475799,4.99321652 C98.8870711,3.46355444 100.020728,2.27381727 101.43823,1.41699625 C102.148701,0.989461827 102.872934,0.668811014 103.61437,0.455043805 C104.357526,0.241276596 105.116164,0.132640801 105.890285,0.132640801 C106.929328,0.132640801 107.890958,0.377947434 108.766575,0.86155194 C109.205243,1.10510638 109.607786,1.40473091 109.969043,1.75867334 C110.33374,2.11261577 110.65543,2.52262829 110.942715,2.9869587 L111.267846,0.574192741 Z M107.727532,13.7121151 C108.48273,13.2512891 109.11751,12.5276345 109.63015,11.5411514 C110.153111,10.5406508 110.40083,9.53664581 110.40255,8.52387985 C110.40255,7.16593242 110.01549,6.07256571 109.243089,5.24728411 C108.859469,4.83201502 108.410479,4.52362954 107.90128,4.31687109 C107.39208,4.11011264 106.819231,4.00848561 106.186172,4.00848561 C104.713622,4.00848561 103.462986,4.56042553 102.435986,5.660801 C101.925066,6.21274093 101.538005,6.8452816 101.279965,7.55491865 C101.025365,8.26806008 100.894625,9.05829787 100.894625,9.93088861 C100.894625,11.2730663 101.285126,12.3559199 102.062687,13.1741927 C102.451468,13.5842053 102.895297,13.8908385 103.397616,14.0958448 C103.898214,14.3008511 104.455581,14.4042303 105.067997,14.4042303 C106.081235,14.4042303 106.968894,14.171189 107.727532,13.7121151 Z" id="Fill-11" fill="#004B8D"></path>
                        <path d="M118.669646,29.787234 L114.530679,29.7346683 L118.413326,0.574718398 L122.47144,0.574718398 L122.228882,2.43379224 C123.114821,1.56645807 123.947431,0.967209011 124.718111,0.632540676 C125.103451,0.467834793 125.514596,0.339924906 125.944663,0.257571965 C126.379891,0.176971214 126.835762,0.133166458 127.315717,0.133166458 C129.534864,0.133166458 131.287818,0.967209011 132.586621,2.6387985 C133.235162,3.47284105 133.721998,4.37521902 134.045409,5.34242804 C134.368819,6.31138924 134.532245,7.34693367 134.532245,8.44906133 C134.532245,10.1416771 134.114219,11.7501877 133.28333,13.2833542 C132.448999,14.8182728 131.329104,16.0115144 129.925365,16.8665832 C129.223495,17.2958698 128.504423,17.6147685 127.773309,17.8285357 C127.042194,18.0440551 126.299038,18.1491865 125.533519,18.1491865 C124.503078,18.1491865 123.55521,17.9091364 122.679593,17.4272841 C122.240924,17.1854819 121.843542,16.8911139 121.487446,16.5389237 C121.129631,16.1884856 120.811381,15.7819775 120.536138,15.3211514 L118.669646,29.787234 Z M123.703153,4.56620776 C122.949675,5.03754693 122.321777,5.76470588 121.819458,6.75294118 C121.303378,7.75519399 121.06082,8.76445557 121.06082,9.7824781 C121.06082,11.135169 121.439279,12.2197747 122.199638,13.0433041 C122.581537,13.4550688 123.021926,13.7617021 123.522524,13.9684606 C124.026563,14.175219 124.585651,14.2768461 125.210108,14.2768461 C126.660295,14.2768461 127.890287,13.7249061 128.901805,12.6227785 C129.407564,12.0725907 129.787743,11.4418023 130.038903,10.7286608 C130.291782,10.0190238 130.417362,9.22703379 130.417362,8.35444305 C130.417362,7.01051314 130.035462,5.92590738 129.268222,5.10237797 C128.886322,4.69061327 128.449374,4.38047559 127.957377,4.17546934 C127.46366,3.9669587 126.914894,3.86533166 126.316241,3.86533166 C125.321926,3.86533166 124.45319,4.10012516 123.703153,4.56620776 Z" id="Fill-13" fill="#004B8D"></path>
                    </g>
                    <g id="arrow" transform="translate(136.962963, 0.000000)">
                        <mask id="mask-2" fill="white">
                            <use xlink:href="#path-1"></use>
                        </mask>
                        <g id="Mask"></g>
                        <rect id="Rectangle" fill="url(#linearGradient-3)" fill-rule="nonzero" mask="url(#mask-2)" x="-1.0617284" y="-1.72239108" width="36.0987654" height="39.6149949"></rect>
                    </g>
                </g>
            </g>
        </g>
    </g>
</svg>