<?xml version="1.0" encoding="UTF-8"?>
<svg width="36px" height="21px" viewBox="0 0 36 21" version="1.1" xmlns="http://www.w3.org/2000/svg" xmlns:xlink="http://www.w3.org/1999/xlink">
    <g id="Cloud-upload" stroke="none" stroke-width="1" fill="none" fill-rule="evenodd">
        <g id="Group-10" transform="translate(1.000000, 1.000000)" stroke="#323337">
            <path d="M24.3088183,18.9744121 L29.1280413,18.9744121 C31.8618594,18.7101307 34,16.3789548 34,13.5415578 C34,10.7870352 31.9849924,8.51028141 29.3665763,8.13753769 C28.4948394,3.50344724 24.4733097,0 19.6432125,0 C15.7731006,0 12.4221087,2.24944724 10.7942255,5.52737688 C10.134813,4.8378392 9.21178643,4.40876382 8.18900887,4.40876382 C6.18531521,4.40876382 4.5610147,6.0538392 4.5610147,8.08292462 C4.5610147,8.10431156 4.56233466,8.12550754 4.56252322,8.14708543 C1.97842592,8.55019095 0,10.8118593 0,13.5415578 C0,16.4856985 2.30219235,18.8842814 5.18290268,18.9946533 L11.8034263,19" id="Stroke-1"></path>
            <path d="M18.5,20 L18.5,8" id="Stroke-3"></path>
            <polyline id="Stroke-5" points="14 12 18.5002239 8 23 12"></polyline>
        </g>
    </g>
</svg>