<?xml version="1.0" encoding="UTF-8"?>
<svg width="21px" height="20px" viewBox="0 0 21 20" version="1.1" xmlns="http://www.w3.org/2000/svg" xmlns:xlink="http://www.w3.org/1999/xlink">
    <g id="Icon---User" stroke="none" stroke-width="1" fill="none" fill-rule="evenodd">
        <g id="Page-1" transform="translate(1.000000, 1.000000)" stroke="#323337">
            <path d="M9.50156667,17.9998265 C6.73577804,17.9998265 3.96992354,17.9998969 1.20400318,17.9997561 C0.444302145,17.9997561 -0.0194619415,17.5204967 0.000627256954,16.7113812 C0.056415949,14.4604037 0.943436393,12.6574955 2.62651603,11.3151889 C3.70909329,10.4517192 4.94566579,10.022167 6.29480366,10.0130142 C8.44052766,9.99843994 10.5864492,9.99308902 12.7319756,10.0130142 C15.7566844,10.0413177 18.3234912,12.3470717 18.8851983,15.5258706 C18.9601541,15.9498607 18.986303,16.3870168 18.9994104,16.8192445 C19.018775,17.4558632 18.5588312,17.9622293 17.9637957,17.9975031 C17.903594,18.0010939 17.8431288,17.9997561 17.7827295,17.9997561 C15.0223419,17.9998265 12.2619543,17.9998265 9.50156667,17.9998265 Z" id="Stroke-1"></path>
            <path d="M12.4869601,4.0289632 C12.4869601,4.4107942 12.5036915,4.79350881 12.4834721,5.17418007 C12.4428699,5.93701369 12.1348922,6.58608222 11.5984519,7.11751984 C10.9733406,7.73693212 10.2169397,8.03509608 9.34178387,7.99671416 C8.07788191,7.94132271 6.93704021,7.01109977 6.61799911,5.7660347 C6.54813053,5.4934955 6.51788321,5.20483038 6.51112525,4.92251622 C6.49586534,4.28786163 6.49733683,3.65243387 6.50927226,3.0176136 C6.53150813,1.83754926 7.07672288,0.952390548 8.08229638,0.394665455 C9.12111469,-0.18144982 10.1808609,-0.122082113 11.163272,0.541676466 C12.0547777,1.14407921 12.4881046,2.02807818 12.4985685,3.11779315 C12.5015115,3.42147968 12.4990045,3.72522144 12.4990045,4.0289632 C12.4949716,4.0289632 12.4909386,4.0289632 12.4869601,4.0289632 Z" id="Stroke-3"></path>
        </g>
    </g>
</svg>