<svg xmlns="http://www.w3.org/2000/svg" viewBox="0 0 595.28 88.22"><defs><style>.cls-1{fill:#7ac143;}.cls-2{fill:#414042;}.cls-3{fill:#fff;}.cls-4{fill:none;stroke:#fff;stroke-miterlimit:4.25;stroke-width:0.22px;}</style></defs><title>Ресурс 1</title><g id="Слой_2" data-name="Слой 2"><g id="Layer_1" data-name="Layer 1"><rect class="cls-1" width="595.28" height="88.22"/><polygon class="cls-2" points="131.85 53.72 133.08 53.72 133.08 57.61 141.25 57.61 141.25 53.72 142.47 53.72 142.47 62.77 141.25 62.77 141.25 58.61 133.08 58.61 133.08 62.77 131.85 62.77 131.85 53.72"/><path class="cls-2" d="M155.06,56.55c0-1.58-.95-1.93-2.12-1.93h-5c-1.18,0-2.12.35-2.12,1.93v3.39c0,1.58.94,1.93,2.12,1.93h5c1.17,0,2.12-.35,2.12-1.93ZM144.63,57c0-2.29.78-3.39,3.22-3.39h5.21c2.45,0,3.22,1.1,3.22,3.39v2.47c0,2.29-.77,3.39-3.22,3.39h-5.21c-2.44,0-3.22-1.1-3.22-3.39Z"/><polygon class="cls-2" points="158.37 53.72 160.28 53.72 165.56 61.3 170.85 53.72 172.76 53.72 172.76 62.77 171.53 62.77 171.53 54.82 171.51 54.82 166 62.77 165.13 62.77 159.62 54.82 159.59 54.82 159.59 62.77 158.37 62.77 158.37 53.72"/><polygon class="cls-2" points="175.08 53.72 183.96 53.72 183.96 54.72 176.3 54.72 176.3 57.61 183.66 57.61 183.66 58.61 176.3 58.61 176.3 61.77 184.01 61.77 184.01 62.77 175.08 62.77 175.08 53.72"/><path class="cls-2" d="M185.64,59.92h1.15v.64c0,.88.48,1.31,2,1.31h3.8c1.77,0,2.3-.38,2.3-1.68,0-1.13-.45-1.42-2-1.42h-2.32c-3.73,0-5-.22-5-2.62,0-2.06,1.23-2.53,3.75-2.53H192c3,0,3.8.78,3.8,2.39v.31h-1.15c0-1.43-.17-1.7-3.38-1.7H190c-2.36,0-3.2.13-3.2,1.61,0,1.08.34,1.44,2.25,1.44h3.62c2.39,0,3.39.69,3.39,2.22v.59c0,2.23-1.83,2.39-3.64,2.39H189c-1.78,0-3.36-.32-3.36-2.29Z"/><path class="cls-3" d="M55.47,29.81c0-2.34-1.76-4.69-8.07-4.69H41.72c-6.14,0-7.58,1-7.94,6.22H55.47ZM29.9,31.25c0-8.34,5.77-9.29,11.27-9.29H47.4c6.94,0,12,1.76,12,10V34.5H33.78v1.44c0,5.23,2.52,6.59,9.29,6.59h5.32c4.87,0,6.85-.63,7.08-4.15h3.88v.45c0,5.28-4.38,6.85-11.59,6.85h-7c-5,0-10.82-.94-10.82-9.42Z"/><rect class="cls-3" x="65.98" y="22.32" width="3.88" height="23"/><polygon class="cls-3" points="131.85 22.46 136.28 22.46 136.28 31.11 156.9 31.11 156.9 22.46 161.32 22.46 161.32 45.32 156.9 45.32 156.9 34.72 136.28 34.72 136.28 45.32 131.85 45.32 131.85 22.46"/><path class="cls-3" d="M185,42.53h.12c4.87,0,6.85-.63,7.08-4.15H196v.45c0,5.28-4.37,6.85-11.59,6.85h-3.81c-7.26,0-9-3.51-9-7.26v-9h-5V26.27h5V22.32h3.88v3.95H196v3.16H175.54v7.51c0,4.28,1.49,5.59,5.72,5.59Z"/><path class="cls-2" d="M106.72,42.74c10.65,0,12.74-.61,12.74-8.36,0-6.21-1.62-7.83-11.19-7.83H93.82c-9.58,0-11.2,1.62-11.2,7.83,0,7.75,2.09,8.36,12.75,8.36ZM105.1,65.67c13.82,0,15-1.28,15-9.24s-2.5-8.3-13-8.3H95c-10.52,0-13,.41-13,8.3s1.14,9.24,15,9.24ZM75.81,55.82c0-7.75,1.69-9.51,9.31-10.45v-.14c-8.23-1.07-8.7-6.47-8.7-9.64V32.42c0-8.16,4.52-11.26,15-11.26H110.7c10.45,0,15,3.1,15,11.26v3.17c0,3.17-.47,8.57-8.23,9.64v.14c4.86.81,8.83,2.9,8.83,9.51v4.79c0,8.43-4.51,11.4-14.23,11.4H90c-9.71,0-14.23-3-14.23-11.4Z"/><path class="cls-3" d="M557.31,54.6c0,.64.46,1,1.32,1a1.6,1.6,0,0,0,1.12-.37,2.4,2.4,0,0,0,.56-1.55c0-.6-.42-1-1.33-1a1.52,1.52,0,0,0-1.08.38,2.11,2.11,0,0,0-.59,1.51M560.49,49c.26,0,.43-.19.53-.56l5.2-16.23c.37-1-.18-1.2-1.16-1.2-.56,0-.91.15-1.12,1l-4,16.19c-.11.6,0,.79.55.79m-16.2,7.76c-2.78,3.68-4.12,4.59-5.52,4.59a2.65,2.65,0,0,1-1.92-.94c-.11-.08-.78.34-.82.94a1,1,0,0,0,.28.79,3.16,3.16,0,0,0,2.46.86c2.3,0,4-1.2,7.23-5.87l12.32-17.39c1.51-2.22-.45-2.26-.53-2.15L546.7,53.47l-.6-10.81c-.1-2.29-.56-3.76-1.26-4.51a2,2,0,0,0-1.54-.68c-1.65,0-1.53,1.47-1.49,1.47,1.58,0,2.34.94,2.53,3.57l.72,10.73c0,.68.26,1.13.9,1.21Zm-19.74-3.2a8.67,8.67,0,0,0,6.28,2.29c4.29,0,6.92-2.07,7.14-5.16.2-2.86-2.41-3.87-4.94-4.78s-4.62-1.73-4.48-3.76c.12-1.7,1.81-3.35,4.79-3.35,2.75,0,5,1.35,5.69,3.2.1.15,1.06-.15,1.12-.94a2.55,2.55,0,0,0-.75-1.66,7.93,7.93,0,0,0-5.8-2.11c-3.88,0-6.64,2.22-6.84,5.08-.21,3.09,2.5,4.15,5.11,5s4.48,1.58,4.35,3.46c-.14,2-2,3.47-5.17,3.47s-5.42-1.62-6.24-3.47a1.24,1.24,0,0,0-1.09,1.06,2.44,2.44,0,0,0,.83,1.62m-18.9-5.39c.32-4.55,3.78-9.3,8.59-9.3,3.62,0,5.53,2.3,6,5.39l-.94,3.23c-1,3.51-4.39,6.78-8.27,6.78-3.23,0-5.6-2.3-5.33-6.1m-1.85,0c-.34,4.89,2.78,7.64,6.85,7.64a9,9,0,0,0,7.32-4v.08c-.74,2.56.22,3.8,2,3.8,1.43,0,1.37-1.28,1.33-1.28-1.39,0-2-.53-1.48-2.56l4-14.12a.94.94,0,0,0-.66-.22c-.76,0-1.2.49-1.6,1.88l-.61,2.26c-.66-2.37-2.93-4.41-6.43-4.41-5.76,0-10.28,5.42-10.67,10.92m-16.51-2.82a10.15,10.15,0,0,1,9.11-6.52c3,0,4.34,1.47,4.24,2.94-.14,2-2,3.88-8.93,3.88a33.76,33.76,0,0,1-4.42-.3m-2.57,3.27c-.29,4.18,2.17,7.19,7.14,7.19a8.93,8.93,0,0,0,6.56-2.29c.73-.64.94-1,1-1.47.05-.64-.8-.94-.88-.87a7.69,7.69,0,0,1-6.46,3.09c-3.88,0-5.71-2.37-5.47-5.76a11.25,11.25,0,0,1,.22-1.62,49,49,0,0,0,4.95.26c8.13,0,10.51-2.22,10.73-5.42.18-2.56-1.94-4.48-5.86-4.48a12.13,12.13,0,0,0-11.9,11.37M467,49.55c-1.16,4.14.42,6.25,3.62,6.25a4.16,4.16,0,0,0,2.89-.94,1.37,1.37,0,0,0,.52-.94c0-.53-.31-.9-.39-.87A3.54,3.54,0,0,1,471,54.26c-2.23,0-3.18-1.39-2.24-4.71l2.95-10.31h5.08a.85.85,0,0,0,.69-.23,1.57,1.57,0,0,0,.41-.94c0-.3-.24-.45-.76-.45h-5l1.15-4.14a1,1,0,0,0-.66-.23c-.75,0-1.24.49-1.6,1.88l-.7,2.49h-2.26a.92.92,0,0,0-.69.19,1.58,1.58,0,0,0-.4,1c0,.3.23.45.75.45h2.15Zm-8.32,2.34c-.75,2.59.18,3.8,2,3.8a1.21,1.21,0,0,0,1.37-1.28c-1.55,0-2.15-.53-1.59-2.56l3.8-13.48c.2-.68-.2-.86-.69-.86h-.23c-.45,0-.69.22-.89.86Zm6.56-19.09a1.48,1.48,0,0,0,1.43-1.51c0-.64-.35-1-1.21-1a1.48,1.48,0,0,0-1.43,1.5c0,.64.39,1,1.21,1M435.05,45.34a10.16,10.16,0,0,1,9.11-6.52c3,0,4.34,1.47,4.24,2.94-.14,2-2,3.88-8.93,3.88a33.87,33.87,0,0,1-4.42-.3m-2.56,3.27c-.29,4.18,2.17,7.19,7.14,7.19a9,9,0,0,0,6.56-2.29c.72-.64.93-1,1-1.47,0-.64-.8-.94-.88-.87a7.7,7.7,0,0,1-6.47,3.09c-3.88,0-5.71-2.37-5.47-5.76a11.28,11.28,0,0,1,.23-1.62,48.8,48.8,0,0,0,4.95.26c8.13,0,10.51-2.22,10.73-5.42.18-2.56-1.95-4.48-5.86-4.48a12.12,12.12,0,0,0-11.9,11.37m-16.07,6.06c-.2.68.2.87.69.87h.23c.41,0,.69-.23.89-.87l2.4-8.51,4.16,6.14c1.83,2.86,2.4,3.39,3.72,3.39a1.4,1.4,0,0,0,1.54-1.54c-1.51,0-2-.12-3.49-2.38l-3.9-5.53,9.5-6.7c2.11-1.58.43-2.33.27-2.26l-11.7,8.47,4.25-15c.16-.68-.24-.87-.69-.87h-.23c-.45,0-.73.23-.89.87ZM397.9,48.12c.31-4.55,3.77-9.3,8.59-9.3,3.61,0,5.52,2.3,5.95,5.39l-.94,3.23c-1,3.51-4.39,6.78-8.27,6.78-3.24,0-5.6-2.3-5.33-6.1m-1.85,0c-.34,4.89,2.78,7.64,6.84,7.64a9,9,0,0,0,7.32-4v.08c-.75,2.56.22,3.8,2,3.8,1.43,0,1.37-1.28,1.33-1.28-1.39,0-2-.53-1.47-2.56l4-14.12a.89.89,0,0,0-.66-.22c-.75,0-1.2.49-1.6,1.88l-.61,2.26c-.66-2.37-2.93-4.41-6.43-4.41-5.76,0-10.28,5.42-10.66,10.92m-33,6.51c-.2.68.09.87.54.87h.19a1,1,0,0,0,1.07-.87l3.21-11.4c2-2.83,4-4.33,6.93-4.33s4.5,2.41,3.5,5.87l-2.76,9.86c-.2.72.09.87.55.87h.18a1,1,0,0,0,1.08-.87l3.16-11.29c1.82-2.82,3.89-4.44,6.94-4.44,2.45,0,4,1.65,3.83,4.44a26.89,26.89,0,0,1-1.35,5.23,23.86,23.86,0,0,0-1.22,4.59c-.11,1.59.73,2.49,2.08,2.49a1.19,1.19,0,0,0,1.3-1.24c-1-.08-1.67-.38-1.59-1.51a22.85,22.85,0,0,1,1.15-4.1,27,27,0,0,0,1.53-5.76A5.13,5.13,0,0,0,388,37.24a8.78,8.78,0,0,0-7.49,4.33c-.27-2.63-2.33-4.33-5.16-4.33a8.3,8.3,0,0,0-6.57,3.54l.36-1.32c.45-1.62-.13-2-.84-2-.23,0-.39.07-.39.11Zm-22.61-9.33a10.15,10.15,0,0,1,9.11-6.52c3,0,4.34,1.47,4.24,2.94-.14,2-2,3.88-8.93,3.88a33.76,33.76,0,0,1-4.42-.3m-2.57,3.27c-.29,4.18,2.17,7.19,7.14,7.19a8.93,8.93,0,0,0,6.56-2.29c.72-.64.94-1,1-1.47.05-.64-.8-.94-.88-.87a7.69,7.69,0,0,1-6.46,3.09c-3.88,0-5.71-2.37-5.47-5.76a11.25,11.25,0,0,1,.22-1.62,49,49,0,0,0,4.95.26c8.13,0,10.51-2.22,10.73-5.42.18-2.56-1.94-4.48-5.86-4.48a12.13,12.13,0,0,0-11.9,11.37m-27.15,6.06c0,.6.23.94,1.29.94.79,0,1.06-.15,1.4-.71l11.14-18.18.89,18c0,.57.27.94,1.32.94.87,0,1.22-.22,1.48-.67l11.34-21.65c1.43-2.71-.78-2.33-.82-2.26L327.13,53.69l-.88-17.58c0-.75-.29-1.28-1.34-1.28a1.56,1.56,0,0,0-1.62,1L312.44,53.73l.91-21.61c.09-1.77-1.8-1.13-1.86-.79Z"/><path class="cls-4" d="M557.31,54.6c0,.64.46,1,1.32,1a1.6,1.6,0,0,0,1.12-.37,2.4,2.4,0,0,0,.56-1.55c0-.6-.42-1-1.33-1a1.52,1.52,0,0,0-1.08.38A2.11,2.11,0,0,0,557.31,54.6ZM560.49,49c.26,0,.43-.19.53-.56l5.2-16.23c.37-1-.18-1.2-1.16-1.2-.56,0-.91.15-1.12,1l-4,16.19C559.83,48.76,559.93,49,560.49,49Zm-16.2,7.76c-2.78,3.68-4.12,4.59-5.51,4.59a2.66,2.66,0,0,1-1.93-.94c-.11-.08-.78.34-.82.94a1,1,0,0,0,.28.79,3.16,3.16,0,0,0,2.46.86c2.3,0,4-1.2,7.23-5.87l12.32-17.39c1.51-2.22-.45-2.26-.53-2.15L546.7,53.47l-.6-10.81c-.1-2.29-.56-3.76-1.26-4.51a2,2,0,0,0-1.54-.68c-1.65,0-1.53,1.47-1.49,1.47,1.58,0,2.34.94,2.53,3.57l.72,10.73c0,.68.26,1.13.9,1.21Zm-19.74-3.2a8.67,8.67,0,0,0,6.28,2.29c4.29,0,6.92-2.07,7.14-5.16.2-2.86-2.41-3.87-4.94-4.78s-4.62-1.73-4.48-3.76c.12-1.7,1.81-3.35,4.79-3.35,2.75,0,5,1.35,5.69,3.2.1.15,1.06-.15,1.12-.94a2.55,2.55,0,0,0-.75-1.66,7.93,7.93,0,0,0-5.8-2.11c-3.88,0-6.64,2.22-6.84,5.08-.21,3.09,2.5,4.15,5.11,5s4.48,1.58,4.35,3.46c-.14,2-2,3.47-5.17,3.47s-5.42-1.62-6.24-3.47a1.24,1.24,0,0,0-1.09,1.06A2.44,2.44,0,0,0,524.55,53.51Zm-18.9-5.39c.32-4.55,3.78-9.3,8.59-9.3,3.62,0,5.53,2.3,6,5.39l-.94,3.23c-1,3.51-4.39,6.78-8.27,6.78C507.75,54.22,505.38,51.92,505.65,48.12Zm-1.85,0c-.34,4.89,2.78,7.64,6.85,7.64a9,9,0,0,0,7.32-4v.08c-.74,2.56.22,3.8,2,3.8,1.43,0,1.37-1.28,1.33-1.28-1.39,0-2-.53-1.48-2.56l4-14.12a.94.94,0,0,0-.66-.22c-.76,0-1.2.49-1.6,1.88l-.61,2.26c-.66-2.37-2.93-4.41-6.43-4.41C508.71,37.24,504.19,42.66,503.8,48.16Zm-16.51-2.82a10.15,10.15,0,0,1,9.11-6.52c3,0,4.34,1.47,4.24,2.94-.14,2-2,3.88-8.93,3.88A33.76,33.76,0,0,1,487.29,45.34Zm-2.57,3.27c-.29,4.18,2.17,7.19,7.14,7.19a8.93,8.93,0,0,0,6.56-2.29c.73-.64.94-1,1-1.47.05-.64-.8-.94-.88-.87a7.69,7.69,0,0,1-6.46,3.09c-3.88,0-5.71-2.37-5.47-5.76a11.25,11.25,0,0,1,.22-1.62,49,49,0,0,0,4.95.26c8.13,0,10.51-2.22,10.73-5.42.18-2.56-1.94-4.48-5.86-4.48A12.13,12.13,0,0,0,484.72,48.61ZM467,49.55c-1.16,4.14.42,6.25,3.62,6.25a4.16,4.16,0,0,0,2.89-.94,1.37,1.37,0,0,0,.52-.94c0-.53-.31-.9-.39-.87A3.54,3.54,0,0,1,471,54.26c-2.23,0-3.18-1.39-2.24-4.71l2.95-10.31h5.08a.85.85,0,0,0,.69-.23,1.57,1.57,0,0,0,.41-.94c0-.3-.24-.45-.76-.45h-5l1.15-4.14a1,1,0,0,0-.66-.23c-.75,0-1.24.49-1.6,1.88l-.7,2.49h-2.26a.92.92,0,0,0-.69.19,1.58,1.58,0,0,0-.4,1c0,.3.23.45.75.45h2.15Zm-8.32,2.34c-.75,2.59.18,3.8,2,3.8a1.21,1.21,0,0,0,1.37-1.28c-1.55,0-2.15-.53-1.59-2.56l3.8-13.48c.2-.68-.2-.86-.69-.86h-.23c-.45,0-.69.22-.89.86Zm6.56-19.09a1.48,1.48,0,0,0,1.43-1.51c0-.64-.35-1-1.21-1a1.48,1.48,0,0,0-1.43,1.5C464,32.46,464.39,32.8,465.21,32.8ZM435.05,45.34a10.16,10.16,0,0,1,9.11-6.52c3,0,4.34,1.47,4.24,2.94-.14,2-2,3.88-8.93,3.88A33.87,33.87,0,0,1,435.05,45.34Zm-2.56,3.27c-.29,4.18,2.17,7.19,7.14,7.19a9,9,0,0,0,6.56-2.29c.72-.64.93-1,1-1.47,0-.64-.8-.94-.88-.87a7.7,7.7,0,0,1-6.47,3.09c-3.88,0-5.71-2.37-5.47-5.76a11.28,11.28,0,0,1,.23-1.62,48.8,48.8,0,0,0,4.95.26c8.13,0,10.51-2.22,10.73-5.42.18-2.56-1.95-4.48-5.86-4.48A12.12,12.12,0,0,0,432.49,48.61Zm-16.07,6.06c-.2.68.2.87.69.87h.23c.41,0,.69-.23.89-.87l2.4-8.51,4.16,6.14c1.83,2.86,2.4,3.39,3.72,3.39a1.4,1.4,0,0,0,1.54-1.54c-1.51,0-2-.12-3.49-2.38l-3.9-5.53,9.5-6.7c2.11-1.58.43-2.33.27-2.26l-11.7,8.47,4.25-15c.16-.68-.24-.87-.69-.87h-.23c-.45,0-.73.23-.89.87ZM397.9,48.12c.31-4.55,3.77-9.3,8.59-9.3,3.61,0,5.52,2.3,5.95,5.39l-.94,3.23c-1,3.51-4.39,6.78-8.27,6.78C400,54.22,397.63,51.92,397.9,48.12Zm-1.85,0c-.34,4.89,2.78,7.64,6.84,7.64a9,9,0,0,0,7.32-4v.08c-.75,2.56.22,3.8,2,3.8,1.43,0,1.37-1.28,1.33-1.28-1.39,0-2-.53-1.47-2.56l4-14.12a.89.89,0,0,0-.66-.22c-.75,0-1.2.49-1.6,1.88l-.61,2.26c-.66-2.37-2.93-4.41-6.43-4.41C401,37.24,396.43,42.66,396.05,48.16Zm-33,6.51c-.2.68.09.87.54.87h.19a1,1,0,0,0,1.07-.87l3.21-11.4c2-2.83,4-4.33,6.93-4.33s4.5,2.41,3.5,5.87l-2.76,9.86c-.2.72.09.87.55.87h.18a1,1,0,0,0,1.08-.87l3.16-11.29c1.82-2.82,3.89-4.44,6.94-4.44,2.45,0,4,1.65,3.83,4.44a26.89,26.89,0,0,1-1.35,5.23,23.86,23.86,0,0,0-1.22,4.59c-.11,1.59.73,2.49,2.08,2.49a1.19,1.19,0,0,0,1.3-1.24c-1-.08-1.67-.38-1.59-1.51a22.85,22.85,0,0,1,1.15-4.1,27,27,0,0,0,1.53-5.76A5.13,5.13,0,0,0,388,37.24a8.78,8.78,0,0,0-7.49,4.33c-.27-2.63-2.33-4.33-5.16-4.33a8.3,8.3,0,0,0-6.57,3.54l.36-1.32c.45-1.62-.13-2-.84-2-.23,0-.39.07-.39.11Zm-22.61-9.33a10.15,10.15,0,0,1,9.11-6.52c3,0,4.34,1.47,4.24,2.94-.14,2-2,3.88-8.93,3.88A33.76,33.76,0,0,1,340.48,45.34Zm-2.57,3.27c-.29,4.18,2.17,7.19,7.14,7.19a8.93,8.93,0,0,0,6.56-2.29c.72-.64.94-1,1-1.47.05-.64-.8-.94-.88-.87a7.69,7.69,0,0,1-6.46,3.09c-3.88,0-5.71-2.37-5.47-5.76a11.25,11.25,0,0,1,.22-1.62,49,49,0,0,0,4.95.26c8.13,0,10.51-2.22,10.73-5.42.18-2.56-1.94-4.48-5.86-4.48A12.13,12.13,0,0,0,337.91,48.61Zm-27.15,6.06c0,.6.23.94,1.29.94.79,0,1.06-.15,1.4-.71l11.14-18.18.89,18c0,.57.27.94,1.32.94.87,0,1.22-.22,1.48-.67l11.34-21.65c1.43-2.71-.78-2.33-.82-2.26L327.13,53.69l-.88-17.58c0-.75-.29-1.28-1.34-1.28a1.56,1.56,0,0,0-1.62,1L312.44,53.73l.91-21.61c.09-1.77-1.8-1.13-1.86-.79Z"/></g></g></svg>