<svg xmlns="http://www.w3.org/2000/svg" viewBox="0 0 115.2 22.94"><defs><style>.a{fill:#7ac143;}.b{fill:none;stroke:#7ac143;stroke-width:0.74px;}</style></defs><path class="a" d="M18.46,7.5v7.94a.42.42,0,0,1-.42.42H17.5a.42.42,0,0,1-.42-.42V13.8H5.86v1.64a.42.42,0,0,1-.42.42H4.91a.42.42,0,0,1-.43-.42V7.5a.42.42,0,0,1,.43-.42h.53a.42.42,0,0,1,.42.42v3.81h4.5a1,1,0,0,1,1-.93h5.74V7.5a.42.42,0,0,1,.42-.42H18a.42.42,0,0,1,.42.42"/><path class="a" d="M6.18,10.8V10a.24.24,0,0,1,.24-.24H9.83a.24.24,0,0,1,.24.24v.79a.24.24,0,0,1-.24.24H6.42a.24.24,0,0,1-.24-.24"/><circle class="b" cx="11.47" cy="11.47" r="11.1"/><circle class="b" cx="103.73" cy="11.47" r="11.1"/><path class="a" d="M107.76,13.08a.68.68,0,1,1,.68-.68.67.67,0,0,1-.68.68m-1.84,1.11h-4.38V13.4h4.38Zm-6.23-1.11a.68.68,0,0,1,0-1.36.68.68,0,1,1,0,1.36m0-3.08.69-1.9a.4.4,0,0,1,.34-.23h6a.4.4,0,0,1,.33.23l.7,1.9a.16.16,0,0,1-.16.23h-7.7a.16.16,0,0,1-.16-.23m10.21-.2a.68.68,0,0,0-.68-.69h-.82l-.59-1.54a1.7,1.7,0,0,0-1-.9,17,17,0,0,0-6.26,0,1.72,1.72,0,0,0-1,.9L99,9.11H98.2a.69.69,0,0,0,0,1.37h.3l-.21.54A4.76,4.76,0,0,0,98,12.46v3.23a.87.87,0,0,0,1.74,0v-.5h7.94v.5a.87.87,0,0,0,1.74,0V12.46a4.76,4.76,0,0,0-.27-1.44l-.21-.54h.29a.68.68,0,0,0,.68-.68"/><circle class="b" cx="57.6" cy="11.47" r="11.1"/><path class="a" d="M50.05,10.7a.66.66,0,0,1,.32.42v.23A4.63,4.63,0,0,0,53,15.58l-.19.55a.34.34,0,1,0,.64.23l.18-.52h7.9l.18.52a.34.34,0,1,0,.64-.23l-.19-.54a4.62,4.62,0,0,0,2.66-4.24v-.23a.62.62,0,0,1,.32-.42c.3-.19,0-.31,0-.31H51.52V9.07a.92.92,0,0,1,.69-.91.91.91,0,0,1,.84.24.21.21,0,0,0,.26,0l.11-.08a.2.2,0,0,0,0-.3,1.42,1.42,0,0,0-1.31-.43A1.47,1.47,0,0,0,51,9.09v1.3h-.94s-.3.12,0,.31"/></svg>