<svg xmlns="http://www.w3.org/2000/svg" viewBox="0 0 799.45 83.12"><defs><style>.a{fill:#fff;}</style></defs><path class="a" d="M223.12,319.73c0,12.32.23,13.84,7.74,14.66l3.16.35a2.29,2.29,0,0,1-.23,2.93c-6.69-.23-10.55-.35-15.24-.35-4.93,0-9.15.12-14.31.35-.7-.35-.94-2.22-.23-2.93l2.46-.35c6.8-.94,7-2.34,7-14.66V276.47c0-10-.23-12.08-5.51-12.55l-4.22-.47a2,2,0,0,1,.24-2.93c6.21-.82,13.48-.94,23.21-.94s17,1.29,22.51,4.69a20.25,20.25,0,0,1,9.38,17.59c0,10.79-6.68,16.18-11.72,18.64A39.45,39.45,0,0,1,231.21,304c-.82-.35-.82-2.11-.12-2.34,12.66-2.35,17.24-9.5,17.24-19.7,0-11.38-6.69-18.76-18.88-18.76-6.21,0-6.33.47-6.33,4.22Z" transform="translate(-203.22 -256.08)"/><path class="a" d="M268.25,299.45c0-23.45,17.59-41.39,41.75-41.39,27.08,0,40.68,19.58,40.68,40.22,0,23.68-18.05,40.92-40.68,40.92C284,339.2,268.25,320.56,268.25,299.45ZM339,301.91c0-19.35-8.56-40.22-31-40.22-12.19,0-28,8.33-28,34,0,17.35,8.44,39.86,31.54,39.86C325.59,335.56,339,325,339,301.91Z" transform="translate(-203.22 -256.08)"/><path class="a" d="M371.08,277.64c0-11.14-.35-13.13-5.16-13.72l-3.75-.47c-.82-.58-.82-2.46.11-2.93,6.57-.59,14.66-.94,26.15-.94,7.27,0,14.19.59,19.58,3.52,5.63,2.93,9.74,8.21,9.74,16.41,0,11.14-8.8,17.24-14.66,19.59-.59.7,0,1.87.58,2.81,9.39,15.13,15.6,24.51,23.57,31.19a14,14,0,0,0,8.09,3.28,1,1,0,0,1,.12,1.65,18.33,18.33,0,0,1-5.16.58c-10,0-15.94-2.93-24.27-14.77-3-4.34-7.86-12.43-11.49-17.71-1.76-2.58-3.64-3.75-8.33-3.75-5.27,0-5.51.12-5.51,2.58v14.77c0,12.32.24,13.72,7,14.66l2.46.35c.7.59.47,2.58-.23,2.93-5.28-.23-9.27-.35-14-.35-4.92,0-9.14.12-14.65.35-.71-.35-.94-2.11-.24-2.93l2.93-.35c6.8-.82,7-2.34,7-14.66Zm9.61,16.77c0,2.11,0,3.4.35,3.87s2.12.58,8.1.58c4.22,0,8.67-.47,12.07-3.05,3.17-2.46,5.87-6.56,5.87-14.53,0-9.27-5.75-18.06-18.77-18.06-7.27,0-7.62.47-7.62,3.75Z" transform="translate(-203.22 -256.08)"/><path class="a" d="M469.68,319.73c0,12.32.24,14,7,14.66l3.75.35c.7.47.47,2.58-.24,2.93-6.68-.23-10.67-.35-15.36-.35s-8.79.12-16.29.35a2,2,0,0,1,0-2.93l4.22-.35c6.68-.58,7.27-2.34,7.27-14.66V267.32c0-3.63,0-3.75-3.52-3.75H450.1c-5,0-11.49.23-14.42,2.93s-4,5.16-5.28,8.09a2.26,2.26,0,0,1-3-.82,123,123,0,0,0,4.46-17.47,2.92,2.92,0,0,1,2.23,0c.7,3.75,4.57,3.63,10,3.63h47.49c6.33,0,7.39-.23,9.15-3.28.58-.23,1.87-.12,2.11.35-1.29,4.81-2.11,14.31-1.76,17.83-.47.93-2.46.93-3.05.23-.35-2.93-1.17-7.27-2.93-8.56-2.7-2-7.15-2.93-13.6-2.93h-8.33c-3.52,0-3.4.12-3.4,4Z" transform="translate(-203.22 -256.08)"/><path class="a" d="M518.92,277.52c0-12.19-.23-13.95-7.15-14.77l-1.88-.24c-.7-.47-.47-2.58.24-2.93,5,.24,9,.35,13.83.35h22c7.5,0,14.42,0,15.83-.35.7,2,1.4,10.44,1.87,15.6-.47.7-2.34.94-2.93.23-1.76-5.51-2.81-9.61-8.91-11.14-2.46-.58-6.22-.7-11.38-.7h-8.44c-3.51,0-3.51.23-3.51,4.69v23.45c0,3.28.35,3.28,3.86,3.28h6.8c4.93,0,8.56-.23,10-.7s2.23-1.17,2.82-4.1l.93-4.81c.59-.71,2.58-.71,3.05.12,0,2.81-.47,7.38-.47,11.84,0,4.22.47,8.68.47,11.25-.47.83-2.46.83-3.05.12l-1-4.57c-.47-2.11-1.29-3.87-3.64-4.46-1.64-.47-4.45-.58-9-.58h-6.8c-3.51,0-3.86.11-3.86,3.16V318.8c0,6.21.35,10.2,2.22,12.19,1.41,1.41,3.87,2.7,14.19,2.7,9,0,12.43-.47,15-1.76,2.11-1.17,5.28-5.28,8.32-11.37a2.16,2.16,0,0,1,2.94.82,103.39,103.39,0,0,1-5.28,16.29c-10.55-.23-21-.35-31.43-.35H524c-5,0-9,.12-15.94.35-.71-.35-.94-2.22-.24-2.93l3.87-.35c6.68-.58,7.27-2.34,7.27-14.66Z" transform="translate(-203.22 -256.08)"/><path class="a" d="M587.39,277.64c0-11.14-.35-13.13-5.16-13.72l-3.75-.47c-.82-.58-.82-2.46.12-2.93,6.56-.59,14.65-.94,26.14-.94,7.27,0,14.19.59,19.59,3.52,5.62,2.93,9.73,8.21,9.73,16.41,0,11.14-8.8,17.24-14.66,19.59-.59.7,0,1.87.59,2.81,9.38,15.13,15.59,24.51,23.56,31.19a14,14,0,0,0,8.1,3.28,1,1,0,0,1,.11,1.65,18.33,18.33,0,0,1-5.16.58c-10,0-15.94-2.93-24.27-14.77-3.05-4.34-7.85-12.43-11.49-17.71-1.76-2.58-3.63-3.75-8.32-3.75-5.28,0-5.51.12-5.51,2.58v14.77c0,12.32.23,13.72,7,14.66l2.46.35a2.29,2.29,0,0,1-.23,2.93c-5.28-.23-9.26-.35-14-.35-4.92,0-9.14.12-14.65.35-.71-.35-.94-2.11-.24-2.93l2.93-.35c6.81-.82,7-2.34,7-14.66ZM597,294.41c0,2.11,0,3.4.35,3.87s2.11.58,8.09.58c4.22,0,8.67-.47,12.07-3.05,3.17-2.46,5.87-6.56,5.87-14.53,0-9.27-5.75-18.06-18.76-18.06-7.27,0-7.62.47-7.62,3.75Z" transform="translate(-203.22 -256.08)"/><path class="a" d="M692.32,275.18c0-8.21-.58-10.67-5.51-11.38l-2.58-.35c-.94-.58-1.05-2.46.12-2.93,10-.59,19.46-.94,29.43-.94s18.17.71,25.8,3.52c15.82,5.75,23.8,19.11,23.8,34.59,0,14.89-7.15,27.67-20.52,34.94-7.62,4.11-17.24,5.63-26.27,5.63-7.5,0-15-.94-19.11-.94-4.92,0-9.15.12-14.66.35-.7-.35-.93-2.22-.23-2.93l2.7-.35c6.8-.94,7-2.34,7-14.66ZM701.94,317c0,6.21.35,10,2.34,12.78,2.58,3.63,7,4.8,14.42,4.8,22.75,0,32.95-14.89,32.95-36.7,0-12.89-6.21-34.7-36.93-34.7-6.92,0-10.67.94-11.61,1.64s-1.17,3.63-1.17,8.91Z" transform="translate(-203.22 -256.08)"/><path class="a" d="M816.49,310.12c-.83-2.58-1.29-2.93-4.81-2.93H794c-2.93,0-3.63.35-4.45,2.81l-4.11,12.31c-1.76,5.28-2.58,8.45-2.58,9.74s.59,2.11,3.4,2.34l3.87.35a1.89,1.89,0,0,1-.23,2.93c-3-.23-6.68-.23-12.2-.35-3.86,0-8.09.24-11.25.35a2.3,2.3,0,0,1-.24-2.93l3.87-.35c2.82-.23,5.4-1.52,7-5.74,2.11-5.4,5.39-13,10.32-26.15l12-31.66c1.64-4.22,2.34-6.45,2-8.33a13.2,13.2,0,0,0,6.1-4.45,1.67,1.67,0,0,1,1.76,1.05c1.52,5.16,3.4,10.56,5.15,15.72L830.44,322c3.4,10.09,4.92,11.85,10,12.43l3.17.35c.82.59.59,2.46,0,2.93-4.81-.23-8.91-.35-14.19-.35-5.62,0-10.08.24-13.48.35a2,2,0,0,1-.24-2.93l3.41-.35c2.46-.23,4.1-.94,4.1-2.11a24,24,0,0,0-1.53-6.21Zm-23.22-10.44c-.94,2.7-.82,2.82,2.46,2.82h14.42c3.4,0,3.64-.47,2.58-3.64l-6.33-19.11a76.71,76.71,0,0,0-2.7-7.39h-.23a72.77,72.77,0,0,0-2.81,6.92Z" transform="translate(-203.22 -256.08)"/><path class="a" d="M844.27,272.36c-2.7-6.56-4.46-9-9.5-9.61l-2.11-.24a2,2,0,0,1,.23-2.93c3.4.24,7.16.35,12.2.35s9.26-.11,14.19-.35a2.05,2.05,0,0,1,.23,2.93l-1.76.24c-4.45.58-5.39,1.29-5.51,2.23a149.21,149.21,0,0,0,5.86,16.41c5.4,13.6,10.79,27.09,16.65,40.45,3.64-7.73,8.68-19.81,11.26-26,3.52-8,8.91-21.22,10.9-26.26A12.45,12.45,0,0,0,898,265c0-.82-1.17-1.76-5.28-2.23l-2.11-.24a2.05,2.05,0,0,1,.24-2.93c3.28.24,7.74.35,12.19.35,3.87,0,7.51-.11,11.38-.35.82.47.82,2.35.23,2.93l-3.52.24c-2.81.23-4.57,1.64-6.09,4.1-3.29,5.51-7.86,15-13.14,27l-6.33,14.42c-4.69,10.79-10.2,24.39-12.19,30.61a2.42,2.42,0,0,1-1.29.35,4.8,4.8,0,0,1-1.76-.35,116,116,0,0,0-5.4-15.6Z" transform="translate(-203.22 -256.08)"/><path class="a" d="M926.81,277.76c0-12.43-.24-14.43-7.16-15l-2.93-.24c-.7-.47-.47-2.58.24-2.93,5.86.24,9.85.35,14.77.35,4.69,0,8.68-.11,14.54-.35.7.35.94,2.46.24,2.93l-2.94.24c-6.91.58-7.15,2.58-7.15,15V319.5c0,12.43.24,14.07,7.15,14.89l2.94.35c.7.47.46,2.58-.24,2.93-5.86-.23-9.85-.35-14.54-.35-4.92,0-8.91.12-14.77.35-.71-.35-.94-2.22-.24-2.93l2.93-.35c6.92-.82,7.16-2.46,7.16-14.89Z" transform="translate(-203.22 -256.08)"/><path class="a" d="M977.69,339.2c-9.85,0-16.06-3.05-18.29-4.34-1.41-2.58-2.93-10.9-3.17-16.42.59-.82,2.35-1.05,2.82-.35,1.76,6,6.56,17.47,20.17,17.47,9.85,0,14.65-6.45,14.65-13.48,0-5.16-1-10.91-9.61-16.42l-11.14-7.27c-5.86-3.87-12.66-10.55-12.66-20.16,0-11.14,8.67-20.17,23.92-20.17a40.08,40.08,0,0,1,10.9,1.52,23.52,23.52,0,0,0,4.1.71c1.06,2.81,2.12,9.38,2.12,14.3-.47.71-2.35,1.06-2.94.35-1.52-5.63-4.69-13.25-15.94-13.25-11.49,0-14,7.62-14,13,0,6.8,5.63,11.61,10,14.42L988,295c7.39,4.58,14.66,11.38,14.66,22.52C1002.67,330.4,992.94,339.2,977.69,339.2Z" transform="translate(-203.22 -256.08)"/></svg>