<svg xmlns="http://www.w3.org/2000/svg" viewBox="0 0 598.18 78.87"><defs><style>.a{fill:#001540;}.b{fill:#67cdf2;}</style></defs><title>Sherridon_Homes_Logo_Navy_CMYK_cs5</title><path class="a" d="M31.16,12.76l1.14.65L37.06,4l-1.14-.62-.13.11a2.07,2.07,0,0,1-1.2.59,8.16,8.16,0,0,1-1.88-.62A51,51,0,0,0,24.85.75,29.47,29.47,0,0,0,18,0C12.21,0,7.78,1.41,4.86,4.2a10.77,10.77,0,0,0-3.38,8.12,10.37,10.37,0,0,0,1.34,5.29A9.39,9.39,0,0,0,6.9,21.45a15.57,15.57,0,0,0,3.6,1.32,60.05,60.05,0,0,0,6.12.85l4.28.44a27.5,27.5,0,0,1,5.65,1,2.54,2.54,0,0,1,1.87,2.46,3.65,3.65,0,0,1-.81,2.24,5.82,5.82,0,0,1-2.21,1.76,14.4,14.4,0,0,1-6.2,1.23,24,24,0,0,1-7.1-1.16,14.93,14.93,0,0,1-5.5-2.72,2.82,2.82,0,0,1-1.11-2.12v-.52l-1.18-.56L0,35.42l1.16.6.13-.1c.64-.51.9-.56,1-.56a7.32,7.32,0,0,1,1.75.7A33.6,33.6,0,0,0,19,39.7a29.85,29.85,0,0,0,7.93-1,14.18,14.18,0,0,0,7.37-4.27A11.21,11.21,0,0,0,35.8,22.29a9.78,9.78,0,0,0-3.06-3.66,15.08,15.08,0,0,0-4.33-2.06,36.73,36.73,0,0,0-6.33-1.15L17.72,15a41.14,41.14,0,0,1-5.67-.82c-1.61-.49-2.4-1.36-2.4-2.67a3.23,3.23,0,0,1,.95-2.24,6.09,6.09,0,0,1,2.53-1.59A16.79,16.79,0,0,1,18.24,7,19.66,19.66,0,0,1,29.7,10.35c1,.67,1.5,1.28,1.5,1.82,0,.11,0,.25,0,.43l0,.16"/><path class="a" d="M70.57,8.72l.18,0A2.68,2.68,0,0,1,72,9.44a1.74,1.74,0,0,1,.32,1.14v8.83H55.45V10.58a1.82,1.82,0,0,1,.32-1.16A2.61,2.61,0,0,1,57,8.77l.18,0V7.49H45.73V8.72l.18,0a2.83,2.83,0,0,1,1.27.67,1.69,1.69,0,0,1,.33,1.14V36a1.81,1.81,0,0,1-.34,1.17,2.4,2.4,0,0,1-1.25.64l-.19.05v1.24H57.22V37.82l-.17,0a2.93,2.93,0,0,1-1.28-.69,1.73,1.73,0,0,1-.32-1.15V25.53h16.9V36A1.81,1.81,0,0,1,72,37.12a2.48,2.48,0,0,1-1.25.64l-.19.05v1.24H82.06V37.82l-.17,0a2.83,2.83,0,0,1-1.27-.69,1.68,1.68,0,0,1-.33-1.15V10.58a1.76,1.76,0,0,1,.33-1.16,2.53,2.53,0,0,1,1.26-.65l.18,0V7.49H70.57V8.72"/><path class="a" d="M122.25,31.34a2.57,2.57,0,0,1-.66,1.27,1.78,1.78,0,0,1-1.16.32H100.94V25.85h11.5a1.82,1.82,0,0,1,1.19.34,2.55,2.55,0,0,1,.66,1.26l0,.18h1.19V18.15h-1.18l-.06.18a2.57,2.57,0,0,1-.68,1.26,1.7,1.7,0,0,1-1.17.34h-11.5V13.6h18.67a1.87,1.87,0,0,1,1.18.32,2.49,2.49,0,0,1,.66,1.27l0,.19h1.19V5.71H121.5l0,.18a2.49,2.49,0,0,1-.66,1.26,1.8,1.8,0,0,1-1.18.34H91.22V8.72l.18,0a2.74,2.74,0,0,1,1.27.67A1.69,1.69,0,0,1,93,10.58V36a1.81,1.81,0,0,1-.34,1.17,2.47,2.47,0,0,1-1.25.64l-.19.05v1.24h29.21a1.72,1.72,0,0,1,1.17.34,2.32,2.32,0,0,1,.64,1.25l.05.19h1.24V31.16h-1.24l0,.18"/><path class="a" d="M156.28,19.63a9.53,9.53,0,0,1-3.67.53h-11V13.6h11a8.3,8.3,0,0,1,4.16.74,2.8,2.8,0,0,1,1.09,2.54,2.68,2.68,0,0,1-1.58,2.75m9.26,17.15A18.57,18.57,0,0,1,163,33.73l-5.65-7.87a12.59,12.59,0,0,0,6.43-3.05,8.33,8.33,0,0,0,2.14-6.06c0-3.39-1.17-5.87-3.48-7.37a11,11,0,0,0-3.8-1.49,34.73,34.73,0,0,0-6.1-.4H131.94V8.71l.18.06a2.73,2.73,0,0,1,1.27.68,1.64,1.64,0,0,1,.33,1.13V36a1.81,1.81,0,0,1-.34,1.17,2.47,2.47,0,0,1-1.25.64l-.19.05v1.24h11.5V37.82l-.18-.06a2.57,2.57,0,0,1-1.27-.68,1.75,1.75,0,0,1-.33-1.15V26.28h7l6.13,8.77a3.56,3.56,0,0,1,.85,1.71c0,.16,0,.66-1.27,1l-.18.05v1.24h13.58V37.79l-.21,0a4.34,4.34,0,0,1-2.06-1"/><path class="a" d="M199.67,19.63a9.57,9.57,0,0,1-3.67.53H185.05V13.6H196a8.28,8.28,0,0,1,4.15.74,2.78,2.78,0,0,1,1.09,2.54,2.69,2.69,0,0,1-1.57,2.75m9.26,17.15a18,18,0,0,1-2.52-3.05l-5.65-7.87a12.52,12.52,0,0,0,6.42-3.05,8.33,8.33,0,0,0,2.14-6.06c0-3.4-1.17-5.87-3.47-7.37A11,11,0,0,0,202,7.89a34.57,34.57,0,0,0-6.1-.4H175.33V8.71l.17.06a2.83,2.83,0,0,1,1.28.68,1.64,1.64,0,0,1,.33,1.13V36a1.76,1.76,0,0,1-.35,1.17,2.39,2.39,0,0,1-1.24.64l-.19.05v1.24h11.49V37.82l-.17-.06a2.61,2.61,0,0,1-1.28-.68,1.81,1.81,0,0,1-.32-1.15V26.28h7l6.12,8.77a3.52,3.52,0,0,1,.85,1.71c0,.16,0,.66-1.26,1l-.18.05v1.24h13.57V37.79l-.21,0a4.35,4.35,0,0,1-2-1"/><path class="a" d="M218.71,8.72l.18,0a2.73,2.73,0,0,1,1.27.68,1.64,1.64,0,0,1,.33,1.13V36a1.76,1.76,0,0,1-.34,1.17,2.47,2.47,0,0,1-1.25.64l-.19.05v1.24h11.5V37.82l-.18-.06a2.83,2.83,0,0,1-1.28-.68,1.81,1.81,0,0,1-.32-1.15V10.58a1.77,1.77,0,0,1,.32-1.15A2.58,2.58,0,0,1,230,8.77l.19,0V7.49h-11.5V8.72"/><path class="a" d="M264.61,30.51c-1.59,1.61-4.21,2.42-7.76,2.42h-7.7V13.6h7.7a15.89,15.89,0,0,1,4.69.58A7.2,7.2,0,0,1,264.61,16c1.67,1.68,2.51,4.11,2.51,7.24s-.84,5.55-2.51,7.24M267,8.92a23.57,23.57,0,0,0-9.07-1.43H239.43V8.72l.18,0a2.83,2.83,0,0,1,1.27.67,1.76,1.76,0,0,1,.33,1.14V36a1.76,1.76,0,0,1-.35,1.17,2.39,2.39,0,0,1-1.24.64l-.19.05v1.24h18.49a27.42,27.42,0,0,0,7.3-.83,13.4,13.4,0,0,0,5.14-2.7c3.21-2.78,4.84-6.9,4.84-12.25a18.7,18.7,0,0,0-1.44-7.62A12.67,12.67,0,0,0,267,8.92"/><path class="a" d="M309.14,30.28a11.24,11.24,0,0,1-15.35,0,9.65,9.65,0,0,1-2.74-7,9.71,9.71,0,0,1,2.74-7,10.31,10.31,0,0,1,7.66-3,10.67,10.67,0,0,1,7.69,3,9.73,9.73,0,0,1,2.74,7.19,9.42,9.42,0,0,1-2.74,6.87m4.8-19.63a20.19,20.19,0,0,0-12.52-3.82A20.55,20.55,0,0,0,289,10.65a14.92,14.92,0,0,0-6,12.62,15.08,15.08,0,0,0,6,12.61,22.25,22.25,0,0,0,24.93,0,14.84,14.84,0,0,0,6-12.36c0-5.48-2-9.81-6-12.87"/><path class="a" d="M355,8.72l.18,0a2.53,2.53,0,0,1,1.26.65,1.76,1.76,0,0,1,.34,1.16V27.07L340.49,11a2.27,2.27,0,0,1-.82-1.37c0-.14,0-.58,1-.84l.18,0V7.49H328.44V8.72l.18,0a2.74,2.74,0,0,1,1.27.67,1.69,1.69,0,0,1,.33,1.14V36a1.81,1.81,0,0,1-.34,1.17,2.47,2.47,0,0,1-1.25.64l-.19.05v1.24h10.84V37.81l-.18-.05a2.53,2.53,0,0,1-1.25-.67,1.71,1.71,0,0,1-.34-1.16v-17l16.08,15.82c.81.81,1.3,1.33,1.51,1.6a1,1,0,0,1,.28.64c0,.14,0,.56-1,.77l-.2,0v1.25h11.65V37.82l-.18-.06a2.73,2.73,0,0,1-1.27-.68,1.73,1.73,0,0,1-.33-1.15V10.58a1.8,1.8,0,0,1,.32-1.16,2.7,2.7,0,0,1,1.27-.65l.19,0V7.49H355V8.72"/><path class="a" d="M419.57,2l.2.05A2.38,2.38,0,0,1,421,2.7a1.65,1.65,0,0,1,.33,1.11V15.75H400.06V3.81a1.71,1.71,0,0,1,.32-1.11,2.38,2.38,0,0,1,1.25-.62l.2-.05V.66H389.49V2l.19,0a2.71,2.71,0,0,1,1.26.64,1.68,1.68,0,0,1,.32,1.1V35.9a1.68,1.68,0,0,1-.32,1.1,2.71,2.71,0,0,1-1.26.64l-.19,0v1.36h12.34V37.69l-.2,0a2.55,2.55,0,0,1-1.24-.63,1.65,1.65,0,0,1-.33-1.11V22.52h21.29V35.9A1.65,1.65,0,0,1,421,37a2.55,2.55,0,0,1-1.24.63l-.2,0v1.36h12.35V37.69l-.2,0a2.71,2.71,0,0,1-1.26-.64,1.68,1.68,0,0,1-.32-1.1V3.81a1.68,1.68,0,0,1,.32-1.1,2.71,2.71,0,0,1,1.26-.64l.2,0V.66H419.57V2"/><path class="a" d="M467.24,23.46a10.72,10.72,0,0,1-.8,4.06,10.2,10.2,0,0,1-2.6,3.73,11.52,11.52,0,0,1-14.46,0,10.17,10.17,0,0,1-3.4-7.93,10.15,10.15,0,0,1,3.4-7.92,10.46,10.46,0,0,1,7.19-2.56,10.91,10.91,0,0,1,7.27,2.56,10.11,10.11,0,0,1,3.4,8.06M456.55,7.05h0c-7.26.09-12.5,2.66-15.57,7.63a16.19,16.19,0,0,0-2.42,8.63,16.41,16.41,0,0,0,1.18,6.15,15.45,15.45,0,0,0,3.92,5.69c3.19,3,7.55,4.44,12.94,4.44,7.2,0,12.45-2.57,15.62-7.64a15.74,15.74,0,0,0,2.44-8.44,15.62,15.62,0,0,0-5.1-12c-3.19-3-7.57-4.44-13-4.44"/><path class="a" d="M508.88,8.83l.24,0c.79.08.89.46.89.78a3.49,3.49,0,0,1-.53,1.39l-8.31,15.27L493,10.75a2.11,2.11,0,0,1-.28-.92,1,1,0,0,1,.86-1l.2-.05V7.59H481.29v1.2l.2.05a2.09,2.09,0,0,1,1,.51,1.27,1.27,0,0,1,.25.87V36.4a1.31,1.31,0,0,1-.25.89,2.09,2.09,0,0,1-1,.51l-.2.05v1.2h9.62v-1.2l-.2-.05a2.14,2.14,0,0,1-1-.51,1.31,1.31,0,0,1-.25-.89V18.49l11.13,20.84,11.78-20.89v18a1.36,1.36,0,0,1-.26.9,1.9,1.9,0,0,1-1,.5l-.2.05v1.2h10.19v-1.2l-.2-.05a2.09,2.09,0,0,1-1-.51,1.31,1.31,0,0,1-.25-.89V10.22a1.27,1.27,0,0,1,.25-.87,2.09,2.09,0,0,1,1-.51l.2-.05V7.59H508.88V8.83"/><path class="a" d="M560,32.16a2.19,2.19,0,0,1-.51,1,1.33,1.33,0,0,1-.87.25H539V25.48h12.28a1.27,1.27,0,0,1,.87.26,2.19,2.19,0,0,1,.51,1l0,.19h1.19V18.58h-1.19l0,.19a2.13,2.13,0,0,1-.51,1,1.27,1.27,0,0,1-.87.25H539V13.22h19.08a1.26,1.26,0,0,1,.86.26,2,2,0,0,1,.51,1l.06.19h1.19V6.14h-1.19l-.06.2a2,2,0,0,1-.51,1,1.26,1.26,0,0,1-.86.25H530.3v1.2l.19.05a2.19,2.19,0,0,1,1,.51,1.37,1.37,0,0,1,.25.89V36.4a1.37,1.37,0,0,1-.25.89,2.19,2.19,0,0,1-1,.51l-.19.05v1.2h28.35a1.27,1.27,0,0,1,.87.25,2.14,2.14,0,0,1,.51,1l.05.2h1.2V32h-1.2l-.05.19"/><path class="a" d="M594.61,22.27a12.33,12.33,0,0,0-3.56-1.69,29.33,29.33,0,0,0-5.18-.94l-3.56-.36a34.08,34.08,0,0,1-4.61-.67c-1.29-.39-1.92-1.08-1.92-2.12a2.59,2.59,0,0,1,.76-1.79,4.87,4.87,0,0,1,2.05-1.29,13.74,13.74,0,0,1,4.15-.57,16,16,0,0,1,9.32,2.76c.78.53,1.2,1,1.2,1.44,0,.08,0,.19,0,.33l0,.17,1,.59,3.93-7.76-1-.55-.14.11a1.59,1.59,0,0,1-.94.46,6.12,6.12,0,0,1-1.5-.5,41.59,41.59,0,0,0-6.43-2.23,24.75,24.75,0,0,0-5.59-.61c-4.76,0-8.39,1.16-10.79,3.45A8.86,8.86,0,0,0,569,17.18a8.55,8.55,0,0,0,1.1,4.35,7.74,7.74,0,0,0,3.35,3.16,12.92,12.92,0,0,0,3,1.08,47.64,47.64,0,0,0,5,.7l3.49.36a21.77,21.77,0,0,1,4.59.82A2,2,0,0,1,591,29.59a3,3,0,0,1-.65,1.8,4.68,4.68,0,0,1-1.78,1.42,11.63,11.63,0,0,1-5,1,19.34,19.34,0,0,1-5.76-.94,12.14,12.14,0,0,1-4.46-2.21,2.22,2.22,0,0,1-.88-1.68v-.46L571.35,28l-3.57,8.07,1,.53.13-.1c.52-.41.72-.44.76-.44a6.19,6.19,0,0,1,1.41.56,27.56,27.56,0,0,0,12.23,3,23.66,23.66,0,0,0,6.48-.85,11.64,11.64,0,0,0,6-3.5,9.11,9.11,0,0,0,2.17-6,8.91,8.91,0,0,0-.92-4,8,8,0,0,0-2.52-3"/><path class="b" d="M117,70.44,113.59,63h-.1l-3.32,7.45H117m-14.63,7.21,10.53-22.79a.61.61,0,0,1,.58-.37h.34a.58.58,0,0,1,.57.37L124.8,77.65a.6.6,0,0,1-.57.88h-3a1,1,0,0,1-1-.68l-1.66-3.65H108.51l-1.66,3.65a1,1,0,0,1-1,.68h-2.94a.6.6,0,0,1-.58-.88"/><path class="b" d="M140.1,55.47a.66.66,0,0,1,.64-.64h3.15a.64.64,0,0,1,.64.64v9h11v-9a.64.64,0,0,1,.64-.64h3.12a.66.66,0,0,1,.64.64V77.89a.66.66,0,0,1-.64.64h-3.12a.64.64,0,0,1-.64-.64V68.54h-11v9.35a.64.64,0,0,1-.64.64h-3.15a.66.66,0,0,1-.64-.64V55.47"/><path class="b" d="M169.52,55.47a.66.66,0,0,1,.64-.64h3.15a.66.66,0,0,1,.64.64V77.89a.66.66,0,0,1-.64.64h-3.15a.66.66,0,0,1-.64-.64V55.47"/><path class="b" d="M193.28,54.49a12.75,12.75,0,0,1,8.26,3.15.65.65,0,0,1,0,1l-2.1,2.2a.58.58,0,0,1-.88,0,7.67,7.67,0,0,0-5.11-2,7.81,7.81,0,0,0,0,15.61,10.64,10.64,0,0,0,4-.84V70.71h-2.71a.61.61,0,0,1-.64-.61V67.42a.62.62,0,0,1,.64-.64h6.5a.63.63,0,0,1,.61.64v8.67a.63.63,0,0,1-.27.54,17.13,17.13,0,0,1-8.4,2.2,12.17,12.17,0,0,1,0-24.34"/><path class="b" d="M210.31,55.47a.66.66,0,0,1,.64-.64h3.15a.64.64,0,0,1,.65.64v9h11v-9a.64.64,0,0,1,.65-.64h3.11a.67.67,0,0,1,.65.64V77.89a.67.67,0,0,1-.65.64h-3.11a.64.64,0,0,1-.65-.64V68.54h-11v9.35a.64.64,0,0,1-.65.64H211a.66.66,0,0,1-.64-.64V55.47"/><path class="b" d="M239.73,55.47a.64.64,0,0,1,.64-.64h13.78a.64.64,0,0,1,.64.64v2.78a.64.64,0,0,1-.64.64h-10v5.55h8.36a.68.68,0,0,1,.65.65V67.9a.65.65,0,0,1-.65.64h-8.36v5.93h10a.64.64,0,0,1,.64.64v2.78a.64.64,0,0,1-.64.64H240.37a.64.64,0,0,1-.64-.64V55.47"/><path class="b" d="M273,65.63a3.45,3.45,0,0,0,3.36-3.45A3.37,3.37,0,0,0,273,58.89h-5.51v6.74H273M263,55.47a.64.64,0,0,1,.64-.64h9.69a7.33,7.33,0,0,1,7.38,7.28,7.49,7.49,0,0,1-5,6.84l4.63,8.6a.64.64,0,0,1-.57,1h-3.55a.6.6,0,0,1-.55-.3l-4.5-9h-3.76v8.64a.66.66,0,0,1-.64.64h-3.12a.64.64,0,0,1-.64-.64Z"/><path class="b" d="M297.75,75.21l1.22-2.1a.79.79,0,0,1,1.15-.24c.17.11,2.91,2.1,5.11,2.1a2.83,2.83,0,0,0,3.09-2.6c0-1.73-1.46-2.91-4.3-4.06C300.83,67,297.65,65,297.65,61c0-3,2.23-6.5,7.62-6.5A11.92,11.92,0,0,1,312,56.76a.84.84,0,0,1,.2,1.12L311,59.81a.9.9,0,0,1-1.19.4c-.27-.17-2.84-1.86-4.7-1.86s-3,1.29-3,2.37c0,1.59,1.26,2.68,4,3.79,3.29,1.32,7.08,3.29,7.08,7.65,0,3.49-3,6.71-7.79,6.71a10.91,10.91,0,0,1-7.45-2.64c-.3-.31-.47-.48-.17-1"/><path class="b" d="M324.06,58.89h-5.18a.64.64,0,0,1-.65-.64V55.47a.64.64,0,0,1,.65-.64h14.79a.64.64,0,0,1,.65.64v2.78a.64.64,0,0,1-.65.64h-5.18v19a.66.66,0,0,1-.64.64H324.7a.66.66,0,0,1-.64-.64v-19"/><path class="b" d="M352.77,70.44,349.38,63h-.1L346,70.44h6.81m-14.63,7.21,10.53-22.79a.61.61,0,0,1,.57-.37h.34a.58.58,0,0,1,.58.37l10.43,22.79a.6.6,0,0,1-.58.88h-2.94a1,1,0,0,1-1-.68l-1.66-3.65H344.3l-1.66,3.65a1,1,0,0,1-1,.68h-3a.6.6,0,0,1-.57-.88"/><path class="b" d="M367.05,55.1a.63.63,0,0,1,.64-.61h.85l14.09,15h0v-14a.64.64,0,0,1,.64-.64h3.12a.66.66,0,0,1,.64.64V78.26a.63.63,0,0,1-.64.61h-.82L371.45,63.33h0V77.89a.64.64,0,0,1-.65.64h-3.08a.66.66,0,0,1-.64-.64V55.1"/><path class="b" d="M404.15,74.4a7.74,7.74,0,0,0,0-15.48h-3.86V74.4h3.86m-8.22-18.93a.63.63,0,0,1,.61-.64h8a11.85,11.85,0,1,1,0,23.7h-8a.63.63,0,0,1-.61-.64Z"/><path class="b" d="M435.84,70.44,432.46,63h-.1L429,70.44h6.8m-14.63,7.21,10.54-22.79a.61.61,0,0,1,.57-.37h.34a.59.59,0,0,1,.58.37l10.42,22.79a.59.59,0,0,1-.57.88h-2.95a1,1,0,0,1-1-.68L437.5,74.2H427.38l-1.66,3.65a1,1,0,0,1-1,.68h-2.95a.6.6,0,0,1-.58-.88"/><path class="b" d="M459.4,65.63a3.45,3.45,0,0,0,3.36-3.45,3.37,3.37,0,0,0-3.36-3.29h-5.52v6.74h5.52m-9.95-10.16a.64.64,0,0,1,.64-.64h9.69a7.33,7.33,0,0,1,7.38,7.28,7.49,7.49,0,0,1-5,6.84l4.64,8.6a.64.64,0,0,1-.57,1h-3.56a.59.59,0,0,1-.54-.3l-4.5-9h-3.76v8.64a.66.66,0,0,1-.64.64h-3.12a.64.64,0,0,1-.64-.64Z"/><path class="b" d="M483.61,74.4a7.74,7.74,0,0,0,0-15.48h-3.86V74.4h3.86m-8.23-18.93a.63.63,0,0,1,.61-.64h8a11.85,11.85,0,1,1,0,23.7h-8a.63.63,0,0,1-.61-.64Z"/></svg>