<?xml version="1.0" encoding="UTF-8" standalone="no"?>
<svg
   xmlns:dc="http://purl.org/dc/elements/1.1/"
   xmlns:cc="http://creativecommons.org/ns#"
   xmlns:rdf="http://www.w3.org/1999/02/22-rdf-syntax-ns#"
   xmlns:svg="http://www.w3.org/2000/svg"
   xmlns="http://www.w3.org/2000/svg"
   viewBox="0 0 984.65332 453.30667"
   height="453.30667"
   width="984.65332"
   xml:space="preserve"
   id="svg3850"
   version="1.1"><metadata
     id="metadata3856"><rdf:RDF><cc:Work
         rdf:about=""><dc:format>image/svg+xml</dc:format><dc:type
           rdf:resource="http://purl.org/dc/dcmitype/StillImage" /><dc:title></dc:title></cc:Work></rdf:RDF></metadata><defs
     id="defs3854" /><g
     transform="matrix(1.3333333,0,0,-1.3333333,0,453.30667)"
     id="g3858"><g
       transform="scale(0.1)"
       id="g3860"><path
         id="path3862"
         style="fill:#656263;fill-opacity:1;fill-rule:nonzero;stroke:none"
         d="m 144.867,58.9805 c 23.52,0 41.281,4.4414 53.321,13.2695 12.011,8.8398 18.031,21.8516 18.031,39.031 0,15.27 -5.965,27.34 -17.903,36.188 -11.941,8.832 -27.961,13.273 -48.039,13.273 H 84.8438 V 58.9805 Z M 128.641,215.082 c 18.371,0 32.863,4.379 43.523,13.129 10.637,8.75 15.969,20.949 15.969,36.59 0,13.898 -4.895,24.949 -14.692,33.09 -9.769,8.16 -22.656,12.238 -38.621,12.238 H 84.8438 v -95.047 z m 18.55,149.387 c 32.961,0 59.821,-8.571 80.61,-25.739 20.769,-17.171 31.179,-38.648 31.179,-64.41 0,-16.488 -4.335,-31 -13.015,-43.531 -8.672,-12.519 -21.25,-22.5 -37.727,-29.867 v -3.09 c 25.051,-5.66 44.594,-16.883 58.598,-33.621 13.98,-16.742 20.973,-36.352 20.973,-58.859 0,-19.9223 -5.106,-37.7231 -15.309,-53.4301 C 262.27,36.1992 248.109,24.3906 230,16.4805 211.859,8.58984 190.531,4.64063 165.992,4.64063 H 15.2969 V 364.469 H 147.191" /><path
         id="path3864"
         style="fill:#656263;fill-opacity:1;fill-rule:nonzero;stroke:none"
         d="M 413.52,364.469 V 155.082 c 0,-21.492 3.218,-38.57 9.671,-51.281 6.426,-12.7112 16.942,-23.1604 31.555,-31.4299 14.594,-8.2422 31.582,-12.3516 50.996,-12.3516 21.278,0 39.363,3.9102 54.211,11.711 14.848,7.8086 25.715,18.4804 32.574,31.9415 6.891,13.5 10.309,32.168 10.309,56.027 v 204.77 h 69.57 V 150.691 C 672.406,102.27 657.891,65.0508 628.855,39.0195 599.828,13.0117 558.809,0 505.742,0 472.426,0 443.523,5.92188 419.059,17.7695 394.594,29.6211 375.918,46.7617 363.035,69.1602 350.156,91.582 343.727,117.879 343.727,148.121 v 216.348 h 69.793" /><path
         id="path3866"
         style="fill:#656263;fill-opacity:1;fill-rule:nonzero;stroke:none"
         d="M 820.238,364.469 V 4.64063 H 750.699 V 364.469 h 69.539" /><path
         id="path3868"
         style="fill:#656263;fill-opacity:1;fill-rule:nonzero;stroke:none"
         d="M 970.652,364.469 V 58.9805 H 1145.3 V 4.64063 H 901.109 V 364.469 h 69.543" /><path
         id="path3870"
         style="fill:#656263;fill-opacity:1;fill-rule:nonzero;stroke:none"
         d="m 1336.43,58.9805 c 38.47,0 69.33,11.5586 92.6,34.6406 23.26,23.1209 34.9,53.3709 34.9,90.8199 0,38.801 -11.74,69.438 -35.16,91.938 -23.44,22.5 -55,33.75 -94.67,33.75 h -71.61 V 58.9805 Z m 7.21,305.4885 c 37.43,0 70.74,-7.617 99.93,-22.91 29.18,-15.278 51.86,-36.758 68.01,-64.387 16.12,-27.652 24.21,-58.75 24.21,-93.262 0,-35.211 -8.11,-66.41 -24.34,-93.6287 C 1495.23,63.0586 1472.17,41.9922 1442.29,27.0391 1412.4,12.1211 1378.16,4.64063 1339.51,4.64063 H 1192.95 V 364.469 h 150.69" /><path
         id="path3872"
         style="fill:#656263;fill-opacity:1;fill-rule:nonzero;stroke:none"
         d="M 1671.79,364.469 V 4.64063 h -69.54 V 364.469 h 69.54" /><path
         id="path3874"
         style="fill:#656263;fill-opacity:1;fill-rule:nonzero;stroke:none"
         d="M 1813.71,364.469 2027.48,113.34 v 251.129 h 68.02 V 4.64063 h -59.77 L 1820.67,259.898 V 4.64063 h -68.01 V 364.469 h 61.05" /><path
         id="path3876"
         style="fill:#656263;fill-opacity:1;fill-rule:nonzero;stroke:none"
         d="m 2363.38,369.109 c 44.32,0 88.27,-9.867 131.9,-29.617 v -63.621 c -43.63,22.149 -86.56,33.238 -128.81,33.238 -26.28,0 -49.62,-5.25 -70.05,-15.711 -20.43,-10.488 -36.27,-25.566 -47.53,-45.207 -11.25,-19.66 -16.86,-41.609 -16.86,-65.82 0,-36.75 12.22,-66.32 36.69,-88.7499 24.49,-22.4023 56.7,-33.6016 96.73,-33.6016 10.97,0 21.51,0.9493 31.56,2.8321 10.03,1.8984 22.01,5.4882 35.92,10.8203 v 59.7501 h -59.49 v 54.359 h 129.03 V 39.4219 C 2484.79,27.0391 2463.54,17.3906 2438.72,10.4297 2413.92,3.5 2388.1,0 2361.32,0 2323.36,0 2289,7.80078 2258.15,23.4414 c -30.81,15.6406 -54.84,37.5274 -72.12,65.6875 -17.24,28.1721 -25.89,59.5701 -25.89,94.2621 0,35.199 8.73,67.07 26.15,95.57 17.43,28.488 41.74,50.66 72.91,66.449 31.15,15.789 65.89,23.699 104.18,23.699" /><path
         id="path3878"
         style="fill:#656263;fill-opacity:1;fill-rule:nonzero;stroke:none"
         d="M 2792.76,364.469 V 213.012 h 186.74 v 151.457 h 69.56 V 4.64063 H 2979.5 V 156.609 H 2792.76 V 4.64063 h -69.54 V 364.469 h 69.54" /><path
         id="path3880"
         style="fill:#656263;fill-opacity:1;fill-rule:nonzero;stroke:none"
         d="m 3185.82,184.441 c 0,-23.882 5.41,-45.332 16.23,-64.41 10.82,-19.062 25.87,-33.8318 45.21,-44.2888 19.31,-10.4805 41.15,-15.7227 65.53,-15.7227 36.92,0 67.28,11.5821 91.08,34.7813 23.77,23.1912 35.66,53.0582 35.66,89.6402 0,23.848 -5.36,45.36 -16.1,64.52 -10.74,19.129 -25.84,33.949 -45.33,44.437 -19.49,10.461 -41.43,15.711 -65.82,15.711 -24.39,0 -46.32,-5.277 -65.82,-15.839 -19.48,-10.559 -34.46,-25.329 -44.94,-44.309 -10.47,-18.981 -15.7,-40.492 -15.7,-64.52 z m 126.97,184.668 c 37.27,0 70.8,-7.668 100.59,-23.05 29.8,-15.368 53.55,-37.508 71.23,-66.469 17.68,-28.918 26.53,-60.629 26.53,-95.149 0,-33.679 -8.62,-64.871 -25.89,-93.6519 C 3468,62.0391 3444.3,39.7188 3414.15,23.832 3384.02,7.96094 3350.06,0 3312.28,0 c -37.27,0 -71.12,8.08984 -101.61,24.2109 -30.48,16.1407 -54.23,38.3399 -71.22,66.5782 -16.99,28.2619 -25.51,59.4729 -25.51,93.6519 0,32.957 8.52,63.957 25.51,92.981 16.99,29.019 40.43,51.566 70.33,67.609 29.87,16.051 64.21,24.078 103.01,24.078" /><path
         id="path3882"
         style="fill:#656263;fill-opacity:1;fill-rule:nonzero;stroke:none"
         d="m 3638.87,364.469 118.25,-141.918 118.21,141.918 h 62.09 V 4.64063 h -69.54 V 257.332 h -2.06 L 3761.76,130.59 h -9.8 L 3647.9,257.332 h -2.07 V 4.64063 h -69.54 V 364.469 h 62.58" /><path
         id="path3884"
         style="fill:#656263;fill-opacity:1;fill-rule:nonzero;stroke:none"
         d="m 4249.35,364.469 v -54.34 H 4086.31 V 215.59 H 4242.4 V 161.25 H 4086.31 V 58.9805 h 166.66 V 4.64063 h -236.2 V 364.469 h 232.58" /><path
         id="path3886"
         style="fill:#656263;fill-opacity:1;fill-rule:nonzero;stroke:none"
         d="m 4422.18,369.109 c 35.03,0 68.78,-8.75 101.23,-26.277 v -61.801 c -37.25,22.5 -70.31,33.75 -99.16,33.75 -17.53,0 -31.23,-3.402 -41.11,-10.179 -9.86,-6.793 -14.79,-15.852 -14.79,-27.18 0,-13.563 9.19,-26.121 27.56,-37.621 5.14,-3.422 25,-13.039 59.51,-28.832 29.52,-13.93 50.82,-29.36 63.88,-46.379 13.03,-16.988 19.57,-37.418 19.57,-61.301 0,-30.9179 -11.13,-55.8398 -33.34,-74.8202 C 4483.28,9.48047 4454.47,0 4419.09,0 c -23.01,0 -42.8,2.55078 -59.36,7.60156 -16.59,5.07814 -35.18,13.77734 -55.77,26.14844 v 68.52 c 38.45,-31.938 74.7,-47.9106 108.71,-47.9106 16.99,0 30.71,3.6797 41.2,11.0703 10.48,7.3711 15.71,17.1719 15.71,29.3711 0,16.6602 -9.11,30.2302 -27.3,40.6912 -15.12,8.227 -34.61,18.098 -58.47,29.61 -28.34,12.89 -49.51,27.91 -63.5,45.078 -14,17.16 -20.99,37.101 -20.99,59.769 0,30.211 11.25,54.321 33.76,72.25 22.47,17.942 52.18,26.91 89.1,26.91" /><path
         id="path3888"
         style="fill:#656263;fill-opacity:1;fill-rule:nonzero;stroke:none"
         d="m 4850.53,369.109 c 35.03,0 68.78,-8.75 101.23,-26.277 v -61.801 c -37.25,22.5 -70.31,33.75 -99.16,33.75 -17.53,0 -31.22,-3.402 -41.1,-10.179 -9.87,-6.793 -14.8,-15.852 -14.8,-27.18 0,-13.563 9.19,-26.121 27.56,-37.621 5.14,-3.422 25,-13.039 59.51,-28.832 29.52,-13.93 50.82,-29.36 63.88,-46.379 13.03,-16.988 19.57,-37.418 19.57,-61.301 0,-30.9179 -11.13,-55.8398 -33.34,-74.8202 C 4911.63,9.48047 4882.83,0 4847.44,0 4824.43,0 4804.64,2.55078 4788.09,7.60156 4771.5,12.6797 4752.9,21.3789 4732.31,33.75 v 68.52 c 38.45,-31.938 74.7,-47.9106 108.71,-47.9106 16.99,0 30.71,3.6797 41.2,11.0703 10.48,7.3711 15.71,17.1719 15.71,29.3711 0,16.6602 -9.1,30.2302 -27.3,40.6912 -15.12,8.227 -34.61,18.098 -58.46,29.61 -28.35,12.89 -49.52,27.91 -63.5,45.078 -14.01,17.16 -20.99,37.101 -20.99,59.769 0,30.211 11.25,54.321 33.75,72.25 22.47,17.942 52.18,26.91 89.1,26.91" /><path
         id="path3890"
         style="fill:#656263;fill-opacity:1;fill-rule:nonzero;stroke:none"
         d="M 5099.11,365.191 V 5.35156 h -69.54 V 365.191 h 69.54" /><path
         id="path3892"
         style="fill:#656263;fill-opacity:1;fill-rule:nonzero;stroke:none"
         d="M 5241.02,364.469 5454.8,113.34 v 251.129 h 68.01 V 4.64063 h -59.76 L 5247.99,259.898 V 4.64063 h -68.01 V 364.469 h 61.04" /><path
         id="path3894"
         style="fill:#656263;fill-opacity:1;fill-rule:nonzero;stroke:none"
         d="m 5790.7,369.109 c 20.44,0 40.44,-2.32 60.03,-6.961 19.57,-4.617 40.7,-12.527 63.34,-23.668 v -65.441 c -22.14,12.703 -42.63,21.883 -61.42,27.551 -18.8,5.66 -38.42,8.519 -58.86,8.519 -25.59,0 -48.67,-5.277 -69.29,-15.839 -20.6,-10.559 -36.6,-25.461 -48.04,-44.688 -11.42,-19.242 -17.11,-40.621 -17.11,-64.141 0,-24.062 5.66,-45.609 16.99,-64.671 11.33,-19.059 27.29,-33.77 47.91,-44.1489 20.61,-10.4102 43.78,-15.6016 69.54,-15.6016 19.74,0 38.6,2.8321 56.53,8.5 17.96,5.6602 40.59,15.9024 67.88,30.6602 V 33.75 C 5894.84,21.5508 5873.39,12.8789 5853.82,7.73047 5834.23,2.58203 5811.4,0 5785.29,0 c -37.96,0 -71.85,7.55078 -101.73,22.6797 -29.9,15.0898 -53.37,36.8594 -70.46,65.2812 -17.09,28.4181 -25.64,59.5391 -25.64,93.3711 0,36.25 8.8,68.777 26.41,97.629 17.59,28.848 41.8,51.098 72.65,66.711 30.81,15.637 65.54,23.437 104.18,23.437" /><path
         id="path3896"
         style="fill:#656263;fill-opacity:1;fill-rule:nonzero;stroke:none"
         d="m 6216.99,364.469 v -54.34 H 6053.95 V 215.59 h 156.1 v -54.34 h -156.1 V 58.9805 h 166.66 V 4.64063 H 5984.4 V 364.469 h 232.59" /><path
         id="path3898"
         style="fill:#656263;fill-opacity:1;fill-rule:nonzero;stroke:none"
         d="M 6507.3,364.469 V 4.64063 h -65.94 V 364.469 h 65.94" /><path
         id="path3900"
         style="fill:#656263;fill-opacity:1;fill-rule:nonzero;stroke:none"
         d="m 6651.59,254.242 c 0,-15.972 4.54,-29.113 13.65,-39.41 9.11,-10.32 21.13,-15.461 36.05,-15.461 14.08,0 25.77,5.199 35.05,15.578 9.26,10.383 13.9,22.813 13.9,37.223 0,17.168 -4.68,31.117 -14.03,41.859 -9.36,10.719 -21.52,16.098 -36.45,16.098 -14.44,0 -26.07,-5.149 -34.9,-15.457 -8.85,-10.301 -13.27,-23.774 -13.27,-40.43 z m 48.17,114.867 c 22.65,0 43.01,-5.328 61.05,-15.961 18.04,-10.648 31.93,-25.648 41.73,-44.957 9.77,-19.312 14.67,-41.5 14.67,-66.582 0,-37.777 -11.45,-78.55 -34.39,-122.347 C 6759.89,75.4805 6729.37,35.7109 6691.27,0 h -78.58 c 20.43,17.6797 42.07,41.7891 64.93,72.25 22.83,30.48 38.95,57.32 48.41,80.512 -12.88,-5.512 -26.63,-8.25 -41.22,-8.25 -28.49,0 -52.07,10.16 -70.69,30.519 -18.65,20.348 -27.96,46.399 -27.96,78.18 0,20.949 4.89,40.32 14.7,58.07 9.76,17.778 23.42,31.867 40.94,42.25 17.53,10.379 36.83,15.578 57.96,15.578" /><path
         id="path3902"
         style="fill:#656263;fill-opacity:1;fill-rule:nonzero;stroke:none"
         d="M 6994.94,259.898 6915.35,159.18 h 81.15 v 100.718 z m 67.51,109.211 V 159.18 h 30.64 v -52.801 h -30.64 V 4.64063 H 6996.5 V 106.379 h -147.1 v 42.242 l 175.16,220.488 h 37.89" /><path
         id="path3904"
         style="fill:#656263;fill-opacity:1;fill-rule:nonzero;stroke:none"
         d="m 7208.5,254.242 c 0,-15.972 4.54,-29.113 13.65,-39.41 9.1,-10.32 21.12,-15.461 36.04,-15.461 14.08,0 25.76,5.199 35.05,15.578 9.26,10.383 13.91,22.813 13.91,37.223 0,17.168 -4.7,31.117 -14.04,41.859 -9.36,10.719 -21.53,16.098 -36.45,16.098 -14.44,0 -26.07,-5.149 -34.9,-15.457 -8.85,-10.301 -13.26,-23.774 -13.26,-40.43 z m 48.16,114.867 c 22.66,0 43.01,-5.328 61.04,-15.961 18.04,-10.648 31.95,-25.648 41.74,-44.957 9.77,-19.312 14.67,-41.5 14.67,-66.582 0,-37.777 -11.45,-78.55 -34.38,-122.347 C 7316.79,75.4805 7286.28,35.7109 7248.16,0 h -78.57 c 20.44,17.6797 42.07,41.7891 64.92,72.25 22.83,30.48 38.96,57.32 48.43,80.512 -12.89,-5.512 -26.64,-8.25 -41.23,-8.25 -28.5,0 -52.07,10.16 -70.69,30.519 -18.65,20.348 -27.96,46.399 -27.96,78.18 0,20.949 4.9,40.32 14.69,58.07 9.78,17.778 23.42,31.867 40.95,42.25 17.52,10.379 36.84,15.578 57.96,15.578" /><path
         id="path3906"
         style="fill:#e51635;fill-opacity:1;fill-rule:nonzero;stroke:none"
         d="M 6177.64,3346.04 5129,2284.25 4996.01,2149.58 h 2365.43 v 79.1 896.39 79.08 h -79.09 -450.87 -79.1 v -79.08 -195.98 c -155.16,140.03 -310.32,280.06 -465.49,420.08 l -56.13,50.66 -53.12,-53.79" /><path
         id="path3908"
         style="fill:#e51635;fill-opacity:1;fill-rule:nonzero;stroke:none"
         d="m 2426.55,1787.6 -363.79,-490.03 -361.2,490.03 H 1544.98 V 721.281 h 209.53 v 664.109 h 3.15 l 305.1,-420.82 306.57,422.18 h 1.6 V 721.281 h 209.45 V 1787.6 h -153.83" /><path
         id="path3910"
         style="fill:#e51635;fill-opacity:1;fill-rule:nonzero;stroke:none"
         d="m 1077.25,721.219 h 209.37 V 1787.6 H 1077.25 V 721.219" /><path
         id="path3912"
         style="fill:#e51635;fill-opacity:1;fill-rule:nonzero;stroke:none"
         d="m 7356.49,897.969 c 18.99,42.742 28.37,91.48 28.37,146.181 0,62.69 -12.32,113.05 -36.93,150.52 -24.81,37.65 -55.63,68.14 -92.75,91.27 -37.07,23.11 -77.61,41.32 -121.31,54.13 -43.7,12.88 -84.33,26.18 -121.37,40.06 -37.1,14 -67.9,30.44 -92.63,49.51 -24.73,19.1 -37.07,45.49 -37.07,79.74 0,37.05 13.33,67.67 40.08,92.59 26.76,24.56 60.38,37.02 100.52,37.02 35.95,0 70.44,-7.91 103.35,-23.74 33.02,-16.3 72.72,-36.47 119.18,-61.34 l 80.26,173.14 c -105.07,64.92 -208.66,97.58 -310.64,97.58 -48.29,0 -93.83,-8.49 -136.62,-24.84 -42.76,-16.6 -79.96,-39.11 -111.32,-67.97 -31.27,-28.76 -56.31,-62.65 -74.87,-101.35 -18.57,-38.55 -27.97,-79.98 -27.97,-124.4 0,-62.55 12.52,-112.07 37.12,-148.29 24.86,-36.12 55.67,-65.21 92.72,-87.39 37.21,-22.07 77.57,-39.42 121.29,-51.65 43.79,-12.38 84.17,-26.07 121.32,-40.87 37.17,-14.97 68.11,-33.82 92.83,-56.54 24.74,-22.69 37.07,-55.11 37.07,-97.32 0,-16.5 -3.19,-32.92 -9.39,-49.518 -6.08,-16.363 -16.08,-31.422 -30.11,-44.64 -13.88,-13.43 -32,-24.34 -54.14,-32.622 -22.1,-8.16 -48.6,-12.398 -79.54,-12.398 -19.39,0 -39.83,3.969 -60.98,11.727 -21.06,7.793 -42.17,17.421 -63.42,29.281 -21.08,11.961 -42.4,25.051 -63.88,39.57 -21.71,14.41 -42.53,28.36 -62.09,41.67 l -77.21,-182.31 c 62.83,-40.278 122.79,-71.239 180.12,-92.801 57.06,-21.758 115.08,-32.539 173.72,-32.539 50.45,0 98.02,7.761 142.27,23.199 44.32,15.543 82.96,37.871 115.84,67.191 32.91,29.489 59.06,65.469 78.18,108.149" /><path
         id="path3914"
         style="fill:#e51635;fill-opacity:1;fill-rule:nonzero;stroke:none"
         d="m 3731.17,1112.81 c -19.11,-45.84 -45.56,-85.8 -79.48,-119.662 -34.02,-34.066 -73.71,-60.597 -118.97,-79.66 -45.39,-19.019 -94.26,-28.617 -146.79,-28.617 -52.6,0 -101.51,9.598 -146.86,28.617 -45.39,19.063 -84.66,45.594 -118.28,79.66 -33.36,33.862 -59.93,73.822 -79.49,119.662 -19.6,45.9 -29.42,95.6 -29.42,149.17 0,53.54 9.82,103.18 29.42,149.08 19.56,45.86 46.13,85.73 79.49,119.85 33.62,34 72.89,60.47 118.28,79.53 45.35,18.9 94.26,28.55 146.86,28.55 52.53,0 101.4,-9.65 146.79,-28.55 45.26,-19.06 84.95,-45.53 118.97,-79.53 33.92,-34.12 60.37,-73.99 79.48,-119.85 19.08,-45.9 28.64,-95.54 28.64,-149.08 0,-53.57 -9.56,-103.27 -28.64,-149.17 m 196.32,-71.79 c 30.46,67.93 45.68,141.65 45.68,220.96 0,78.31 -15.22,151.64 -45.68,220.22 -30.43,68.48 -72.16,128.01 -125.25,178.32 -52.86,50.55 -115.24,90.58 -186.83,119.97 -71.71,29.41 -148.73,44.14 -231.11,44.14 -82.39,0 -159.38,-14.73 -230.9,-44.14 -71.71,-29.39 -133.79,-69.42 -186.19,-119.97 -52.59,-50.31 -94.09,-109.84 -124.42,-178.32 -30.48,-68.58 -45.57,-141.91 -45.57,-220.22 0,-79.31 15.09,-153.03 45.57,-220.96 30.33,-67.93 71.83,-127.532 124.42,-178.688 52.4,-50.82 114.48,-90.801 186.19,-119.582 71.52,-28.891 148.51,-43.328 230.9,-43.328 82.38,0 159.4,14.437 231.11,43.328 71.59,28.781 133.97,68.762 186.83,119.582 53.09,51.156 94.82,110.758 125.25,178.688" /><path
         id="path3916"
         style="fill:#e51635;fill-opacity:1;fill-rule:nonzero;stroke:none"
         d="m 6238.08,1100.92 c -19.95,-45.81 -47.14,-84.38 -81.14,-115.44 -33.93,-31.378 -73.34,-55.07 -118.12,-71.058 -44.88,-16.192 -91.95,-24.172 -141.4,-24.172 h -219.47 v 721.84 h 206.94 c 56.78,0 108.4,-8.63 155.37,-25.75 46.91,-17.28 87.29,-41.06 121.41,-71.69 33.87,-30.75 60.14,-67.81 78.73,-110.97 18.53,-43.18 27.8,-91.32 27.8,-143.43 0,-60.36 -10.06,-113.61 -30.12,-159.33 m 116.53,-206.272 c 45.54,52.481 78.29,110.462 98.26,174.632 20.13,63.65 30.13,127.34 30.13,190.97 0,58.31 -9.35,118.6 -27.93,181.18 -18.48,62.37 -50.87,119.26 -97.2,170.66 -46.45,51.26 -108.09,93.4 -185.45,125.99 -77.25,32.79 -174.61,49.18 -292.06,49.18 H 5467.72 V 718.102 h 434.31 c 108.06,0 199.26,16.32 273.52,49.199 74.23,32.469 133.77,75.008 179.06,127.347" /><path
         id="path3918"
         style="fill:#e51635;fill-opacity:1;fill-rule:nonzero;stroke:none"
         d="m 4996.84,1790.34 v -705.8 l -628.58,705.8 H 4186.47 V 724.012 h 209.47 v 734.998 l 657.99,-734.998 h 150.95 V 1790.34 h -208.04" /><path
         id="path3920"
         style="fill:#e51635;fill-opacity:1;fill-rule:nonzero;stroke:none"
         d="m 838.91,932.73 c 53.574,170.18 -2.379,288.5 -12.613,307.33 -10.266,18.88 -67.793,130.02 -282.973,192.32 -222.984,64.56 -272.672,120.61 -289.297,143.43 -16.601,22.95 -51.187,116.69 18.121,200.27 41.727,50.26 103.993,68.42 162.286,68.42 41.609,0 81.132,-9.23 109.722,-22.69 68.555,-32.31 153.641,-75.66 153.641,-75.66 l 82.769,179.68 c -159.218,87.51 -253.769,107.2 -367.304,108.79 -1.723,0 -3.344,0.06 -5.082,0.06 -65.047,0 -168.864,-17.31 -264.5,-92.33 C 23.0625,1847.76 3.45313,1721.89 1.83203,1698.81 -3.71094,1620.78 -0.566406,1527.73 67.9688,1448.15 132.66,1373.26 215.426,1339.42 384.922,1288.97 526.156,1246.85 579.609,1184.85 579.609,1184.85 672.594,1090.24 608.766,961.09 608.766,961.09 576.734,894.801 495.707,855.461 406.102,855.461 c -40.477,0 -82.641,8.109 -122.883,25.199 C 225.824,905.102 104.273,982.352 87.7148,997.332 79.8203,981.531 7.33984,809.75 7.33984,809.75 c 0,0 54.36326,-37.941 132.44516,-74.168 108.926,-50.602 184.809,-69.961 278.145,-69.961 21.761,0 44.371,1.129 68.64,3.008 128.438,10.23 298.762,93.711 352.34,264.101" /></g></g></svg>