<?xml version="1.0" encoding="UTF-8" standalone="no"?>
<svg xmlns:dc="http://purl.org/dc/elements/1.1/" xmlns:cc="http://creativecommons.org/ns#" xmlns:rdf="http://www.w3.org/1999/02/22-rdf-syntax-ns#" xmlns:svg="http://www.w3.org/2000/svg" xmlns="http://www.w3.org/2000/svg" id="svg4342" version="1.1" viewBox="0 0 179.62114 41.117283" height="41.117283mm" width="179.62114mm"> <defs id="defs4336" /> <metadata id="metadata4339"> <rdf:RDF> <cc:Work rdf:about=""> <dc:format>image/svg+xml</dc:format> <dc:type rdf:resource="http://purl.org/dc/dcmitype/StillImage" /> <dc:title></dc:title> </cc:Work> </rdf:RDF> </metadata> <g transform="translate(-14.51086,-70.822312)" id="layer1"> <g transform="matrix(0.35277777,0,0,-0.35277777,191.56942,92.037662)" id="g3820"> <path id="path3822" style="fill:#231f20;fill-opacity:1;fill-rule:nonzero;stroke:none" d="m 0,0 h -0.009 l -31.115,44.114 c -6.73,10.053 -8.461,16.024 -8.461,16.024 0,0 -0.414,-0.478 -0.709,-0.844 -1.216,-1.48 -11.963,-15.435 -11.963,-15.435 0,0 5.651,-8.667 6.783,-10.278 l 27.343,-38.8 -41.587,0.012 12.778,19.259 c 3.792,6.355 4.034,7.473 4.034,7.473 l -16.941,8.853 c 0,0 0.234,-2.899 -2.245,-6.809 L -75.456,3.394 -75.469,3.4 c 0,0 -0.005,-0.024 -0.013,-0.035 l -3.594,-5.445 c -1.23,-1.576 -2.744,-3.381 -4.608,-5.267 -0.589,-0.594 -1.594,-1.522 -1.594,-1.522 0,0 1.114,-2.055 4.1,-10.311 0.512,-1.421 0.89,-2.603 0.89,-2.603 0,0 1.233,0.002 3.779,0 0.162,-0.004 0.335,0.007 0.498,0.007 l 6.717,-0.007 53.916,-0.024 c 10.122,0.004 14.907,-1.363 14.907,-1.363 0,0 1.317,2.127 3.529,6.398 3.232,6.254 4.206,7.454 4.206,7.454 z" /> </g> <g transform="matrix(0.35277777,0,0,-0.35277777,30.19924,83.845247)" id="g3824"> <path id="path3826" style="fill:#231f20;fill-opacity:1;fill-rule:nonzero;stroke:none" d="m 0,0 c -0.4,-1.874 -1.542,-3.138 -5.351,-3.134 l -14.262,-0.004 1.309,6.158 H -4.042 C -0.221,3.026 0.375,1.74 0,0 m -1.692,-17.746 c -0.463,-2.135 -1.937,-3.739 -5.692,-3.741 h -16.128 l 1.59,7.496 16.129,-0.002 c 3.756,0.007 4.543,-1.667 4.101,-3.753 M 20.263,2.735 c 1.628,7.627 -1.81,11.922 -11.592,11.922 l -42.968,0.013 -10.174,-47.776 40.901,-0.018 c 13.991,-0.012 19.975,6.144 21.975,15.513 0.77,3.546 -0.018,9.3 -5.839,10.912 l 0.029,0.125 c 3.92,1.406 6.77,5.095 7.668,9.309" /> </g> <g transform="matrix(0.35277777,0,0,-0.35277777,50.273319,88.717107)" id="g3828"> <path id="path3830" style="fill:#231f20;fill-opacity:1;fill-rule:nonzero;stroke:none" d="m 0,0 c -1.169,-5.484 -4.407,-8.77 -9.632,-8.765 -3.941,-0.005 -5.997,2.017 -5.013,6.635 l 4.129,19.398 -16.731,0.007 -5.061,-23.752 c -2.165,-10.177 3.923,-14.335 13.16,-14.337 8.031,0.002 14.065,3.196 16.305,5.549 l 0.128,0.003 -0.864,-4.081 H 12.622 L 20.413,17.252 3.68,17.257 Z" /> </g> <g transform="matrix(0.35277777,0,0,-0.35277777,71.646324,82.274114)" id="g3832"> <path id="path3834" style="fill:#231f20;fill-opacity:1;fill-rule:nonzero;stroke:none" d="m 0,0 c -5.759,-0.003 -11.745,-2.35 -17.312,-8.038 h -0.132 l 1.5,7.027 h -16.205 l -7.789,-36.6 16.737,-0.002 2.92,13.711 c 1.678,7.902 8.451,9.836 14.416,9.84 2.934,0.003 5.288,-0.61 8.074,-1.346 L 5.401,-0.416 C 3.657,-0.145 1.806,-0.007 0,0" /> </g> <g transform="matrix(0.35277777,0,0,-0.35277777,86.164329,89.178575)" id="g3836"> <path id="path3838" style="fill:#231f20;fill-opacity:1;fill-rule:nonzero;stroke:none" d="m 0,0 c -1.035,-4.824 -4.444,-8.307 -10.941,-8.3 -6.426,-0.003 -8.51,3.089 -7.4,8.304 1.097,5.158 4.502,8.303 11.008,8.298 C -1.317,8.298 0.991,4.668 0,0 m 0.476,19.549 c -6.823,-0.006 -12.003,-1.675 -15.628,-5.151 l -0.132,-0.003 3.625,17.001 -16.733,0.004 -10.539,-49.459 16.199,-0.002 0.828,3.878 0.133,-0.007 c 2.276,-3.475 6.496,-5.355 13.927,-5.349 C 3,-19.554 14.24,-13.602 17.125,-0.009 20.023,13.583 11.32,19.543 0.476,19.549" /> </g> <g transform="matrix(0.35277777,0,0,-0.35277777,105.95879,90.249151)" id="g3840"> <path id="path3842" style="fill:#231f20;fill-opacity:1;fill-rule:nonzero;stroke:none" d="m 0,0 c -1.335,-6.29 -7.862,-7.687 -13.487,-7.693 -4.145,0.003 -5.88,1.614 -5.338,4.156 0.502,2.343 2.188,3.338 5.316,3.612 6.073,0.533 10.919,0.931 13.853,1.535 z m -2.189,23.034 c -8.84,0.002 -15.068,-0.67 -19.561,-2.537 -4.563,-1.941 -7.29,-5.022 -9.36,-10.041 l 16.742,-0.008 c 1.555,3.545 5.484,4.14 9.307,4.149 4.761,0 7.523,-1.132 7.012,-3.551 C 1.523,9.038 0.207,8.232 -3.176,8.034 L -17.438,7.373 C -29.934,6.845 -35.611,2.554 -37.021,-4.131 c -2.003,-9.372 4.454,-12.39 15.703,-12.399 8.897,-0.006 14.932,1.607 19.415,5.078 -0.211,-1.337 -0.265,-2.542 -0.168,-3.603 l 17.138,-0.004 c -0.542,1.205 -0.915,2.87 -0.33,5.686 l 3.771,17.66 C 20.82,19.208 14.874,23.032 -2.189,23.034" /> </g> <g transform="matrix(0.35277777,0,0,-0.35277777,127.4407,82.296657)" id="g3844"> <path id="path3846" style="fill:#231f20;fill-opacity:1;fill-rule:nonzero;stroke:none" d="m 0,0 c -8.035,0.005 -14.068,-3.216 -16.315,-5.556 l -0.133,0.007 0.974,4.536 -16.2,0.013 -7.792,-36.608 16.73,0.002 3.585,16.865 c 1.307,6.084 5.205,8.697 9.629,8.694 3.937,0.007 5.999,-2.013 5.011,-6.635 l -4.03,-18.938 16.733,-0.008 4.964,23.297 C 15.313,-4.162 9.236,-0.004 0,0" /> </g> <g transform="matrix(0.35277777,0,0,-0.35277777,154.11709,82.66203)" id="g3848"> <path id="path3850" style="fill:#231f20;fill-opacity:1;fill-rule:nonzero;stroke:none" d="m 0,0 h -22.227 l -15.169,-11.832 5.263,24.703 h -16.741 l -10.522,-49.458 16.741,-0.019 1.696,8.039 6.131,4.28 6.096,-12.311 22.618,-0.028 -13.451,22.985 z" /> </g> <g transform="matrix(0.35277777,0,0,-0.35277777,153.3602,95.300681)" id="g3852"> <path id="path3854" style="fill:#231f20;fill-opacity:1;fill-rule:nonzero;stroke:none" d="m 0,0 c -1.564,0 -2.801,1.238 -2.801,2.936 0,1.682 1.233,2.895 2.796,2.895 C 1.55,5.827 2.793,4.612 2.793,2.929 2.801,1.226 1.542,0.004 0,0 M 0,6.642 C -2.018,6.635 -3.814,5.187 -3.818,2.927 -3.814,0.673 -2.009,-0.791 0.004,-0.795 2.009,-0.806 3.802,0.669 3.802,2.934 3.806,5.193 2.013,6.629 0,6.642" /> </g> <g transform="matrix(0.35277777,0,0,-0.35277777,153.38811,94.146429)" id="g3856"> <path id="path3858" style="fill:#231f20;fill-opacity:1;fill-rule:nonzero;stroke:none" d="m 0,0 -0.749,0.009 0.009,1.08 0.705,0.009 C 0.33,1.102 0.815,1.022 0.815,0.584 0.815,0.08 0.471,0.005 0,0 M 1.634,0.518 C 1.643,1.423 1.044,1.756 0.009,1.749 L -1.56,1.742 -1.564,-2.418 -0.74,-2.427 v 1.789 l 0.511,-0.005 1.017,-1.784 0.859,0.009 -1.105,1.826 c 0.616,0.044 1.097,0.337 1.092,1.11" /> </g> <g transform="matrix(0.35277777,0,0,-0.35277777,102.92745,106.29331)" id="g3860"> <path id="path3862" style="fill:#f68b1e;fill-opacity:1;fill-rule:evenodd;stroke:none" d="m 0,0 c -2.533,0.363 -2.289,0.114 -4.766,1.073 -3.591,1.39 -4.285,4.029 -1.779,6.959 1.291,1.505 2.89,2.08 4.628,2.52 1.823,0.46 1.731,0.643 3.702,0.909 0.706,0.095 1.169,0.06 2.229,0.206 1.064,0.142 1.181,0.019 1.236,0.353 0.112,0.662 -0.446,1.399 -0.994,1.435 -1.954,0.128 -3.409,-0.031 -5.974,-0.601 -2.035,-0.455 -3.386,-1.664 -5.956,-2.831 0.991,4.102 1.917,7.695 2.687,11.318 0.157,0.738 0.708,2.073 -0.507,2.312 -1.253,0.249 -1.67,-0.89 -1.774,-2.025 -0.385,-4.187 -1.805,-8.105 -3.03,-12.086 -0.932,-3.041 -1.578,-6.168 -2.303,-9.269 -0.308,-1.327 0.013,-2.588 1.36,-2.456 1.796,0.177 0.614,1.294 0.701,2.328 0.024,0.288 0.245,0.952 0.578,1.59 0.312,0.595 0.617,-0.125 0.865,-0.285 3.033,-1.962 5.069,-3.969 9.808,-3.105 0,0 2.269,1.23 -0.711,1.655" /> </g> <g transform="matrix(0.35277777,0,0,-0.35277777,96.974852,100.31521)" id="g3864"> <path id="path3866" style="fill:#f68b1e;fill-opacity:1;fill-rule:evenodd;stroke:none" d="m 0,0 c 0.282,0.099 0.487,1.24 -0.282,1.975 0,0 -1.515,1.252 -1.331,-0.862 C -1.429,-1.005 0,0 0,0" /> </g> <g transform="matrix(0.35277777,0,0,-0.35277777,64.861031,106.08866)" id="g3868"> <path id="path3870" style="fill:#f68b1e;fill-opacity:1;fill-rule:evenodd;stroke:none" d="m 0,0 c -0.936,-0.935 -1.965,-1.368 -2.794,-1.385 -0.664,-0.014 -1.135,0.558 -1.155,1.467 -0.054,2.572 2.11,6.396 3.446,7.998 0.768,0.974 1.178,1.315 1.508,1.324 H 1.048 C 2.705,9.436 3.065,8.155 3.099,6.579 3.139,4.672 1.339,1.356 0,0 m 3.225,10.485 c 0,0 -2.134,1.095 -3.711,0.795 C -0.977,11.188 -1.315,11.096 -1.6,10.881 -1.884,10.583 -2.125,10.25 -2.158,9.752 -2.146,9.252 -2.263,8.918 -2.586,8.496 -3.032,7.865 -4.558,5.506 -5.112,4.169 -5.64,2.941 -6.18,0.967 -6.278,-0.278 c -1.196,-0.868 -2.816,-0.923 -4.503,-1.16 -1.814,-0.254 -2.972,0.636 -2.733,2.313 0.398,2.825 0.934,5.636 1.221,8.479 0.1,0.969 0.583,2.458 -0.633,2.934 -1.194,0.466 -2.455,0.167 -3.671,-0.81 -2.991,-2.395 -5.781,-4.909 -7.542,-8.505 -0.352,3.166 -0.638,6.168 0.091,9.16 0.185,0.754 -0.01,1.75 -0.768,1.803 -0.911,0.058 -2.163,-1.278 -2.046,-2.117 0.414,-2.975 0.648,-5.422 0.237,-8.324 -0.258,-1.829 -2.354,-3.478 -0.909,-5.878 l -0.003,-0.005 c 0,0 0.071,-0.126 0.191,-0.285 0.018,-0.027 0.031,-0.053 0.052,-0.08 0.002,0.003 0.004,0.003 0.006,0.005 0.263,-0.307 0.721,-0.669 1.314,-0.425 0.795,0.328 3.086,5.145 4.237,7.093 0.52,0.593 1.048,1.18 1.584,1.752 1.675,1.579 4.727,4.411 5.629,4.612 0.833,-3.098 -0.484,-5.87 -0.809,-8.689 -0.354,-3.091 0.712,-4.481 3.848,-4.536 1.604,-0.032 2.951,0.244 4.333,1.119 0.359,0.224 0.667,0.391 0.966,0.456 0.33,-1.143 1.377,-2.097 2.147,-2.08 0.747,0.014 1.86,0.331 3.34,1.063 1.48,0.698 2.536,1.837 3.706,3.403 1.536,1.938 2.233,4.401 2.21,5.522 L 5.215,6.579 C 5.19,7.826 4.526,9.806 3.225,10.485" /> </g> <g transform="matrix(0.35277777,0,0,-0.35277777,118.38179,105.54725)" id="g3872"> <path id="path3874" style="fill:#f68b1e;fill-opacity:1;fill-rule:evenodd;stroke:none" d="m 0,0 c -0.949,-0.979 -2.002,-1.445 -2.862,-1.477 -0.684,-0.026 -1.18,0.559 -1.214,1.497 -0.103,2.653 2.064,6.636 3.414,8.316 0.777,1.018 1.193,1.378 1.534,1.39 H 0.918 C 2.628,9.793 3.023,8.479 3.084,6.85 3.16,4.88 1.359,1.429 0,0 m 3.145,10.884 c 0,0 -2.224,1.09 -3.843,0.754 C -1.203,11.536 -1.552,11.432 -1.843,11.21 -2.13,10.893 -2.374,10.548 -2.398,10.033 -2.378,9.518 -2.493,9.17 -2.819,8.725 -3.268,8.068 -4.802,5.605 -5.35,4.215 -5.939,2.777 -6.532,0.353 -6.486,-0.848 c 0.023,-0.585 0.265,-1.155 0.607,-1.624 -0.823,0.004 -1.643,0.038 -2.448,-0.088 -1.882,-0.285 -2.197,0.689 -2.345,2.545 -0.293,3.701 0.556,5.567 0.962,9.635 0.626,1.957 -6.31,1.839 -12.978,-10.198 0.372,5.071 6.149,15.682 7.067,20.057 0.01,0.042 0.017,0.086 0.03,0.13 0.211,0.9 0.911,3.742 -0.711,4.574 -1.617,0.838 -1.674,-0.661 -1.674,-0.661 -0.076,-0.247 0.045,-0.743 0.228,-1.029 0.387,-0.579 0.293,-1.248 0.26,-2.183 -0.824,-5.781 -7.585,-16.498 -6.808,-21.922 0.231,-1.617 1.567,-3.251 2.442,-1.136 0.896,2.154 2.576,6.009 4.58,7.811 1.424,1.284 3.397,3.384 5.809,3.701 -0.538,-1.682 -0.947,-5.035 -1.08,-6.717 -0.311,-4.002 0.861,-6.11 4.596,-6.071 1.499,0.014 2.966,0.116 4.452,0.476 0.189,0.039 0.405,0.097 0.626,0.164 0.091,0.027 0.179,0.042 0.266,0.068 l -0.015,0.005 c 0.563,0.188 1.204,0.461 1.94,0.843 1.513,0.745 2.587,1.939 3.767,3.575 1.553,2.028 2.225,4.585 2.183,5.74 L 5.266,6.889 C 5.221,8.174 4.497,10.205 3.145,10.884" /> </g> <g transform="matrix(0.35277777,0,0,-0.35277777,69.24613,102.20744)" id="g3876"> <path id="path3878" style="fill:#f68b1e;fill-opacity:1;fill-rule:evenodd;stroke:none" d="m 0,0 c 0.221,0.015 0.253,-0.428 0.158,-0.931 -0.929,-3.688 -2.508,-8.239 -3.111,-10.926 -0.7,-2.562 -2.67,-9.603 -2.927,-10.959 -0.193,-1.005 -0.228,-1.726 -0.771,-2.211 -0.251,-0.24 -0.483,-0.703 -0.465,-0.974 0,0 -0.132,-2.263 1.522,-1.383 1.466,0.776 1.48,2.828 1.836,4.056 0.315,2.349 2.34,9.387 2.608,9.992 0.153,0.326 0.71,3.008 0.781,3.279 0.232,1.049 2.742,9.288 3.043,9.979 0.153,0.373 -0.688,2.734 -2.2,2.079 z" /> </g> <g transform="matrix(0.35277777,0,0,-0.35277777,68.37057,106.76134)" id="g3880"> <path id="path3882" style="fill:#f68b1e;fill-opacity:1;fill-rule:evenodd;stroke:none" d="m 0,0 c 0.513,-0.15 1.365,-0.396 3.464,-0.162 3.274,0.486 5.097,1.506 6.921,2.755 1.824,1.25 3.099,3.292 3.234,5.201 0.094,1.33 -0.042,4.232 -3.582,5.25 0,0 -2.277,0.751 -3.922,0.662 C 4.053,13.593 0.142,13.01 -1.771,11.654 -2.249,11.285 -2.652,10.845 -2.79,10.366 -3.003,9.784 -2.538,9.322 -2.153,9.208 c 0.257,-0.072 0.482,-0.089 0.783,0.15 1.822,1.847 5.419,2.947 6.346,2.635 0,0 3.084,-0.59 3.765,-0.786 L 8.787,11.195 C 11.258,10.482 11.584,9.387 11.415,7.966 11.247,6.56 9.926,4.797 8.784,3.79 7.284,2.467 4.959,2.168 4.318,2.035 2.94,1.74 1.581,1.96 1.197,2.071 0.984,2.132 -0.256,0.072 0,0" /> </g> <g transform="matrix(0.35277777,0,0,-0.35277777,104.92992,105.44996)" id="g3884"> <path id="path3886" style="fill:#f68b1e;fill-opacity:1;fill-rule:evenodd;stroke:none" d="M 0,0 C 0.309,4.292 1.777,6.61 4.669,7.971 5.148,8.195 5.608,8.517 6.031,8.133 6.258,7.927 6.378,7.354 6.252,7.074 5.009,4.34 3.096,2.221 0,0 m 7.499,-2.751 c 0,0 -5.151,-1.914 -6.325,1.09 -0.408,1.044 1.077,1.509 1.713,2.062 1.921,1.675 3.87,3.144 4.809,5.561 C 8.042,6.83 8.601,8.227 7.211,9.085 6.082,9.786 5.193,10.216 3.683,9.421 0.474,7.727 -2.018,5.53 -1.881,1.805 c 0.128,-3.364 1.964,-5.134 1.964,-5.134 3.368,-2.129 5.371,-1.672 9.038,-0.19 l 0.015,-0.007 c 0,0 0.496,0.156 1.008,0.44 0.031,0.011 0.061,0.021 0.091,0.036 -0.003,0.002 -0.006,0.002 -0.013,0.005 0.625,0.357 1.245,0.894 1.021,1.583 -0.42,1.28 -3.236,-1.226 -3.744,-1.289" /> </g> <g transform="matrix(0.35277777,0,0,-0.35277777,130.34802,105.63513)" id="g3888"> <path id="path3890" style="fill:#f68b1e;fill-opacity:1;fill-rule:evenodd;stroke:none" d="M 0,0 C 0.202,4.665 1.57,7.227 4.336,8.803 4.796,9.063 5.234,9.426 5.649,9.022 5.876,8.81 6.007,8.194 5.891,7.887 4.748,4.877 2.947,2.514 0,0 m 7.644,-1.428 c 0,0 -5.063,-3.739 -6.268,-0.52 -0.414,1.117 1.008,1.673 1.613,2.294 1.823,1.88 3.469,3.729 4.324,6.383 0.316,0.959 0.823,2.489 -0.542,3.372 -1.106,0.72 -1.977,1.155 -3.416,0.241 -3.072,-1.95 -5.431,-4.42 -5.212,-8.449 0.068,-1.315 0.359,-2.374 0.695,-3.198 -1.722,-1.08 -2.981,-0.858 -4.1,-0.88 -1.392,-0.031 -1.647,1.228 -1.293,3.805 0.39,2.748 1.199,5.109 1.716,6.158 0,0 1.344,4 0.279,3.835 -0.267,-0.036 -0.711,-0.238 -1.287,-0.838 -0.574,-0.595 -5.544,-6.33 -8.448,-9.682 -0.396,-0.46 -0.702,-0.689 -0.89,-0.561 -0.181,0.179 -0.145,0.447 -0.064,0.95 0.255,0.81 2.207,6.666 2.63,7.804 0.555,1.542 -0.188,2.562 -0.865,2.547 l -0.042,-0.002 c -0.273,-0.005 -0.715,-0.283 -1.335,-0.887 -0.618,-0.594 -1.235,-1.192 -2.426,-2.48 -2.249,-2.344 -4.525,-5.322 -6.68,-8.07 -0.526,-0.684 -0.895,-0.331 -0.556,0.849 0.418,1.583 1.494,5.972 2.361,7.705 0.519,1.094 0.231,1.807 -0.412,2.463 -0.276,0.314 -0.506,0.449 -0.822,0.442 -0.897,-0.02 -1.182,-1.697 -1.43,-2.69 -0.205,-0.817 -0.284,-1.358 -0.278,-1.675 -0.084,-0.273 -0.083,-0.449 -0.167,-0.81 -1.007,-3.492 -1.921,-6.982 -2.079,-8.159 -0.184,-2.074 0.47,-3.048 1.099,-3.036 0.36,0.01 0.848,0.466 1.461,1.201 1.184,1.511 6.664,8.74 7.686,9.486 0.352,0.371 0.664,0.554 0.802,0.467 0.224,-0.13 0.234,-0.396 0.021,-1.083 -0.293,-1.041 -1.346,-4.575 -1.591,-5.706 -0.584,-2.263 -0.409,-4.111 0.357,-4.095 0.448,0.01 0.89,0.336 1.777,1.258 1.273,1.375 5.625,6.51 7.165,8.345 0.487,0.551 0.624,0.467 0.545,-0.034 -0.294,-1.131 -0.669,-2.67 -0.857,-4.476 -0.375,-3.519 1.056,-5.247 2.769,-5.213 1.437,0.031 3.48,-0.138 5.737,1.59 0.324,-0.471 0.569,-0.705 0.569,-0.705 3.067,-2.766 4.845,-1.052 8.473,0.957 l 0.585,0.314 c 1.951,1.438 1.99,2.308 1.99,2.308 -0.434,1.378 -2.925,-1.088 -3.594,-1.525" /> </g> <g transform="matrix(0.35277777,0,0,-0.35277777,73.902373,105.26496)" id="g3892"> <path id="path3894" style="fill:#f68b1e;fill-opacity:1;fill-rule:evenodd;stroke:none" d="m 0,0 c -0.184,-1.141 -0.399,-2.274 -0.671,-3.379 -0.205,-0.836 -0.806,-1.924 0.629,-1.999 0.988,-0.056 1.306,0.936 1.414,1.907 0.372,3.294 0.579,6.105 1.156,9.779 0.607,3.128 1.327,6.212 2.03,9.301 0.291,1.277 0.564,2.294 0.617,3.896 0.021,0.694 0.081,1.547 -0.922,1.643 C 2.995,21.261 3.074,20.298 3.111,19.438 3.246,16.23 2.312,13.695 1.672,10.912 Z" /> </g> <g transform="matrix(0.35277777,0,0,-0.35277777,94.629585,97.766704)" id="g3896"> <path id="path3898" style="fill:#f68b1e;fill-opacity:1;fill-rule:evenodd;stroke:none" d="m 0,0 c -1.245,0.229 -1.286,-0.764 -1.29,-1.646 -0.019,-3.101 -1.41,-5.756 -2.298,-8.542 l -1.427,-5.822 c -0.198,-1.728 -0.998,-3.809 -1.122,-5.223 -0.285,-1.151 -0.604,-2.287 -0.973,-3.396 -0.28,-0.834 -0.976,-1.89 0.449,-2.096 0.977,-0.145 1.383,0.842 1.58,1.825 0.665,3.333 1.223,6.613 1.874,9.936 0.884,3.14 2.036,6.183 3.014,9.277 0.403,1.279 1.126,2.473 0.963,3.928 C 0.692,-1.054 0.991,-0.186 0,0" /> </g> <g transform="matrix(0.35277777,0,0,-0.35277777,96.905248,101.11086)" id="g3900"> <path id="path3902" style="fill:#f68b1e;fill-opacity:1;fill-rule:evenodd;stroke:none" d="m 0,0 c -1.13,-0.017 -0.974,-0.612 -0.956,-1.148 0.06,-1.965 -0.081,-2.577 -0.849,-5.467 l -0.7,-3.727 c -0.117,-1.17 -0.427,-2.202 -0.499,-3.145 -0.121,-0.725 -0.273,-1.445 -0.473,-2.153 -0.15,-0.534 -0.646,-1.255 0.641,-1.204 0.891,0.032 1.136,0.675 1.196,1.288 0.209,2.079 0.666,4.097 0.86,6.168 0.424,1.997 0.756,3.979 1.268,5.951 C 0.7,-2.62 0.704,-1.772 0.887,-0.96 0.984,-0.534 0.904,0.012 0,0" /> </g> <g transform="matrix(0.35277777,0,0,-0.35277777,88.04654,105.25046)" id="g3904"> <path id="path3906" style="fill:#f68b1e;fill-opacity:1;fill-rule:evenodd;stroke:none" d="M 0,0 C -0.071,4.215 1.065,6.598 3.571,8.169 3.984,8.43 4.375,8.783 4.787,8.442 5.009,8.264 5.167,7.71 5.077,7.432 4.172,4.66 2.617,2.429 0,0 m 7.004,-2.045 c 0,0 -4.502,-2.303 -5.809,0.529 C 0.744,-0.534 2.046,0.046 2.575,0.64 4.18,2.431 5.818,4.031 6.474,6.468 6.712,7.342 7.105,8.751 5.778,9.474 4.698,10.059 3.86,10.405 2.562,9.501 -0.202,7.575 -2.234,5.228 -1.845,1.603 c 0.341,-3.208 -1.491,-3.324 -3.528,-3.812 0,0 -3.732,-0.699 -6.363,-0.597 -1.503,0.058 -2.031,-0.131 -3.087,0.829 -1.074,0.974 -0.775,2.388 -0.332,3.707 0.801,2.403 2.975,5.194 5.669,6.831 0.667,0.401 1.212,0.643 1.964,0.531 C -6.87,9 -6.377,7.026 -5.487,8.237 c 0.398,0.539 0.56,1.523 -0.236,2.233 -0.765,0.687 -1.444,1.337 -2.525,0.856 -4.075,-1.83 -7.141,-4.829 -8.947,-9.033 -1.704,-2.131 -2.364,-4.647 -0.65,-2.745 0.145,-2.303 2.096,-4.194 4.621,-4.232 3.608,-0.053 5.972,0.017 10.009,1.615 1.132,0.449 2.281,0.553 3.565,-0.167 3.214,-1.794 4.985,-1.173 8.183,0.58 l 0.015,-0.005 c 0,0 0.432,0.198 0.874,0.512 0.027,0.017 0.054,0.029 0.08,0.046 -0.004,0.002 -0.007,0.002 -0.014,0.002 0.536,0.402 1.054,0.977 0.793,1.627 C 9.796,0.744 7.458,-1.938 7.004,-2.045" /> </g> <g transform="matrix(0.35277777,0,0,-0.35277777,79.086865,103.00549)" id="g3908"> <path id="path3910" style="fill:#f68b1e;fill-opacity:1;fill-rule:nonzero;stroke:none" d="m 0,0 c -1.055,-2.763 -1.949,-5.035 -4.627,-7.389 -2.679,-2.354 -3.735,-0.812 -3.248,1.868 0.488,2.681 1.056,4.791 3.978,7.469 C -0.974,4.626 0.552,1.443 0,0 M 9.255,-4.14 C 8.93,-4.302 9.558,-2.545 8.097,-4.249 6.636,-5.956 2.518,-10.78 1.542,-8.687 c -0.708,1.516 -0.406,7.145 0.731,8.931 1.137,1.786 0.7,3.43 -0.989,2.77 0,0 -2.256,2.815 -5.302,0.916 -3.045,-1.9 -4.425,-4.986 -5.643,-8.476 -1.218,-3.49 0,-7.551 2.192,-6.819 2.192,0.73 5.641,5.695 5.98,5.62 0.338,-0.075 0.352,-5.296 2.625,-5.458 2.274,-0.162 5.196,2.84 6.17,3.896 0.974,1.057 2.274,3.326 1.949,3.167" /> </g> <g transform="matrix(0.35277777,0,0,-0.35277777,50.893079,104.86082)" id="g3912"> <path id="path3914" style="fill:#f68b1e;fill-opacity:1;fill-rule:nonzero;stroke:none" d="m 0,0 -5.284,-0.854 0.058,0.464 c 0.392,3.119 0.438,4.113 0.475,4.911 0.027,0.587 0.051,1.095 0.204,2.26 l 0.034,-0.049 0.258,0.052 c 0.834,0.136 1.624,0.228 2.346,0.291 0.798,0.071 1.729,0.23 2.438,0.198 L 0.731,7.117 Z M 7.057,7.756 C 7.171,8.143 7.188,8.319 7.188,8.39 7.187,8.679 7.102,9.093 6.37,9.367 5.86,9.554 5.277,9.62 4.637,9.565 4.538,9.557 4.079,9.499 3.26,9.396 l -0.478,-0.06 0.09,0.473 c 0.118,0.625 0.172,0.982 0.215,1.265 0.053,0.345 0.089,0.584 0.198,1.039 0.023,0.07 0.065,0.199 0.66,1.604 0.206,0.599 0.315,1.105 0.315,1.482 -10e-4,0.294 -0.14,0.52 -0.44,0.71 -0.337,0.213 -0.678,0.3 -1.033,0.27 C 2.775,16.169 2.553,16.065 1.639,15.393 1.42,13.593 1.308,12.382 1.218,11.404 1.14,10.547 1.082,9.929 0.989,9.317 L 0.95,9.065 -4.274,8.214 l 0.1,0.497 c 0.217,1.083 0.309,1.637 0.37,2.007 0.051,0.305 0.081,0.491 0.141,0.735 0.091,0.203 0.287,0.64 0.612,1.377 0.208,0.518 0.315,0.943 0.314,1.252 0,0.302 -0.14,0.533 -0.439,0.727 -0.333,0.216 -0.68,0.305 -1.07,0.27 -0.213,-0.019 -0.616,-0.151 -1.336,-0.663 -0.051,-0.464 -0.076,-0.999 -0.074,-1.594 l 0.004,-0.386 C -5.64,11.619 -5.625,10.692 -5.965,8.374 L -6.002,8.114 -9.521,7.612 C -9.59,7.054 -9.626,6.746 -9.63,6.689 c 0,-0.216 0.097,-0.526 0.288,-0.905 0.144,-0.287 0.257,-0.387 0.304,-0.414 0.333,0.192 0.997,0.495 2.288,1.085 l 0.555,-0.054 -0.763,-7.352 -3.432,-0.494 c -0.069,-0.559 -0.106,-0.868 -0.11,-0.925 10e-4,-0.144 0.051,-0.434 0.289,-0.903 0.14,-0.281 0.251,-0.383 0.3,-0.413 l 2.771,1.296 -0.085,-0.636 c -0.223,-1.678 -0.39,-2.829 -0.51,-3.663 -0.194,-1.336 -0.266,-1.836 -0.265,-2.366 0,-0.027 0.015,-0.185 0.299,-0.545 0.243,-0.307 0.363,-0.314 0.366,-0.314 0.522,0.046 1.216,0.289 1.212,1.854 -0.003,1.008 0.112,2.299 0.342,3.838 0.202,1.47 0.305,1.686 0.372,1.828 l 0.021,0.275 0.288,0.142 c 0.838,0.138 1.632,0.24 2.36,0.305 0.799,0.069 1.526,0.102 2.17,0.092 l 0.398,-0.004 -0.186,-1.315 c -0.279,-1.948 -0.353,-2.472 -0.349,-4.022 0.003,-1.236 0.269,-1.738 0.492,-1.941 0.156,-0.142 0.355,-0.199 0.622,-0.178 0.318,0.028 0.597,0.162 0.853,0.407 0.244,0.233 0.362,0.486 0.362,0.774 0,0.039 -0.014,0.171 -0.133,0.526 -0.114,0.336 -0.168,0.573 -0.169,0.746 -0.006,2.341 -0.007,2.701 0.189,4.759 l 0.029,0.304 0.305,0.013 c 1.984,0.087 2.486,0.063 2.689,0.037 0.127,-0.027 0.282,-0.081 0.695,-0.301 0.193,-0.105 0.308,-0.145 0.369,-0.161 0.113,0.048 0.265,0.1 0.465,0.164 0.024,0.109 0.063,0.259 0.126,0.47 0.115,0.384 0.132,0.563 0.132,0.635 C 6.318,-0.379 6.232,0.035 5.5,0.308 5.016,0.5 4.453,0.565 3.815,0.511 3.682,0.499 3.141,0.436 2.188,0.321 L 1.741,0.267 1.797,0.713 C 2.166,3.61 2.205,4.458 2.235,5.141 2.259,5.664 2.278,6.077 2.436,7.203 L 2.476,7.178 2.76,7.196 C 4.708,7.322 5.179,7.606 5.364,7.579 5.481,7.552 5.636,7.5 6.048,7.278 6.258,7.165 6.375,7.127 6.431,7.115 6.548,7.165 6.706,7.219 6.916,7.289 6.95,7.402 6.998,7.558 7.057,7.756" /> </g> </g>
</svg>
