<?xml version="1.0" encoding="UTF-8" standalone="no"?>
<svg xmlns:dc="http://purl.org/dc/elements/1.1/" xmlns:cc="http://creativecommons.org/ns#" xmlns:rdf="http://www.w3.org/1999/02/22-rdf-syntax-ns#" xmlns:svg="http://www.w3.org/2000/svg" xmlns="http://www.w3.org/2000/svg" id="svg5821" version="1.1" viewBox="0 0 13.668728 19.028128" height="19.028128mm" width="13.668728mm"> <defs id="defs5815" /> <metadata id="metadata5818"> <rdf:RDF> <cc:Work rdf:about=""> <dc:format>image/svg+xml</dc:format> <dc:type rdf:resource="http://purl.org/dc/dcmitype/StillImage" /> <dc:title></dc:title> </cc:Work> </rdf:RDF> </metadata> <g transform="translate(-128.90846,-127.18176)" id="layer1"> <g transform="matrix(0.35277777,0,0,-0.35277777,135.74282,127.53454)" id="g5342"> <path id="path5344" style="fill:#f58a1f;fill-opacity:1;fill-rule:nonzero;stroke:none" d="m 0,0 c -10.147,0 -18.373,-8.227 -18.373,-18.373 v -15.192 c 0,-10.147 8.226,-18.373 18.373,-18.373 10.147,0 18.373,8.226 18.373,18.373 v 15.192 C 18.373,-8.227 10.147,0 0,0" /> </g> <g transform="matrix(0.35277777,0,0,-0.35277777,135.74282,127.53454)" id="g5346"> <path id="path5348" style="fill:none;stroke:#ffffff;stroke-width:2;stroke-linecap:butt;stroke-linejoin:miter;stroke-miterlimit:10;stroke-dasharray:none;stroke-opacity:1" d="m 0,0 c -10.147,0 -18.373,-8.227 -18.373,-18.373 v -15.192 c 0,-10.147 8.226,-18.373 18.373,-18.373 10.147,0 18.373,8.226 18.373,18.373 v 15.192 C 18.373,-8.227 10.147,0 0,0 Z" /> </g> <g transform="matrix(0.35277777,0,0,-0.35277777,131.88329,132.62399)" id="g5350"> <path id="path5352" style="fill:#ffffff;fill-opacity:1;fill-rule:nonzero;stroke:none" d="M 0,0 H 1.462 V -4.394 H 3.74 V -5.669 H 0 Z" /> </g> <g transform="matrix(0.35277777,0,0,-0.35277777,134.05507,133.88627)" id="g5354"> <path id="path5356" style="fill:#ffffff;fill-opacity:1;fill-rule:nonzero;stroke:none" d="M 0,0 H 1.589 L 0.79,2.303 Z m 1.972,-1.232 h -2.355 l -0.288,-0.859 h -1.59 l 2.134,5.669 H 1.708 L 3.85,-2.091 H 2.261 Z" /> </g> <g transform="matrix(0.35277777,0,0,-0.35277777,136.07701,133.41548)" id="g5358"> <path id="path5360" style="fill:#ffffff;fill-opacity:1;fill-rule:nonzero;stroke:none" d="M 0,0 V -3.425 H -1.462 V 2.244 H 0.042 L 2.337,-1.02 V 2.244 H 3.808 V -3.425 H 2.397 Z" /> </g> <g transform="matrix(0.35277777,0,0,-0.35277777,138.62068,134.1741)" id="g5362"> <path id="path5364" style="fill:#ffffff;fill-opacity:1;fill-rule:nonzero;stroke:none" d="m 0,0 c 0.995,0 1.572,0.722 1.572,1.564 0,0.875 -0.527,1.555 -1.563,1.555 H -0.918 V 0 Z M -2.38,4.394 H 0 c 1.785,0 3.068,-1.071 3.068,-2.83 0,-1.759 -1.283,-2.839 -3.059,-2.839 H -2.38 Z" /> </g> <g transform="matrix(0.35277777,0,0,-0.35277777,132.92734,136.45509)" id="g5366"> <path id="path5368" style="fill:#ffffff;fill-opacity:1;fill-rule:nonzero;stroke:none" d="m 0,0 c 0.408,-0.408 1.037,-0.748 1.81,-0.748 0.502,0 0.808,0.212 0.808,0.484 0,0.323 -0.366,0.451 -0.969,0.578 -0.935,0.187 -2.244,0.425 -2.244,1.768 0,0.952 0.807,1.776 2.261,1.776 0.909,0 1.7,-0.272 2.303,-0.79 L 3.17,2.022 C 2.694,2.414 2.074,2.609 1.572,2.609 1.088,2.609 0.901,2.414 0.901,2.167 0.901,1.87 1.25,1.768 1.878,1.648 2.813,1.453 4.105,1.181 4.105,-0.102 c 0,-1.139 -0.841,-1.896 -2.363,-1.896 -1.147,0 -1.946,0.357 -2.515,0.901 z" /> </g> <path id="path5370" style="fill:#ffffff;fill-opacity:1;fill-rule:nonzero;stroke:none;stroke-width:0.35277775" d="m 134.61612,135.12384 h 0.51576 v 1.9999 h -0.51576 z" /> <g transform="matrix(0.35277777,0,0,-0.35277777,135.42935,136.71297)" id="g5372"> <path id="path5374" style="fill:#ffffff;fill-opacity:1;fill-rule:nonzero;stroke:none" d="M 0,0 2.414,3.229 H 0 V 4.504 H 4.343 V 3.34 L 1.921,0.11 H 4.402 V -1.165 H 0 Z" /> </g> <g transform="matrix(0.35277777,0,0,-0.35277777,137.2802,135.12391)" id="g5376"> <path id="path5378" style="fill:#ffffff;fill-opacity:1;fill-rule:nonzero;stroke:none" d="M 0,0 H 4.156 V -1.232 H 1.462 V -2.176 H 4.097 V -3.417 H 1.462 v -1.02 H 4.156 V -5.669 H 0 Z" /> </g> </g>
</svg>
