<?xml version="1.0" encoding="UTF-8" standalone="no"?>
<svg xmlns:dc="http://purl.org/dc/elements/1.1/" xmlns:cc="http://creativecommons.org/ns#" xmlns:rdf="http://www.w3.org/1999/02/22-rdf-syntax-ns#" xmlns:svg="http://www.w3.org/2000/svg" xmlns="http://www.w3.org/2000/svg" id="svg5821" version="1.1" viewBox="0 0 13.668728 19.028128" height="19.028128mm" width="13.668728mm"> <defs id="defs5815" /> <metadata id="metadata5818"> <rdf:RDF> <cc:Work rdf:about=""> <dc:format>image/svg+xml</dc:format> <dc:type rdf:resource="http://purl.org/dc/dcmitype/StillImage" /> <dc:title></dc:title> </cc:Work> </rdf:RDF> </metadata> <g transform="translate(-123.9454,-131.00379)" id="layer1"> <g transform="matrix(0.35277777,0,0,-0.35277777,130.77976,131.35657)" id="g5286"> <path id="path5288" style="fill:#f58a1f;fill-opacity:1;fill-rule:nonzero;stroke:none" d="m 0,0 c -10.148,0 -18.373,-8.227 -18.373,-18.373 v -15.192 c 0,-10.147 8.225,-18.373 18.373,-18.373 10.147,0 18.373,8.226 18.373,18.373 v 15.192 C 18.373,-8.227 10.147,0 0,0" /> </g> <g transform="matrix(0.35277777,0,0,-0.35277777,130.77976,131.35657)" id="g5290"> <path id="path5292" style="fill:none;stroke:#ffffff;stroke-width:2;stroke-linecap:butt;stroke-linejoin:miter;stroke-miterlimit:10;stroke-dasharray:none;stroke-opacity:1" d="m 0,0 c -10.148,0 -18.373,-8.227 -18.373,-18.373 v -15.192 c 0,-10.147 8.225,-18.373 18.373,-18.373 10.147,0 18.373,8.226 18.373,18.373 v 15.192 C 18.373,-8.227 10.147,0 0,0 Z" /> </g> <g transform="matrix(0.35277777,0,0,-0.35277777,127.24644,140.134)" id="g5294"> <path id="path5296" style="fill:#ffffff;fill-opacity:1;fill-rule:nonzero;stroke:none" d="m 0,0 c -0.466,0 -0.843,0.377 -0.843,0.842 v 10.799 c 0,0.465 0.377,0.843 0.843,0.843 0.466,0 0.843,-0.378 0.843,-0.843 V 0.842 C 0.843,0.377 0.466,0 0,0" /> </g> <g transform="matrix(0.35277777,0,0,-0.35277777,134.23518,140.134)" id="g5298"> <path id="path5300" style="fill:#ffffff;fill-opacity:1;fill-rule:nonzero;stroke:none" d="m 0,0 c -0.466,0 -0.843,0.377 -0.843,0.842 v 6.881 c 0,0.465 0.377,0.842 0.843,0.842 0.466,0 0.842,-0.377 0.842,-0.842 V 0.842 C 0.842,0.377 0.466,0 0,0" /> </g> <g transform="matrix(0.35277777,0,0,-0.35277777,134.05724,138.9904)" id="g5302"> <path id="path5304" style="fill:#ffffff;fill-opacity:1;fill-rule:nonzero;stroke:none" d="m 0,0 h -18.91 c -0.465,0 -0.843,0.377 -0.843,0.842 0,0.466 0.378,0.844 0.843,0.844 H 0 C 0.466,1.686 0.842,1.308 0.842,0.842 0.842,0.377 0.466,0 0,0" /> </g> <g transform="matrix(0.35277777,0,0,-0.35277777,133.37116,138.16444)" id="g5306"> <path id="path5308" style="fill:#ffffff;fill-opacity:1;fill-rule:nonzero;stroke:none" d="m 0,0 h -10.553 c -0.466,0 -0.843,0.377 -0.843,0.842 0,0.466 0.377,0.844 0.843,0.844 H 0 C 0.466,1.686 0.843,1.308 0.843,0.842 0.843,0.377 0.466,0 0,0" /> </g> <g transform="matrix(0.35277777,0,0,-0.35277777,129.18157,137.9224)" id="g5310"> <path id="path5312" style="fill:#ffffff;fill-opacity:1;fill-rule:nonzero;stroke:none" d="m 0,0 c 0,-1.012 -3.989,-1.012 -3.989,0 0,1.012 0.893,1.832 1.995,1.832 C -0.893,1.832 0,1.012 0,0" /> </g> <g transform="matrix(0.35277777,0,0,-0.35277777,128.47792,137.31333)" id="g5314"> <path id="path5316" style="fill:#ffffff;fill-opacity:1;fill-rule:nonzero;stroke:none" d="m 0,0 c -1.042,0 -1.889,-0.775 -1.889,-1.727 0,-0.372 0.812,-0.653 1.889,-0.653 1.077,0 1.889,0.281 1.889,0.653 C 1.889,-0.775 1.042,0 0,0 m 0,-2.591 c -0.533,0 -1.032,0.07 -1.405,0.195 -0.574,0.195 -0.695,0.471 -0.695,0.669 0,1.068 0.942,1.937 2.1,1.937 1.158,0 2.1,-0.869 2.1,-1.937 0,-0.596 -1.055,-0.864 -2.1,-0.864" /> </g> </g>
</svg>
