<?xml version="1.0" encoding="UTF-8" standalone="no"?>
<svg xmlns:dc="http://purl.org/dc/elements/1.1/" xmlns:cc="http://creativecommons.org/ns#" xmlns:rdf="http://www.w3.org/1999/02/22-rdf-syntax-ns#" xmlns:svg="http://www.w3.org/2000/svg" xmlns="http://www.w3.org/2000/svg" id="svg5821" version="1.1" viewBox="0 0 13.668728 19.028128" height="19.028128mm" width="13.668728mm"> <defs id="defs5815" /> <metadata id="metadata5818"> <rdf:RDF> <cc:Work rdf:about=""> <dc:format>image/svg+xml</dc:format> <dc:type rdf:resource="http://purl.org/dc/dcmitype/StillImage" /> <dc:title></dc:title> </cc:Work> </rdf:RDF> </metadata> <g transform="translate(-128.79751,-143.32283)" id="layer1"> <g transform="matrix(0.35277777,0,0,-0.35277777,135.63187,143.67561)" id="g5318"> <path id="path5320" style="fill:#f58a1f;fill-opacity:1;fill-rule:nonzero;stroke:none" d="m 0,0 c -10.147,0 -18.373,-8.227 -18.373,-18.373 v -15.192 c 0,-10.147 8.226,-18.373 18.373,-18.373 10.147,0 18.373,8.226 18.373,18.373 v 15.192 C 18.373,-8.227 10.147,0 0,0" /> </g> <g transform="matrix(0.35277777,0,0,-0.35277777,135.63187,143.67561)" id="g5322"> <path id="path5324" style="fill:none;stroke:#ffffff;stroke-width:2;stroke-linecap:butt;stroke-linejoin:miter;stroke-miterlimit:10;stroke-dasharray:none;stroke-opacity:1" d="m 0,0 c -10.147,0 -18.373,-8.227 -18.373,-18.373 v -15.192 c 0,-10.147 8.226,-18.373 18.373,-18.373 10.147,0 18.373,8.226 18.373,18.373 v 15.192 C 18.373,-8.227 10.147,0 0,0 Z" /> </g> <g transform="matrix(0.35277777,0,0,-0.35277777,139.38395,151.62034)" id="g5326"> <path id="path5328" style="fill:#ffffff;fill-opacity:1;fill-rule:nonzero;stroke:none" d="m 0,0 h -2.918 c -0.465,0 -0.843,0.377 -0.843,0.842 0,0.466 0.378,0.843 0.843,0.843 h 2.075 V 2.43 C -0.96,2.539 -1.292,2.786 -2.122,3.072 -3.229,3.455 -6.271,4.179 -6.301,4.186 -6.445,4.22 -6.578,4.292 -6.685,4.394 l -0.024,0.022 c -1.347,1.274 -2.237,2.115 -3.248,2.417 -1.041,0.311 -3.433,0.35 -4.281,0.254 -1.002,-0.115 -2.315,-1.894 -2.794,-2.738 -0.137,-0.242 -0.385,-0.401 -0.661,-0.424 l -2.151,-0.182 -0.621,-2.058 h 1.481 c 0.464,0 0.842,-0.377 0.842,-0.843 C -18.142,0.377 -18.52,0 -18.984,0 H -21.6 c -0.267,0 -0.518,0.126 -0.676,0.34 -0.159,0.215 -0.208,0.491 -0.131,0.747 l 1.115,3.69 c 0.1,0.331 0.391,0.567 0.736,0.596 l 2.292,0.195 c 0.577,0.909 2.078,2.993 3.834,3.193 0.995,0.114 3.632,0.082 4.955,-0.313 C -8.124,8.044 -7.087,7.092 -5.691,5.773 -4.952,5.595 -2.586,5.017 -1.57,4.665 0.529,3.939 0.842,3.079 0.842,2.63 V 0.842 C 0.842,0.377 0.466,0 0,0" /> </g> <g transform="matrix(0.35277777,0,0,-0.35277777,137.2864,151.62034)" id="g5330"> <path id="path5332" style="fill:#ffffff;fill-opacity:1;fill-rule:nonzero;stroke:none" d="m 0,0 h -9.94 c -0.466,0 -0.843,0.377 -0.843,0.842 0,0.466 0.377,0.843 0.843,0.843 H 0 C 0.466,1.685 0.843,1.308 0.843,0.842 0.843,0.377 0.466,0 0,0" /> </g> <g transform="matrix(0.35277777,0,0,-0.35277777,133.20586,151.35921)" id="g5334"> <path id="path5336" style="fill:#ffffff;fill-opacity:1;fill-rule:nonzero;stroke:none" d="m 0,0 c -0.39,0 -0.708,-0.318 -0.708,-0.708 0,-0.39 0.318,-0.707 0.708,-0.707 0.39,0 0.707,0.317 0.707,0.707 C 0.707,-0.318 0.39,0 0,0 m 0,-3.1 c -1.32,0 -2.393,1.073 -2.393,2.392 0,1.32 1.073,2.393 2.393,2.393 1.32,0 2.393,-1.073 2.393,-2.393 C 2.393,-2.027 1.32,-3.1 0,-3.1" /> </g> <g transform="matrix(0.35277777,0,0,-0.35277777,137.83176,151.35921)" id="g5338"> <path id="path5340" style="fill:#ffffff;fill-opacity:1;fill-rule:nonzero;stroke:none" d="m 0,0 c -0.39,0 -0.708,-0.318 -0.708,-0.708 0,-0.39 0.318,-0.707 0.708,-0.707 0.39,0 0.707,0.317 0.707,0.707 C 0.707,-0.318 0.39,0 0,0 m 0,-3.1 c -1.32,0 -2.393,1.073 -2.393,2.392 0,1.32 1.073,2.393 2.393,2.393 1.319,0 2.393,-1.073 2.393,-2.393 C 2.393,-2.027 1.319,-3.1 0,-3.1" /> </g> </g>
</svg>
