<?xml version="1.0" encoding="UTF-8" standalone="no"?>
<svg xmlns:dc="http://purl.org/dc/elements/1.1/" xmlns:cc="http://creativecommons.org/ns#" xmlns:rdf="http://www.w3.org/1999/02/22-rdf-syntax-ns#" xmlns:svg="http://www.w3.org/2000/svg" xmlns="http://www.w3.org/2000/svg" id="svg5821" version="1.1" viewBox="0 0 13.668728 19.028128" height="19.028128mm" width="13.668728mm"><defs id="defs5815" /><metadata id="metadata5818"><rdf:RDF><cc:Work rdf:about=""><dc:format>image/svg+xml</dc:format><dc:type rdf:resource="http://purl.org/dc/dcmitype/StillImage" /><dc:title></dc:title></cc:Work></rdf:RDF></metadata><g transform="translate(-123.63113,-136.64359)" id="layer1"><g transform="matrix(0.35277777,0,0,-0.35277777,130.46549,136.99637)" id="g5254"><path id="path5256" style="fill:#f58a1f;fill-opacity:1;fill-rule:nonzero;stroke:none" d="m 0,0 c -10.148,0 -18.373,-8.227 -18.373,-18.374 v -15.191 c 0,-10.147 8.225,-18.373 18.373,-18.373 10.147,0 18.373,8.226 18.373,18.373 v 15.191 C 18.373,-8.227 10.147,0 0,0" /></g><g transform="matrix(0.35277777,0,0,-0.35277777,130.46549,136.99637)" id="g5258"><path id="path5260" style="fill:none;stroke:#ffffff;stroke-width:2;stroke-linecap:butt;stroke-linejoin:miter;stroke-miterlimit:10;stroke-dasharray:none;stroke-opacity:1" d="m 0,0 c -10.148,0 -18.373,-8.227 -18.373,-18.374 v -15.191 c 0,-10.147 8.225,-18.373 18.373,-18.373 10.147,0 18.373,8.226 18.373,18.373 v 15.191 C 18.373,-8.227 10.147,0 0,0 Z" /></g><g transform="matrix(0.35277777,0,0,-0.35277777,127.19129,143.71206)" id="g5262"><path id="path5264" style="fill:#ffffff;fill-opacity:1;fill-rule:nonzero;stroke:none" d="M 0,0 V -1.611 C 0,-2.552 0.766,-3.318 1.708,-3.318 H 16.98 c 0.942,0 1.708,0.766 1.708,1.707 V 0 Z M 16.98,-5.004 H 1.708 c -1.872,0 -3.394,1.523 -3.394,3.393 v 1.639 c -0.359,0.097 -0.624,0.425 -0.624,0.814 0,0.466 0.377,0.844 0.842,0.844 h 21.496 c 0.466,0 0.843,-0.378 0.843,-0.844 0,-0.342 -0.204,-0.636 -0.497,-0.769 v -1.684 c 0,-1.87 -1.522,-3.393 -3.394,-3.393" /></g><g transform="matrix(0.35277777,0,0,-0.35277777,133.07259,145.7738)" id="g5266"><path id="path5268" style="fill:#ffffff;fill-opacity:1;fill-rule:nonzero;stroke:none" d="m 0,0 c -0.466,0 -0.842,0.377 -0.842,0.842 v 0.639 c 0,0.466 0.376,0.843 0.842,0.843 0.466,0 0.843,-0.377 0.843,-0.843 V 0.842 C 0.843,0.377 0.466,0 0,0" /></g><g transform="matrix(0.35277777,0,0,-0.35277777,127.87205,145.7738)" id="g5270"><path id="path5272" style="fill:#ffffff;fill-opacity:1;fill-rule:nonzero;stroke:none" d="m 0,0 c -0.466,0 -0.842,0.377 -0.842,0.842 v 0.639 c 0,0.466 0.376,0.843 0.842,0.843 0.466,0 0.843,-0.377 0.843,-0.843 V 0.842 C 0.843,0.377 0.466,0 0,0" /></g><g transform="matrix(0.35277777,0,0,-0.35277777,133.0564,143.71223)" id="g5274"><path id="path5276" style="fill:#ffffff;fill-opacity:1;fill-rule:nonzero;stroke:none" d="m 0,0 c -0.466,0 -0.842,0.377 -0.842,0.842 v 2.921 c 0,1.867 -0.845,2.107 -1.582,2.107 -0.533,0 -0.911,-0.146 -1.158,-0.445 -0.295,-0.36 -0.826,-0.411 -1.186,-0.116 -0.359,0.295 -0.411,0.826 -0.116,1.186 0.398,0.484 1.147,1.06 2.46,1.06 0.982,0 3.267,-0.369 3.267,-3.792 V 0.842 C 0.843,0.377 0.466,0 0,0" /></g><g transform="matrix(0.35277777,0,0,-0.35277777,131.88161,142.12526)" id="g5278"><path id="path5280" style="fill:#ffffff;fill-opacity:1;fill-rule:nonzero;stroke:none" d="m 0,0 c -0.435,-0.805 -3.35,0.771 -2.915,1.577 0.436,0.804 1.441,1.104 2.246,0.669 C 0.135,1.81 0.435,0.805 0,0" /></g><g transform="matrix(0.35277777,0,0,-0.35277777,131.36864,141.29983)" id="g5282"><path id="path5284" style="fill:#ffffff;fill-opacity:1;fill-rule:nonzero;stroke:none" d="m 0,0 c -0.553,0 -1.087,-0.295 -1.368,-0.814 -0.099,-0.181 0.053,-0.415 0.197,-0.579 0.2,-0.228 0.526,-0.472 0.891,-0.67 0.778,-0.421 1.484,-0.518 1.641,-0.226 0.408,0.752 0.126,1.695 -0.626,2.102 C 0.5,-0.06 0.248,0 0,0 m 0.963,-2.668 c -0.386,0 -0.886,0.173 -1.343,0.42 -0.393,0.212 -0.73,0.466 -0.95,0.716 -0.341,0.388 -0.31,0.659 -0.223,0.818 0.462,0.855 1.533,1.175 2.388,0.713 C 1.69,-0.464 2.01,-1.535 1.546,-2.39 1.441,-2.586 1.229,-2.668 0.963,-2.668" /></g></g>
</svg>
