<?xml version="1.0" encoding="UTF-8" standalone="no"?>
<!-- Created with Inkscape (http://www.inkscape.org/) -->

<svg
   xmlns:dc="http://purl.org/dc/elements/1.1/"
   xmlns:cc="http://creativecommons.org/ns#"
   xmlns:rdf="http://www.w3.org/1999/02/22-rdf-syntax-ns#"
   xmlns:svg="http://www.w3.org/2000/svg"
   xmlns="http://www.w3.org/2000/svg"
   xmlns:sodipodi="http://sodipodi.sourceforge.net/DTD/sodipodi-0.dtd"
   xmlns:inkscape="http://www.inkscape.org/namespaces/inkscape"
   width="47.448582mm"
   height="5.8117309mm"
   viewBox="0 0 47.448582 5.8117309"
   version="1.1"
   id="svg852"
   inkscape:version="0.92.3 (unknown)"
   sodipodi:docname="orbit-homes-social-networks.svg">
  <defs
     id="defs846" />
  <sodipodi:namedview
     id="base"
     pagecolor="#ffffff"
     bordercolor="#666666"
     borderopacity="1.0"
     inkscape:pageopacity="0.0"
     inkscape:pageshadow="2"
     inkscape:zoom="0.35"
     inkscape:cx="1142.5238"
     inkscape:cy="-917.58863"
     inkscape:document-units="mm"
     inkscape:current-layer="layer1"
     showgrid="false"
     fit-margin-top="0"
     fit-margin-left="0"
     fit-margin-right="0"
     fit-margin-bottom="0"
     inkscape:window-width="1867"
     inkscape:window-height="1056"
     inkscape:window-x="53"
     inkscape:window-y="24"
     inkscape:window-maximized="1" />
  <metadata
     id="metadata849">
    <rdf:RDF>
      <cc:Work
         rdf:about="">
        <dc:format>image/svg+xml</dc:format>
        <dc:type
           rdf:resource="http://purl.org/dc/dcmitype/StillImage" />
        <dc:title></dc:title>
      </cc:Work>
    </rdf:RDF>
  </metadata>
  <g
     inkscape:label="Layer 1"
     inkscape:groupmode="layer"
     id="layer1"
     transform="translate(331.39691,99.757056)">
    <path
       inkscape:connector-curvature="0"
       id="path358"
       style="fill:#c8c7c7;fill-opacity:1;fill-rule:nonzero;stroke:none;stroke-width:0.03527778"
       d="m -328.52149,-94.005967 c 1.58807,0 2.87542,-1.287357 2.87542,-2.875562 0,-1.588171 -1.28735,-2.875527 -2.87542,-2.875527 -1.58806,0 -2.87542,1.287356 -2.87542,2.875527 0,1.588205 1.28736,2.875562 2.87542,2.875562" />
    <path
       inkscape:connector-curvature="0"
       id="path360"
       style="fill:#ffffff;fill-opacity:1;fill-rule:nonzero;stroke:none;stroke-width:0.03527778"
       d="m -328.61959,-93.945325 v -2.141325 h -0.72073 v -0.834708 h 0.72073 v -0.61528 c 0,-0.714375 0.43628,-1.1031 1.07332,-1.1031 0.30526,0 0.56762,0.02258 0.64396,0.03277 v 0.746477 h -0.44178 c -0.34657,0 -0.4137,0.164818 -0.4137,0.4064 v 0.53273 h 0.82641 l -0.10763,0.834708 h -0.71878 v 2.141325 h -0.8618" />
    <path
       inkscape:connector-curvature="0"
       id="path362"
       style="fill:#c8c7c7;fill-opacity:1;fill-rule:nonzero;stroke:none;stroke-width:0.03527778"
       d="m -321.57191,-94.005967 c 1.58807,0 2.87532,-1.287357 2.87532,-2.875562 0,-1.588171 -1.28725,-2.875527 -2.87532,-2.875527 -1.58806,0 -2.87542,1.287356 -2.87542,2.875527 0,1.588205 1.28736,2.875562 2.87542,2.875562" />
    <path
       inkscape:connector-curvature="0"
       id="path364"
       style="fill:#ffffff;fill-opacity:1;fill-rule:nonzero;stroke:none;stroke-width:0.03527778"
       d="m -319.3651,-98.138829 c -0.16263,0.07373 -0.33691,0.123472 -0.52007,0.145662 0.18669,-0.114265 0.33027,-0.295875 0.398,-0.512234 -0.17497,0.106257 -0.36865,0.18341 -0.57495,0.224755 -0.16524,-0.179952 -0.40048,-0.292135 -0.6609,-0.292135 -0.50009,0 -0.90551,0.414514 -0.90551,0.925759 0,0.07264 0.008,0.143193 0.0234,0.210997 -0.75244,-0.03888 -1.41969,-0.407212 -1.8663,-0.967388 -0.0779,0.136561 -0.12249,0.295593 -0.12249,0.46535 0,0.32138 0.15985,0.604696 0.4028,0.770748 -0.14841,-0.0048 -0.288,-0.0466 -0.4101,-0.116028 -1.4e-4,0.0038 -1.4e-4,0.0077 -1.4e-4,0.01171 0,0.448698 0.3121,0.822677 0.72637,0.907979 -0.0761,0.02124 -0.156,0.03253 -0.23855,0.03253 -0.0584,0 -0.11508,-0.0061 -0.17032,-0.01669 0.11518,0.367665 0.44951,0.635423 0.84568,0.642867 -0.30978,0.24832 -0.70016,0.396028 -1.12448,0.396028 -0.073,0 -0.1451,-0.0041 -0.21594,-0.01267 0.40076,0.262537 0.87659,0.416031 1.38797,0.416031 1.6655,0 2.57606,-1.410829 2.57606,-2.634262 0,-0.04022 -7.2e-4,-0.08004 -0.002,-0.119592 0.17709,-0.130528 0.33055,-0.293828 0.4519,-0.479425" />
    <path
       inkscape:connector-curvature="0"
       id="path366"
       style="fill:#c8c7c7;fill-opacity:1;fill-rule:nonzero;stroke:none;stroke-width:0.03527778"
       d="m -314.62236,-94.005967 c 1.58821,0 2.87549,-1.287357 2.87549,-2.875562 0,-1.588171 -1.28728,-2.875527 -2.87549,-2.875527 -1.58785,0 -2.87549,1.287356 -2.87549,2.875527 0,1.588205 1.28764,2.875562 2.87549,2.875562" />
    <path
       inkscape:connector-curvature="0"
       id="path368"
       style="fill:#ffffff;fill-opacity:1;fill-rule:nonzero;stroke:none;stroke-width:0.03527778"
       d="m -315.63695,-95.212855 h -0.76165 v -2.449336 h 0.76165 z m -0.381,-2.784475 c -0.24412,0 -0.44132,-0.197591 -0.44132,-0.44136 0,-0.24377 0.1972,-0.441255 0.44132,-0.441255 0.24342,0 0.44133,0.197485 0.44133,0.441255 0,0.243769 -0.19791,0.44136 -0.44133,0.44136 z m 3.2325,2.784475 h -0.76058 v -1.191048 c 0,-0.284269 -0.005,-0.649746 -0.39547,-0.649746 -0.39652,0 -0.45685,0.309386 -0.45685,0.628967 v 1.211827 h -0.76129 v -2.449336 h 0.7306 v 0.334468 h 0.0102 c 0.10196,-0.192652 0.35031,-0.395922 0.72073,-0.395922 0.77047,0 0.91264,0.5074 0.91264,1.167342 v 1.343448" />
    <path
       inkscape:connector-curvature="0"
       id="path370"
       style="fill:#c8c7c7;fill-opacity:1;fill-rule:nonzero;stroke:none;stroke-width:0.03527778"
       d="m -307.67264,-94.005967 c 1.58785,0 2.87549,-1.287357 2.87549,-2.875562 0,-1.588171 -1.28764,-2.875527 -2.87549,-2.875527 -1.5882,0 -2.87549,1.287356 -2.87549,2.875527 0,1.588205 1.28729,2.875562 2.87549,2.875562" />
    <path
       inkscape:connector-curvature="0"
       id="path372"
       style="fill:#ffffff;fill-opacity:1;fill-rule:nonzero;stroke:none;stroke-width:0.03527778"
       d="m -308.36338,-94.965628 c -0.74471,0 -1.10419,-0.35486 -1.10419,-0.736142 0,-0.185208 0.0924,-0.447745 0.39546,-0.627979 0.31821,-0.195404 0.75001,-0.221192 0.98143,-0.237032 -0.0723,-0.09246 -0.15416,-0.190571 -0.15416,-0.350026 0,-0.08707 0.0258,-0.138606 0.0512,-0.200766 -0.0568,0.0054 -0.11289,0.01062 -0.1644,0.01062 -0.54433,0 -0.85266,-0.40707 -0.85266,-0.808496 0,-0.236467 0.10795,-0.499286 0.32879,-0.689716 0.2928,-0.24197 0.69321,-0.307587 0.97084,-0.307587 h 1.01212 l -0.33408,0.209868 h -0.31821 c 0.11819,0.09772 0.36442,0.303318 0.36442,0.694972 0,0.380612 -0.21554,0.561269 -0.43109,0.730885 -0.067,0.06671 -0.14429,0.139065 -0.14429,0.252624 0,0.112854 0.0773,0.17459 0.13371,0.221157 l 0.18485,0.144003 c 0.22613,0.190183 0.43145,0.365478 0.43145,0.721008 0,0.483693 -0.46743,0.972608 -1.35114,0.972608 z m 2.73368,-2.036481 h -0.51647 v 0.517737 h -0.25435 v -0.517737 h -0.514 v -0.256857 h 0.514 v -0.514703 h 0.25435 v 0.514703 h 0.51647 v 0.256857" />
    <path
       inkscape:connector-curvature="0"
       id="path374"
       style="fill:#c8c7c7;fill-opacity:1;fill-rule:nonzero;stroke:none;stroke-width:0.03527778"
       d="m -307.63877,-97.771164 c 0,-0.37084 -0.22119,-0.947279 -0.647,-0.947279 -0.13405,0 -0.27763,0.06696 -0.35983,0.170039 -0.0875,0.108338 -0.11289,0.246556 -0.11289,0.381035 0,0.344664 0.20003,0.916129 0.64206,0.916129 0.12841,0 0.2667,-0.06174 0.34925,-0.143863 0.11818,-0.118922 0.12841,-0.283316 0.12841,-0.376061" />
    <path
       inkscape:connector-curvature="0"
       id="path376"
       style="fill:#c8c7c7;fill-opacity:1;fill-rule:nonzero;stroke:none;stroke-width:0.03527778"
       d="m -307.91641,-96.417238 c -0.0406,-0.0053 -0.0663,-0.0053 -0.11783,-0.0053 -0.0462,0 -0.32385,0.01019 -0.53939,0.08283 -0.11324,0.04092 -0.44168,0.164394 -0.44168,0.529836 0,0.365478 0.35454,0.628404 0.90382,0.628404 0.49353,0 0.75529,-0.237173 0.75529,-0.556049 0,-0.263207 -0.16933,-0.401849 -0.56021,-0.679767" />
    <path
       inkscape:connector-curvature="0"
       id="path378"
       style="fill:#c8c7c7;fill-opacity:1;fill-rule:nonzero;stroke:none;stroke-width:0.03527778"
       d="m -300.72292,-94.005967 c 1.58786,0 2.87514,-1.287357 2.87514,-2.875562 0,-1.588171 -1.28728,-2.875527 -2.87514,-2.875527 -1.5882,0 -2.87549,1.287356 -2.87549,2.875527 0,1.588205 1.28729,2.875562 2.87549,2.875562" />
    <path
       inkscape:connector-curvature="0"
       id="path380"
       style="fill:#ffffff;fill-opacity:1;fill-rule:nonzero;stroke:none;stroke-width:0.03527778"
       d="m -300.70422,-98.960166 c -1.29575,0 -1.94874,0.928969 -1.94874,1.703669 0,0.468842 0.17744,0.886108 0.55809,1.0414 0.0624,0.02575 0.11853,0.0011 0.13653,-0.06809 0.0127,-0.04794 0.0427,-0.168663 0.0557,-0.218687 0.0183,-0.06847 0.0113,-0.09246 -0.0392,-0.152118 -0.10972,-0.129399 -0.17992,-0.297391 -0.17992,-0.534846 0,-0.688869 0.51541,-1.305948 1.34232,-1.305948 0.73236,0 1.13489,0.447322 1.13489,1.044963 0,0.786306 -0.3482,1.449846 -0.86466,1.449846 -0.2854,0 -0.49883,-0.235938 -0.43039,-0.52518 0.0818,-0.345475 0.24059,-0.718361 0.24059,-0.96767 0,-0.222955 -0.11959,-0.409257 -0.36759,-0.409257 -0.29175,0 -0.52599,0.301625 -0.52599,0.705556 0,0.257527 0.0871,0.431729 0.0871,0.431729 0,0 -0.29845,1.264356 -0.35067,1.485512 -0.10442,0.440972 -0.0159,0.981851 -0.008,1.036567 0.004,0.0321 0.0459,0.03983 0.0646,0.01545 0.0268,-0.03528 0.3743,-0.463868 0.49248,-0.892422 0.0332,-0.121003 0.19156,-0.749371 0.19156,-0.749371 0.0949,0.180658 0.37183,0.339655 0.66605,0.339655 0.87665,0 1.47143,-0.798971 1.47143,-1.868594 0,-0.808919 -0.68509,-1.56217 -1.72614,-1.56217" />
    <path
       inkscape:connector-curvature="0"
       id="path382"
       style="fill:#c8c7c7;fill-opacity:1;fill-rule:nonzero;stroke:none;stroke-width:0.03527778"
       d="m -293.77355,-94.005967 c 1.58821,0 2.8755,-1.287357 2.8755,-2.875562 0,-1.588171 -1.28729,-2.875527 -2.8755,-2.875527 -1.58785,0 -2.87549,1.287356 -2.87549,2.875527 0,1.588205 1.28764,2.875562 2.87549,2.875562" />
    <path
       inkscape:connector-curvature="0"
       id="path384"
       style="fill:#ffffff;fill-opacity:1;fill-rule:nonzero;stroke:none;stroke-width:0.03527778"
       d="m -292.35997,-97.159483 h -0.31997 c 0.0233,0.0889 0.037,0.181645 0.037,0.277954 0,0.613798 -0.50623,1.111673 -1.13065,1.111673 -0.62442,0 -1.13065,-0.497875 -1.13065,-1.111673 0,-0.09631 0.0138,-0.189054 0.037,-0.277954 h -0.31997 v 1.528551 c 0,0.07659 0.0635,0.138606 0.14147,0.138606 h 2.54423 c 0.0783,0 0.14146,-0.06202 0.14146,-0.138606 z m 0,-0.972608 c 0,-0.0769 -0.0632,-0.13903 -0.14146,-0.13903 h -0.42404 c -0.078,0 -0.14111,0.06212 -0.14111,0.13903 v 0.416983 c 0,0.07648 0.0632,0.138924 0.14111,0.138924 h 0.42404 c 0.0783,0 0.14146,-0.06244 0.14146,-0.138924 z m -1.41358,0.555907 c -0.39017,0 -0.70661,0.310868 -0.70661,0.694655 0,0.383505 0.31644,0.69469 0.70661,0.69469 0.39053,0 0.70697,-0.311185 0.70697,-0.69469 0,-0.383787 -0.31644,-0.694655 -0.70697,-0.694655 m 1.41358,2.500877 h -2.82716 c -0.23389,0 -0.42368,-0.186584 -0.42368,-0.417019 v -2.778795 c 0,-0.230011 0.18979,-0.416595 0.42368,-0.416595 h 2.82716 c 0.23425,0 0.42404,0.186584 0.42404,0.416595 v 2.778795 c 0,0.230435 -0.18979,0.417019 -0.42404,0.417019" />
    <path
       inkscape:connector-curvature="0"
       id="path386"
       style="fill:#c8c7c7;fill-opacity:1;fill-rule:nonzero;stroke:none;stroke-width:0.03527778"
       d="m -286.82382,-94.005967 c 1.58785,0 2.87549,-1.287357 2.87549,-2.875562 0,-1.588171 -1.28764,-2.875527 -2.87549,-2.875527 -1.58821,0 -2.8755,1.287356 -2.8755,2.875527 0,1.588205 1.28729,2.875562 2.8755,2.875562" />
    <path
       inkscape:connector-curvature="0"
       id="path388"
       style="fill:#ffffff;fill-opacity:1;fill-rule:nonzero;stroke:none;stroke-width:0.03527778"
       d="m -284.60344,-97.776138 c 0,0 -0.0441,-0.308399 -0.17992,-0.444148 -0.17251,-0.178576 -0.36548,-0.179281 -0.45438,-0.1899 -0.63394,-0.04505 -1.58503,-0.04505 -1.58503,-0.04505 h -0.002 c 0,0 -0.95109,0 -1.58538,0.04505 -0.0885,0.01062 -0.28152,0.01132 -0.45402,0.1899 -0.13583,0.135749 -0.17992,0.444148 -0.17992,0.444148 0,0 -0.0455,0.361879 -0.0455,0.724288 v 0.339266 c 0,0.362303 0.0455,0.724323 0.0455,0.724323 0,0 0.0441,0.308258 0.17992,0.444148 0.1725,0.178435 0.39899,0.17279 0.49988,0.191523 0.3623,0.03418 1.54058,0.0448 1.54058,0.0448 0,0 0.95215,-0.0014 1.58609,-0.0466 0.0889,-0.01058 0.28187,-0.01129 0.45438,-0.189724 0.13582,-0.13589 0.17992,-0.444148 0.17992,-0.444148 0,0 0.0452,-0.36202 0.0452,-0.724323 v -0.339266 c 0,-0.362409 -0.0452,-0.724288 -0.0452,-0.724288" />
    <path
       inkscape:connector-curvature="0"
       id="path390"
       style="fill:#c8c7c7;fill-opacity:1;fill-rule:nonzero;stroke:none;stroke-width:0.03527778"
       d="m -287.29161,-96.30121 -2.6e-4,-1.257335 1.22449,0.631155 -1.22414,0.62618" />
  </g>
</svg>
