<?xml version="1.0" encoding="UTF-8" standalone="no"?>
<!-- Created with Inkscape (http://www.inkscape.org/) -->

<svg
   xmlns:dc="http://purl.org/dc/elements/1.1/"
   xmlns:cc="http://creativecommons.org/ns#"
   xmlns:rdf="http://www.w3.org/1999/02/22-rdf-syntax-ns#"
   xmlns:svg="http://www.w3.org/2000/svg"
   xmlns="http://www.w3.org/2000/svg"
   xmlns:sodipodi="http://sodipodi.sourceforge.net/DTD/sodipodi-0.dtd"
   xmlns:inkscape="http://www.inkscape.org/namespaces/inkscape"
   width="5.5375404mm"
   height="5.0970502mm"
   viewBox="0 0 5.5375404 5.0970502"
   version="1.1"
   id="svg712"
   inkscape:version="0.92.3 (unknown)">
  <defs
     id="defs706" />
  <sodipodi:namedview
     id="base"
     pagecolor="#ffffff"
     bordercolor="#666666"
     borderopacity="1.0"
     inkscape:pageopacity="0.0"
     inkscape:pageshadow="2"
     inkscape:zoom="3.959798"
     inkscape:cx="-32.160037"
     inkscape:cy="-21.92466"
     inkscape:document-units="mm"
     inkscape:current-layer="layer1"
     showgrid="false"
     fit-margin-top="0"
     fit-margin-left="0"
     fit-margin-right="0"
     fit-margin-bottom="0"
     inkscape:window-width="1867"
     inkscape:window-height="1056"
     inkscape:window-x="53"
     inkscape:window-y="24"
     inkscape:window-maximized="1" />
  <metadata
     id="metadata709">
    <rdf:RDF>
      <cc:Work
         rdf:about="">
        <dc:format>image/svg+xml</dc:format>
        <dc:type
           rdf:resource="http://purl.org/dc/dcmitype/StillImage" />
        <dc:title></dc:title>
      </cc:Work>
    </rdf:RDF>
  </metadata>
  <g
     inkscape:label="Layer 1"
     inkscape:groupmode="layer"
     id="layer1"
     transform="translate(-47.124242,-64.64219)">
    <path
       inkscape:connector-curvature="0"
       id="path224"
       style="fill:#231f20;fill-opacity:1;fill-rule:nonzero;stroke:none;stroke-width:0.03527778"
       d="m 52.083357,66.04166 h -4.3815 c 0,-0.77329 0.60149,-1.39947 1.34303,-1.39947 h 1.6958 c 0.74154,0 1.34267,0.62618 1.34267,1.39947" />
    <path
       inkscape:connector-curvature="0"
       id="path226"
       style="fill:#231f20;fill-opacity:1;fill-rule:nonzero;stroke:none;stroke-width:0.03527778"
       d="m 50.116627,66.6001 v -0.002 c 0,-0.12841 -0.0998,-0.23177 -0.22367,-0.23177 -0.12417,0 -0.22401,0.10548 -0.22401,0.23424 0,0.12912 0.0998,0.23319 0.22401,0.23319 0.12383,0 0.22367,-0.10442 0.22367,-0.23319" />
    <path
       inkscape:connector-curvature="0"
       id="path228"
       style="fill:#231f20;fill-opacity:1;fill-rule:nonzero;stroke:none;stroke-width:0.03527778"
       d="m 50.116627,68.53897 v -0.005 c 0,-0.12912 -0.0998,-0.23107 -0.22367,-0.23107 -0.12417,0 -0.22401,0.10689 -0.22401,0.23601 0,0.12876 0.0998,0.23318 0.22401,0.23318 0.12383,0 0.22367,-0.10442 0.22367,-0.23318" />
    <path
       inkscape:connector-curvature="0"
       id="path230"
       style="fill:#231f20;fill-opacity:1;fill-rule:nonzero;stroke:none;stroke-width:0.03527778"
       d="m 50.116627,67.56989 v -0.005 c 0,-0.12877 -0.0998,-0.23037 -0.22367,-0.23037 -0.12417,0 -0.22401,0.10654 -0.22401,0.23566 0,0.12876 0.0998,0.23319 0.22401,0.23319 0.12383,0 0.22367,-0.10443 0.22367,-0.23319" />
    <path
       inkscape:connector-curvature="0"
       id="path232"
       style="fill:#231f20;fill-opacity:1;fill-rule:nonzero;stroke:none;stroke-width:0.03527778"
       d="m 50.116627,69.50558 v -0.002 c 0,-0.12912 -0.0998,-0.23248 -0.22367,-0.23248 -0.12417,0 -0.22401,0.10619 -0.22401,0.23495 0,0.12912 0.0998,0.23319 0.22401,0.23319 0.12383,0 0.22367,-0.10443 0.22367,-0.23319" />
    <path
       inkscape:connector-curvature="0"
       id="path234"
       style="fill:#231f20;fill-opacity:1;fill-rule:nonzero;stroke:none;stroke-width:0.03527778"
       d="m 52.520807,69.46007 c 0.11535,-0.0483 0.17074,-0.1838 0.12488,-0.30339 l -0.002,-0.004 c -0.0452,-0.11994 -0.17498,-0.17674 -0.28963,-0.12735 -0.11536,0.0476 -0.16969,0.18556 -0.12383,0.3048 0.0349,0.0914 0.11889,0.14711 0.20779,0.14711 0.0272,0 0.0557,-0.006 0.0825,-0.0169" />
    <path
       inkscape:connector-curvature="0"
       id="path236"
       style="fill:#231f20;fill-opacity:1;fill-rule:nonzero;stroke:none;stroke-width:0.03527778"
       d="m 52.212117,68.57954 c 0.11501,-0.0476 0.1704,-0.18345 0.12489,-0.30268 l -0.002,-0.005 c -0.0462,-0.1196 -0.17604,-0.17745 -0.28999,-0.12736 -0.115,0.0476 -0.16968,0.18556 -0.12347,0.3048 0.0346,0.0914 0.11853,0.14711 0.20743,0.14711 0.0275,0 0.0561,-0.006 0.0829,-0.0169" />
    <path
       inkscape:connector-curvature="0"
       id="path238"
       style="fill:#231f20;fill-opacity:1;fill-rule:nonzero;stroke:none;stroke-width:0.03527778"
       d="m 51.884387,67.70606 c 0.11854,-0.037 0.18557,-0.16686 0.14993,-0.29034 l -0.001,-0.004 c -0.0356,-0.12347 -0.1591,-0.19085 -0.27834,-0.15416 -0.11782,0.037 -0.18485,0.16898 -0.14887,0.29245 0.0286,0.10125 0.11783,0.16616 0.21414,0.16616 0.0212,0 0.0427,-0.003 0.0642,-0.01" />
    <path
       inkscape:connector-curvature="0"
       id="path240"
       style="fill:#231f20;fill-opacity:1;fill-rule:nonzero;stroke:none;stroke-width:0.03527778"
       d="m 51.594407,66.81847 c 0.11501,-0.0476 0.17039,-0.18344 0.12488,-0.30268 l -0.002,-0.004 c -0.0459,-0.1196 -0.17568,-0.1771 -0.28998,-0.12806 -0.11501,0.048 -0.16969,0.18626 -0.12347,0.3055 0.0349,0.0907 0.11888,0.14641 0.20743,0.14641 0.0275,0 0.0561,-0.005 0.0829,-0.0169" />
    <path
       inkscape:connector-curvature="0"
       id="path242"
       style="fill:#231f20;fill-opacity:1;fill-rule:nonzero;stroke:none;stroke-width:0.03527778"
       d="m 51.202467,69.60965 c 0.12171,-0.0251 0.20038,-0.14817 0.17604,-0.27446 l -10e-4,-0.004 c -0.0243,-0.12665 -0.14287,-0.20709 -0.26246,-0.18063 -0.12171,0.0247 -0.20003,0.15029 -0.17533,0.27623 0.0215,0.11112 0.11465,0.18768 0.21872,0.18768 0.0148,3.4e-4 0.03,-10e-4 0.0441,-0.005" />
    <path
       inkscape:connector-curvature="0"
       id="path244"
       style="fill:#231f20;fill-opacity:1;fill-rule:nonzero;stroke:none;stroke-width:0.03527778"
       d="m 51.042667,68.68714 c 0.12312,-0.0127 0.21272,-0.127 0.20037,-0.25542 l -3.4e-4,-0.005 c -0.012,-0.1277 -0.12135,-0.22118 -0.24447,-0.20601 -0.12348,0.0127 -0.21308,0.12911 -0.20038,0.25752 0.0116,0.11995 0.10901,0.20991 0.22225,0.20991 0.007,0 0.0152,-3.5e-4 0.0226,-0.001" />
    <path
       inkscape:connector-curvature="0"
       id="path246"
       style="fill:#231f20;fill-opacity:1;fill-rule:nonzero;stroke:none;stroke-width:0.03527778"
       d="m 50.926247,67.75757 c 0.121,-0.0254 0.19967,-0.14817 0.17533,-0.27446 l -7.1e-4,-0.005 c -0.024,-0.1263 -0.14252,-0.20602 -0.26281,-0.18062 -0.12136,0.025 -0.19932,0.14993 -0.17498,0.27657 0.0212,0.11113 0.1143,0.18733 0.21837,0.18733 0.0152,0 0.03,-0.001 0.0448,-0.004" />
    <path
       inkscape:connector-curvature="0"
       id="path248"
       style="fill:#231f20;fill-opacity:1;fill-rule:nonzero;stroke:none;stroke-width:0.03527778"
       d="m 50.787607,66.83082 c 0.12171,-0.0247 0.20038,-0.14746 0.17603,-0.27411 l -7.1e-4,-0.004 c -0.0243,-0.12665 -0.14464,-0.20708 -0.26282,-0.18098 -0.12171,0.025 -0.20002,0.14993 -0.17498,0.27658 0.0212,0.11077 0.1143,0.18733 0.21837,0.18733 0.0152,0 0.03,-0.001 0.0441,-0.005" />
    <path
       inkscape:connector-curvature="0"
       id="path250"
       style="fill:#231f20;fill-opacity:1;fill-rule:nonzero;stroke:none;stroke-width:0.03527778"
       d="m 47.555107,69.3299 0.002,-0.005 c 0.0462,-0.11889 -0.0102,-0.25259 -0.12559,-0.30021 -0.11324,-0.048 -0.24553,0.012 -0.29139,0.13158 -0.0455,0.11924 0.01,0.25506 0.12488,0.30339 0.0268,0.0109 0.0554,0.0169 0.0829,0.0169 0.0885,0 0.17251,-0.0557 0.20744,-0.1471" />
    <path
       inkscape:connector-curvature="0"
       id="path252"
       style="fill:#231f20;fill-opacity:1;fill-rule:nonzero;stroke:none;stroke-width:0.03527778"
       d="m 47.863787,68.44936 0.002,-0.004 c 0.0462,-0.11924 -0.0102,-0.25294 -0.12524,-0.30057 -0.11359,-0.048 -0.24553,0.012 -0.29139,0.1323 -0.0459,0.11923 0.01,0.25505 0.12453,0.30268 0.0268,0.0116 0.0554,0.0169 0.0829,0.0169 0.0889,0 0.17286,-0.0557 0.20744,-0.14711" />
    <path
       inkscape:connector-curvature="0"
       id="path254"
       style="fill:#231f20;fill-opacity:1;fill-rule:nonzero;stroke:none;stroke-width:0.03527778"
       d="m 48.179517,67.54978 0.001,-0.005 c 0.036,-0.12347 -0.0325,-0.25082 -0.15028,-0.28786 -0.12065,-0.0392 -0.24448,0.0349 -0.2794,0.1584 -0.0356,0.12347 0.0314,0.25329 0.14993,0.29033 0.0215,0.007 0.043,0.01 0.0646,0.01 0.0959,0 0.18521,-0.0649 0.21378,-0.16616" />
    <path
       inkscape:connector-curvature="0"
       id="path256"
       style="fill:#231f20;fill-opacity:1;fill-rule:nonzero;stroke:none;stroke-width:0.03527778"
       d="m 48.481497,66.689 0.002,-0.004 c 0.0462,-0.11995 -0.0102,-0.25294 -0.12523,-0.30127 -0.11254,-0.048 -0.24553,0.0127 -0.29175,0.13229 -0.0455,0.11924 0.01,0.25506 0.12488,0.30268 0.0268,0.0116 0.0554,0.0169 0.0829,0.0169 0.0889,0 0.17251,-0.0557 0.20743,-0.1464" />
    <path
       inkscape:connector-curvature="0"
       id="path258"
       style="fill:#231f20;fill-opacity:1;fill-rule:nonzero;stroke:none;stroke-width:0.03527778"
       d="m 48.845917,69.42656 10e-4,-0.004 c 0.0243,-0.12665 -0.0547,-0.2473 -0.17639,-0.27199 -0.12065,-0.0261 -0.23883,0.0586 -0.26388,0.18485 -0.0243,0.12665 0.0543,0.24942 0.17604,0.27446 0.0141,0.004 0.0293,0.005 0.0441,0.005 0.10407,0 0.1972,-0.0769 0.21872,-0.18803" />
    <path
       inkscape:connector-curvature="0"
       id="path260"
       style="fill:#231f20;fill-opacity:1;fill-rule:nonzero;stroke:none;stroke-width:0.03527778"
       d="m 48.987737,68.47829 3.5e-4,-0.004 c 0.0127,-0.12841 -0.0773,-0.2406 -0.20073,-0.25294 -0.12277,-0.0152 -0.23248,0.0829 -0.24483,0.2106 -0.0123,0.12842 0.0773,0.24272 0.20038,0.25542 0.007,0.001 0.0155,0.001 0.0226,0.001 0.11324,0 0.2106,-0.09 0.22225,-0.21026" />
    <path
       inkscape:connector-curvature="0"
       id="path262"
       style="fill:#231f20;fill-opacity:1;fill-rule:nonzero;stroke:none;stroke-width:0.03527778"
       d="m 49.122847,67.57447 7.1e-4,-0.005 c 0.0243,-0.12629 -0.0547,-0.24694 -0.17604,-0.27198 -0.11889,-0.0275 -0.23918,0.0589 -0.26352,0.18521 -0.0243,0.12629 0.0543,0.24906 0.17568,0.27446 0.0145,0.003 0.0293,0.004 0.0445,0.004 0.10407,0 0.1972,-0.0762 0.21872,-0.18733" />
    <path
       inkscape:connector-curvature="0"
       id="path264"
       style="fill:#231f20;fill-opacity:1;fill-rule:nonzero;stroke:none;stroke-width:0.03527778"
       d="m 49.260787,66.64808 10e-4,-0.005 c 0.0243,-0.12594 -0.0547,-0.24659 -0.17639,-0.27164 -0.11889,-0.0261 -0.23919,0.0593 -0.26353,0.18521 -0.0243,0.12665 0.0543,0.24941 0.17604,0.27411 0.0141,0.003 0.0289,0.005 0.0441,0.005 0.10407,0 0.19721,-0.0765 0.21873,-0.18733" />
  </g>
</svg>
