<?xml version="1.0" encoding="UTF-8" standalone="no"?>
<!-- Created with Inkscape (http://www.inkscape.org/) -->

<svg
   xmlns:dc="http://purl.org/dc/elements/1.1/"
   xmlns:cc="http://creativecommons.org/ns#"
   xmlns:rdf="http://www.w3.org/1999/02/22-rdf-syntax-ns#"
   xmlns:svg="http://www.w3.org/2000/svg"
   xmlns="http://www.w3.org/2000/svg"
   xmlns:sodipodi="http://sodipodi.sourceforge.net/DTD/sodipodi-0.dtd"
   xmlns:inkscape="http://www.inkscape.org/namespaces/inkscape"
   width="6.3175449mm"
   height="5.0964966mm"
   viewBox="0 0 6.3175449 5.0964966"
   version="1.1"
   id="svg794"
   inkscape:version="0.92.3 (unknown)">
  <defs
     id="defs788" />
  <sodipodi:namedview
     id="base"
     pagecolor="#ffffff"
     bordercolor="#666666"
     borderopacity="1.0"
     inkscape:pageopacity="0.0"
     inkscape:pageshadow="2"
     inkscape:zoom="0.35"
     inkscape:cx="-155.20419"
     inkscape:cy="-793.22597"
     inkscape:document-units="mm"
     inkscape:current-layer="layer1"
     showgrid="false"
     fit-margin-top="0"
     fit-margin-left="0"
     fit-margin-right="0"
     fit-margin-bottom="0"
     inkscape:window-width="1867"
     inkscape:window-height="1056"
     inkscape:window-x="53"
     inkscape:window-y="24"
     inkscape:window-maximized="1" />
  <metadata
     id="metadata791">
    <rdf:RDF>
      <cc:Work
         rdf:about="">
        <dc:format>image/svg+xml</dc:format>
        <dc:type
           rdf:resource="http://purl.org/dc/dcmitype/StillImage" />
        <dc:title></dc:title>
      </cc:Work>
    </rdf:RDF>
  </metadata>
  <g
     inkscape:label="Layer 1"
     inkscape:groupmode="layer"
     id="layer1"
     transform="translate(-11.960275,66.137534)">
    <path
       inkscape:connector-curvature="0"
       id="path286"
       style="fill:#231f20;fill-opacity:1;fill-rule:nonzero;stroke:none;stroke-width:0.03527778"
       d="m 17.704556,-64.389167 -0.517877,-1.289756 c -0.09701,-0.246944 -0.308681,-0.456847 -0.709084,-0.458611 h -2.721327 c -0.398992,0.0018 -0.610659,0.211667 -0.709084,0.458611 l -0.517878,1.289756 c -0.205669,0.02575 -0.569736,0.258586 -0.56903,0.700263 v 1.641828 h 0.505178 v 0.524228 c -0.0011,0.646289 0.947208,0.638528 0.946855,0 v -0.524228 h 3.409245 v 0.524228 c 0.0021,0.638528 0.95003,0.646289 0.950736,0 v -0.524228 h 0.50553 v -1.641828 c -0.0018,-0.441677 -0.36583,-0.674511 -0.573264,-0.700263 z m -4.750858,1.351138 c -0.242005,7.06e-4 -0.43815,-0.194027 -0.437092,-0.433563 -0.0011,-0.2413 0.195087,-0.436387 0.437092,-0.434623 0.241653,-0.0018 0.437797,0.193323 0.437445,0.434623 3.51e-4,0.239536 -0.196145,0.434269 -0.437445,0.433563 z m 2.16535,-1.363133 h -2.050697 l 0.390525,-1.015647 c 0.04727,-0.144286 0.120297,-0.247297 0.293158,-0.249767 h 2.734028 c 0.170039,0.0025 0.243417,0.105481 0.292805,0.249767 l 0.390878,1.015647 z m 2.16535,1.363133 c -0.244122,7.15e-4 -0.440267,-0.194027 -0.441678,-0.433563 0.0014,-0.2413 0.197556,-0.436387 0.441678,-0.434623 0.239536,-0.0018 0.435681,0.193323 0.437092,0.434623 -0.0014,0.239536 -0.197556,0.434269 -0.437092,0.433563" />
  </g>
</svg>
