<?xml version="1.0" encoding="UTF-8" standalone="no"?>
<!-- Created with Inkscape (http://www.inkscape.org/) -->

<svg
   xmlns:dc="http://purl.org/dc/elements/1.1/"
   xmlns:cc="http://creativecommons.org/ns#"
   xmlns:rdf="http://www.w3.org/1999/02/22-rdf-syntax-ns#"
   xmlns:svg="http://www.w3.org/2000/svg"
   xmlns="http://www.w3.org/2000/svg"
   xmlns:sodipodi="http://sodipodi.sourceforge.net/DTD/sodipodi-0.dtd"
   xmlns:inkscape="http://www.inkscape.org/namespaces/inkscape"
   width="9.3149633mm"
   height="4.748796mm"
   viewBox="0 0 9.3149633 4.748796"
   version="1.1"
   id="svg4871"
   inkscape:version="0.92.3 (2405546, 2018-03-11)"
   sodipodi:docname="cars.svg">
  <defs
     id="defs4865" />
  <sodipodi:namedview
     id="base"
     pagecolor="#ffffff"
     bordercolor="#666666"
     borderopacity="1.0"
     inkscape:pageopacity="0.0"
     inkscape:pageshadow="2"
     inkscape:zoom="0.35"
     inkscape:cx="777.60323"
     inkscape:cy="194.68852"
     inkscape:document-units="mm"
     inkscape:current-layer="layer1"
     showgrid="false"
     fit-margin-top="0"
     fit-margin-left="0"
     fit-margin-right="0"
     fit-margin-bottom="0"
     inkscape:window-width="1855"
     inkscape:window-height="1056"
     inkscape:window-x="65"
     inkscape:window-y="24"
     inkscape:window-maximized="1" />
  <metadata
     id="metadata4868">
    <rdf:RDF>
      <cc:Work
         rdf:about="">
        <dc:format>image/svg+xml</dc:format>
        <dc:type
           rdf:resource="http://purl.org/dc/dcmitype/StillImage" />
        <dc:title></dc:title>
      </cc:Work>
    </rdf:RDF>
  </metadata>
  <g
     inkscape:label="Layer 1"
     inkscape:groupmode="layer"
     id="layer1"
     transform="translate(99.907522,-195.59588)">
    <path
       d="m -93.525058,199.46514 c -1.054453,0.003 -2.191103,0.003 -3.245556,3.5e-4 -0.0702,-3.5e-4 -0.09878,0.0201 -0.122766,0.0864 m -1.950156,-0.28469 c -7.06e-4,-0.0148 -0.0035,-0.0296 -0.0071,-0.055 -0.05856,0 -0.107597,0 -0.156633,0 -0.237415,-3.4e-4 -0.402868,-0.10795 -0.48189,-0.33655 -0.0949,-0.27305 -0.186973,-0.54821 -0.261409,-0.82726 -0.05786,-0.21696 -0.02575,-0.41839 0.137231,-0.60078 0.414514,-0.46461 0.815269,-0.94156 1.224492,-1.41111 0.06632,-0.0762 0.143227,-0.14429 0.22225,-0.20779 0.08572,-0.0691 0.186972,-0.10089 0.300213,-0.10054 0.968023,0.001 1.935692,0.001 2.903714,3.5e-4 0.270228,-3.5e-4 0.481895,0.10901 0.639586,0.32562 0.254353,0.34889 0.509412,0.69673 0.760942,1.04704 0.0695,0.0967 0.158397,0.15099 0.273756,0.17004 0.729191,0.11994 1.458383,0.23989 2.187222,0.3623 0.250119,0.0416 0.412397,0.27834 0.369711,0.53058 -0.03881,0.22754 -0.07655,0.45579 -0.116769,0.68298 -0.03986,0.22613 -0.225073,0.37994 -0.454025,0.38029 -0.06456,0 -0.129117,0 -0.197909,0 m -5.33788,-0.019 c 0,0.55457 -0.449439,1.00401 -1.004006,1.00401 -0.554214,0 -1.003653,-0.44944 -1.003653,-1.00401 0,-0.55492 0.449439,-1.00436 1.003653,-1.00436 0.554567,0 1.004006,0.44944 1.004006,1.00436 z m 5.351639,0 c 0,0.55457 -0.449439,1.00401 -1.004006,1.00401 -0.554214,0 -1.003653,-0.44944 -1.003653,-1.00401 0,-0.55492 0.449439,-1.00436 1.003653,-1.00436 0.554567,0 1.004006,0.44944 1.004006,1.00436 z"
       style="fill:none;stroke:#1a2848;stroke-width:0.26458332;stroke-linecap:round;stroke-linejoin:round;stroke-miterlimit:10;stroke-dasharray:none;stroke-opacity:1"
       id="path3842"
       inkscape:connector-curvature="0" />
    <path
       d="m -97.878689,197.22395 h 3.321756"
       style="fill:none;stroke:#1a2848;stroke-width:0.26458332;stroke-linecap:round;stroke-linejoin:round;stroke-miterlimit:10;stroke-dasharray:none;stroke-opacity:1"
       id="path3844"
       inkscape:connector-curvature="0" />
  </g>
</svg>
