<?xml version="1.0" encoding="UTF-8"?>
<svg width="25px" height="26px" viewBox="0 0 25 26" version="1.1" xmlns="http://www.w3.org/2000/svg" xmlns:xlink="http://www.w3.org/1999/xlink">
    <g id="Address-Book" stroke="none" stroke-width="1" fill="none" fill-rule="evenodd">
        <rect id="Rectangle" stroke="#323337" stroke-width="0.75" fill-rule="nonzero" x="4.375" y="2.375" width="18.25" height="21.25"></rect>
        <g id="Page-1" transform="translate(8.000000, 8.000000)" stroke="#323337" stroke-width="0.75">
            <path d="M5.50090702,10.3721259 C3.89966097,10.3721259 2.29837679,10.372165 0.697054471,10.3720867 C0.257227557,10.3720867 -0.0112674398,10.1058315 0.000363148763,9.65632287 C0.0326618652,8.40577985 0.546200017,7.40416416 1.52061454,6.65843826 C2.1473698,6.17873291 2.86328019,5.9400928 3.64436002,5.93500786 C4.88662128,5.92691108 6.12899693,5.92393834 7.37114379,5.93500786 C9.12229097,5.95073206 10.608337,7.23170649 10.9335359,8.99770589 C10.9769313,9.23325592 10.9920701,9.47612044 10.9996586,9.71624692 C11.0108698,10.069924 10.7445865,10.3512385 10.4000923,10.3708351 C10.3652386,10.3728299 10.3302325,10.3720867 10.2952644,10.3720867 C8.69714529,10.3721259 7.09902615,10.3721259 5.50090702,10.3721259 Z" id="Stroke-1"></path>
            <path d="M7.51876638,2.23831289 C7.51876638,2.45044122 7.52845298,2.66306045 7.51674703,2.87454449 C7.49324046,3.29834094 7.3149376,3.65893456 7.0043669,3.95417769 C6.64246037,4.29829562 6.20454401,4.46394226 5.69787487,4.44261898 C4.96614216,4.41184595 4.30565486,3.89505543 4.12094685,3.20335261 C4.08049662,3.05194194 4.06298502,2.89157243 4.05907251,2.73473123 C4.05023783,2.38214535 4.05108974,2.02912993 4.05799973,1.676452 C4.07087313,1.0208607 4.38652377,0.52910586 4.9686979,0.219258586 C5.57011903,-0.100805456 6.18365629,-0.0678233961 6.75242064,0.30093137 C7.26855551,0.635599561 7.51942898,1.1267101 7.52548705,1.73210731 C7.52719089,1.90082205 7.52573947,2.06956747 7.52573947,2.23831289 C7.52340459,2.23831289 7.52106971,2.23831289 7.51876638,2.23831289 Z" id="Stroke-3"></path>
        </g>
        <path d="M2.33333333,5.5 L4,5.5" id="Line-2" stroke="#323337" stroke-width="0.75" stroke-linecap="square" fill-rule="nonzero"></path>
        <path d="M2.53981068,9.39014802 L4.2159046,9.39014802" id="Line-2-Copy" stroke="#323337" stroke-width="0.75" stroke-linecap="square" fill-rule="nonzero"></path>
        <path d="M2.53981068,13.042611 L4.2159046,13.042611" id="Line-2-Copy-2" stroke="#323337" stroke-width="0.75" stroke-linecap="square" fill-rule="nonzero"></path>
        <path d="M2.33333333,20.5 L4,20.5" id="Line-2-Copy-3" stroke="#323337" stroke-width="0.75" stroke-linecap="square" fill-rule="nonzero"></path>
        <path d="M2.47663651,16.695074 L4.2159046,16.695074" id="Line-2-Copy-4" stroke="#323337" stroke-width="0.75" stroke-linecap="square" fill-rule="nonzero"></path>
    </g>
</svg>