<?xml version="1.0" encoding="UTF-8"?>
<svg width="22px" height="23px" viewBox="0 0 22 23" version="1.1" xmlns="http://www.w3.org/2000/svg" xmlns:xlink="http://www.w3.org/1999/xlink">
    <g id="Icon---Bathroom-(Small)" stroke="none" stroke-width="1" fill="none" fill-rule="evenodd" stroke-linecap="round" stroke-linejoin="round">
        <g id="Icon---Bath-(Small)" transform="translate(1.000000, 1.000000)" stroke="#323337" stroke-width="0.75">
            <path d="M4.02856556,19.1791294 L4.02856556,21.2679808 L4.02856556,19.1791294 Z M16.6841514,19.1791294 L16.6841514,21.2679808 L16.6841514,19.1791294 Z M14.491146,2.75618948 C14.491146,1.2335643 15.6579013,8.8817842e-15 17.0966747,8.8817842e-15 C18.5354481,8.8817842e-15 19.7010794,1.2335643 19.7010794,2.75618948 L19.7010794,9.18571218 M13.09059,3.12495026 L15.891702,3.12495026 L13.09059,3.12495026 Z M8.70414851e-14,9.10958092 L19.7010794,9.10958092 L19.7010794,15.3987366 C19.7010794,17.3745807 18.1881192,18.9757162 16.3210859,18.9757162 L3.37999348,18.9757162 C1.51296017,18.9757162 8.70414851e-14,17.3745807 8.70414851e-14,15.3987366 L8.70414851e-14,9.10958092 Z" id="Stroke-1"></path>
        </g>
    </g>
</svg>