<?xml version="1.0" encoding="UTF-8"?>
<svg width="26px" height="23px" viewBox="0 0 26 23" version="1.1" xmlns="http://www.w3.org/2000/svg" xmlns:xlink="http://www.w3.org/1999/xlink">
    <g id="Icon---Bedroom-(Small)" stroke="none" stroke-width="1" fill="none" fill-rule="evenodd" stroke-linecap="round" stroke-linejoin="round">
        <g id="Group-5" transform="translate(1.000000, 6.000000)" stroke="#323337" stroke-width="0.75">
            <polyline id="Stroke-1" points="24.1999601 13.1880704 24.1999601 0 5.99912991 0 0 0 0 13.1880704"></polyline>
            <path d="M24.1999601,13.6126743 L0,13.6126743 L0,9.34551072 C0,7.591115 1.3775913,6.16837507 3.0775758,6.16837507 L21.1223843,6.16837507 C22.8223688,6.16837507 24.1999601,7.591115 24.1999601,9.34551072 L24.1999601,13.6126743 Z" id="Path"></path>
            <path d="M10.4250705,6.09625468 L4.20851071,6.09625468 C3.68858769,6.09625468 3.26691785,5.49284746 3.26691785,4.7488405 C3.26691785,4.00483353 3.68858769,3.40142631 4.20851071,3.40142631 L10.4250705,3.40142631 C10.9439701,3.40142631 11.3656399,4.00483353 11.3656399,4.7488405 C11.3656399,5.49284746 10.9439701,6.09625468 10.4250705,6.09625468 Z" id="Path"></path>
            <path d="M19.9924728,6.09625468 L13.775913,6.09625468 C13.25599,6.09625468 12.8343201,5.49284746 12.8343201,4.7488405 C12.8343201,4.00483353 13.25599,3.40142631 13.775913,3.40142631 L19.9924728,3.40142631 C20.5113724,3.40142631 20.9330422,4.00483353 20.9330422,4.7488405 C20.9330422,5.49284746 20.5113724,6.09625468 19.9924728,6.09625468 Z" id="Path"></path>
            <path d="M3.07041151,13.7309719 L3.07041151,16.1317795" id="Path"></path>
            <path d="M21.3680172,13.7309719 L21.3680172,16.1317795" id="Path"></path>
        </g>
    </g>
</svg>