<?xml version="1.0" encoding="UTF-8" standalone="yes"?>
<svg xmlns="http://www.w3.org/2000/svg" viewBox="0 0 16 16" width="16" height="16" fill="#000000">
  <path d="M 3.5 2 C 2.6774686 2 2 2.6774686 2 3.5 L 2 12.5 C 2 13.322531 2.6774686 14 3.5 14 L 4 14 L 4 13 L 3.5 13 C 3.2185314 13 3 12.781469 3 12.5 L 3 3.5 C 3 3.2185314 3.2185314 3 3.5 3 L 11.5 3 C 11.781469 3 12 3.2185314 12 3.5 L 12 4 L 13 4 L 13 3.5 C 13 2.6774686 12.322531 2 11.5 2 L 3.5 2 z M 4.5 4 A 0.5 0.5 0 0 0 4 4.5 A 0.5 0.5 0 0 0 4.5 5 A 0.5 0.5 0 0 0 5 4.5 A 0.5 0.5 0 0 0 4.5 4 z M 6.5 4 A 0.5 0.5 0 0 0 6 4.5 A 0.5 0.5 0 0 0 6.5 5 A 0.5 0.5 0 0 0 7 4.5 A 0.5 0.5 0 0 0 6.5 4 z M 8.5 4 A 0.5 0.5 0 0 0 8 4.5 A 0.5 0.5 0 0 0 8.5 5 A 0.5 0.5 0 0 0 9 4.5 A 0.5 0.5 0 0 0 8.5 4 z M 10.5 4 A 0.5 0.5 0 0 0 10 4.5 A 0.5 0.5 0 0 0 10.5 5 A 0.5 0.5 0 0 0 11 4.5 A 0.5 0.5 0 0 0 10.5 4 z M 12.492188 5 A 0.50005 0.50005 0 0 0 12.146484 5.1464844 L 5.1464844 12.146484 A 0.50005 0.50005 0 0 0 5.1464844 12.853516 L 8.1445312 15.851562 A 0.50005 0.50005 0 0 0 8.8515625 15.851562 L 15.851562 8.8515625 A 0.50005 0.50005 0 0 0 15.851562 8.1445312 L 12.853516 5.1464844 A 0.50005 0.50005 0 0 0 12.492188 5 z M 4.5 6 A 0.5 0.5 0 0 0 4 6.5 A 0.5 0.5 0 0 0 4.5 7 A 0.5 0.5 0 0 0 5 6.5 A 0.5 0.5 0 0 0 4.5 6 z M 6.5 6 A 0.5 0.5 0 0 0 6 6.5 A 0.5 0.5 0 0 0 6.5 7 A 0.5 0.5 0 0 0 7 6.5 A 0.5 0.5 0 0 0 6.5 6 z M 8.5 6 A 0.5 0.5 0 0 0 8.0019531 6.4492188 A 0.5 0.5 0 0 0 8 6.5 A 0.5 0.5 0 0 0 8.4003906 6.9902344 A 0.5 0.5 0 0 0 8.5 7 A 0.5 0.5 0 0 0 9 6.5 A 0.5 0.5 0 0 0 8.5 6 z M 12.5 6.2070312 L 14.791016 8.4980469 L 8.4980469 14.791016 L 6.2070312 12.5 L 7 11.707031 L 8.2714844 12.978516 L 8.9785156 12.271484 L 7.7070312 11 L 9 9.7070312 L 10.271484 10.978516 L 10.978516 10.271484 L 9.7070312 9 L 11 7.7070312 L 12.146484 8.8535156 L 12.853516 8.1464844 L 11.707031 7 L 12.5 6.2070312 z M 4.5 8 A 0.5 0.5 0 0 0 4 8.5 A 0.5 0.5 0 0 0 4.5 9 A 0.5 0.5 0 0 0 5 8.5 A 0.5 0.5 0 0 0 4.5 8 z M 6.5 8 A 0.5 0.5 0 0 0 6 8.5 A 0.5 0.5 0 0 0 6.5 9 A 0.5 0.5 0 0 0 7 8.5 A 0.5 0.5 0 0 0 6.5 8 z M 4.5 10 A 0.5 0.5 0 0 0 4 10.5 A 0.5 0.5 0 0 0 4.5 11 A 0.5 0.5 0 0 0 5 10.5 A 0.5 0.5 0 0 0 4.5 10 z"/>
</svg>
