<?xml version="1.0" encoding="UTF-8"?>
<svg width="32px" height="23px" viewBox="0 0 32 23" version="1.1" xmlns="http://www.w3.org/2000/svg" xmlns:xlink="http://www.w3.org/1999/xlink">
    <g id="Icon---Carpark-(small)" stroke="none" stroke-width="1" fill="none" fill-rule="evenodd">
        <g id="Group-9" transform="translate(0.000000, 8.000000)" stroke="#323337" stroke-width="0.75">
            <path d="M3.61849278,11.8633836 L3.092379,11.8633836 C2.29491374,11.8621824 1.74036137,11.4958064 1.47374965,10.7174076 C1.15500054,9.78765356 0.846915887,8.85069209 0.596893346,7.90051706 C0.401378088,7.16175898 0.510392656,6.47585513 1.05783538,5.85481785 C2.450141,4.27279445 3.79623393,2.6487279 5.1695805,1.04988724 C5.3923494,0.790420983 5.65066652,0.558583081 5.9160933,0.342361204 C6.20521889,0.106919603 6.544112,-0.00119133537 6.92447805,9.89728231e-06 C10.175956,0.0048148279 13.427434,0.0048148279 16.678912,0.00121112994 C17.5865768,9.89728231e-06 18.2963564,0.37239202 18.82721,1.10994887 C19.6803674,2.29796796 20.5370798,3.48238336 21.3831276,4.67520739 C21.615376,5.00434513 21.9151661,5.18933496 22.3014568,5.25420152 C24.7507298,5.66262063 27.2000028,6.07103973 29.6480908,6.48786746 C30.4882139,6.62961291 31.0332867,7.43564002 30.8899089,8.29452137 C30.7595654,9.06931643 30.6339616,9.84651396 30.4988784,10.6201078 C30.3637951,11.3900979 29.7417011,11.9138354 28.9726744,11.9150366 C28.7558302,11.9150366 28.540171,11.9150366 28.3091075,11.9150366 L3.61849278,11.8633836 Z" id="Combined-Shape" stroke-linecap="round" stroke-linejoin="round"></path>
            <ellipse id="Oval-2-Copy-3" fill="#FFFFFF" fill-rule="nonzero" cx="6.81691745" cy="11.6618193" rx="2.31045233" ry="2.28471317"></ellipse>
            <ellipse id="Oval-2-Copy-4" fill="#FFFFFF" fill-rule="nonzero" cx="24.169071" cy="11.6618193" rx="2.31045233" ry="2.28471317"></ellipse>
        </g>
    </g>
</svg>