<?xml version="1.0" encoding="UTF-8"?>
<svg width="17px" height="17px" viewBox="0 0 17 17" version="1.1" xmlns="http://www.w3.org/2000/svg" xmlns:xlink="http://www.w3.org/1999/xlink">
    <g id="Icon---Settings" stroke="none" stroke-width="1" fill="none" fill-rule="evenodd">
        <g id="cog" transform="translate(1.000000, 1.000000)" fill-rule="nonzero" stroke="#323337">
            <path d="M15,8.42296875 L15,6.54796875 L12.7589063,5.61421875 C12.6965625,5.4384375 12.6309375,5.26828125 12.5503125,5.10140625 L13.455,2.8490625 L12.1289062,1.5234375 L9.89671875,2.44265625 C9.7265625,2.36015625 9.55265625,2.29078125 9.373125,2.2265625 L8.42296875,0 L6.54796875,0 L5.62125,2.2190625 C5.4346875,2.28515625 5.25515625,2.35453125 5.0775,2.43890625 L2.8490625,1.54359375 L1.5234375,2.86921875 L2.431875,5.0775 C2.34375,5.25890625 2.2725,5.44359375 2.20453125,5.634375 L0,6.57703125 L0,8.45203125 L2.20640625,9.37125 C2.274375,9.5615625 2.3475,9.74671875 2.43515625,9.928125 L1.54359375,12.1509375 L2.86921875,13.4765625 L5.083125,12.5648437 C5.26078125,12.6492187 5.4421875,12.7167187 5.62875,12.7809375 L6.57703125,15 L8.45203125,15 L9.38015625,12.7696875 C9.5578125,12.7035938 9.73359375,12.6342188 9.901875,12.5535938 L12.1504687,13.4545313 L13.4760937,12.1289063 L12.553125,9.8915625 C12.631875,9.72328125 12.6960937,9.55265625 12.7584375,9.37875 L15,8.42296875 Z M7.48546875,10.3125 C5.93296875,10.3125 4.67296875,9.0525 4.67296875,7.5 C4.67296875,5.9475 5.93296875,4.6875 7.48546875,4.6875 C9.03796875,4.6875 10.2979688,5.9475 10.2979688,7.5 C10.2979688,9.0525 9.03796875,10.3125 7.48546875,10.3125 Z" id="Shape"></path>
        </g>
    </g>
</svg>