<svg width="29" height="34" viewBox="0 0 29 34" fill="none" xmlns="http://www.w3.org/2000/svg">
    <path d="M0.904686 30.7964L0.904689 30.7971L25.6389 1V0.850002L25.6387 0.850002L3.35601 0.850002C2.70542 0.850002 2.09253 1.10346 1.63035 1.5614L1.63034 1.56141C1.16505 2.02246 0.907515 2.63826 0.904687 3.29537V3.29601L0.904686 30.7964ZM24.9577 30.7274H22.1211V27.9041L25.805 26.2452L25.8063 30.4674C25.8 30.4742 25.7902 30.484 25.7753 30.4964C25.7393 30.5266 25.6845 30.5628 25.6102 30.5977C25.4751 30.6613 25.2806 30.7181 25.0299 30.7274H24.9577ZM3.35669 3.14192H3.35734L25.6455 3.14192L25.646 3.14191C25.6666 3.14185 25.687 3.14588 25.706 3.15377C25.7251 3.16165 25.7423 3.17325 25.7568 3.18787L25.7568 3.18791L25.7599 3.1909C25.7742 3.20444 25.7855 3.22073 25.7932 3.23878C25.801 3.25684 25.805 3.27628 25.8049 3.29592V3.29601V6.23736L22.1921 7.86307C21.5789 8.11439 21.0406 8.51936 20.6293 9.03901C20.2177 9.55896 19.947 10.1762 19.8432 10.8311C19.8323 10.8925 19.8279 10.9541 19.8279 11.014V30.7287H3.1966V3.30036C3.19673 3.27952 3.20094 3.25891 3.209 3.23969C3.21709 3.22038 3.22891 3.20286 3.24377 3.18812L3.14991 3.09345L3.24377 3.18812C3.25864 3.17338 3.27626 3.16171 3.29564 3.15379C3.31501 3.14586 3.33576 3.14182 3.35669 3.14192ZM23.0947 9.96921L23.0948 9.96938L23.1016 9.96629L25.8036 8.75077V14.9845L22.1198 16.6435V11.1183C22.1738 10.8635 22.2897 10.6258 22.4574 10.4263C22.6282 10.223 22.8474 10.0658 23.0947 9.96921ZM25.8036 23.7317L22.1198 25.3907V19.1583L25.8036 17.4994V23.7317Z"
          fill="#BDBECD" stroke="#BDBECD" stroke-width="0.3"/>
</svg>
