<?xml version="1.0" encoding="UTF-8"?>
<svg width="20px" height="19px" viewBox="0 0 20 19" version="1.1" xmlns="http://www.w3.org/2000/svg" xmlns:xlink="http://www.w3.org/1999/xlink">
    <!-- Generator: Sketch 59.1 (86144) - https://sketch.com -->
    <title>ic_my-lotmix</title>
    <desc>Created with Sketch.</desc>
    <g id="Page-1" stroke="none" stroke-width="1" fill="none" fill-rule="evenodd">
        <g id="menu" transform="translate(-21.000000, -103.000000)" fill="#009381" fill-rule="nonzero">
            <g id="ic_my-lotmix" transform="translate(21.000000, 103.000000)">
                <path d="M2.56793478,0.00182662164 C2.54925261,0.0049859098 2.53057087,0.00972423549 2.51358696,0.0144629655 C2.31148087,0.0571107273 2.16881783,0.226121928 2.17391304,0.418825971 L2.17391304,3.24936701 L1.30434783,3.24936701 C0.589334348,3.24936701 0,3.79746853 0,4.46245602 L0,5.27118203 C0,5.93616953 0.589334348,6.48427105 1.30434783,6.48427105 L3.91304348,6.48427105 C4.62805696,6.48427105 5.2173913,5.93616953 5.2173913,5.27118203 L5.2173913,4.46245602 C5.2173913,3.79746853 4.62805696,3.24936701 3.91304348,3.24936701 L3.04347826,3.24936701 L3.04347826,0.418825971 C3.04857348,0.301939992 2.99762217,0.189792338 2.9076087,0.110814987 C2.81589696,0.0302585976 2.69191565,-0.00923028038 2.56793478,0.00182662164 Z M9.95923913,0.00182662164 C9.94055696,0.0049859098 9.92187522,0.00972423549 9.9048913,0.0144629655 C9.70278522,0.0571107273 9.56012217,0.226121928 9.56521739,0.418825971 L9.56521739,11.7409901 L8.69565217,11.7409901 C7.9806387,11.7409901 7.39130435,12.2890916 7.39130435,12.9540791 L7.39130435,13.7628051 C7.39130435,14.4277926 7.9806387,14.9758942 8.69565217,14.9758942 L11.3043478,14.9758942 C12.0193613,14.9758942 12.6086957,14.4277926 12.6086957,13.7628051 L12.6086957,12.9540791 C12.6086957,12.2890916 12.0193613,11.7409901 11.3043478,11.7409901 L10.4347826,11.7409901 L10.4347826,0.418825971 C10.4398778,0.301939992 10.3889265,0.189792338 10.298913,0.110814987 C10.2072013,0.0302585976 10.08322,-0.00923028038 9.95923913,0.00182662164 Z M17.3505435,0.00182662164 C17.3318613,0.0049859098 17.3131796,0.00972423549 17.2961957,0.0144629655 C17.0940896,0.0571107273 16.9514265,0.226121928 16.9565217,0.418825971 L16.9565217,4.46245602 L16.0869565,4.46245602 C15.371943,4.46245602 14.7826087,5.01055754 14.7826087,5.67554504 L14.7826087,6.48427105 C14.7826087,7.14925855 15.371943,7.69736006 16.0869565,7.69736006 L18.6956522,7.69736006 C19.4106657,7.69736006 20,7.14925855 20,6.48427105 L20,5.67554504 C20,5.01055754 19.4106657,4.46245602 18.6956522,4.46245602 L17.826087,4.46245602 L17.826087,0.418825971 C17.8311822,0.301939992 17.7802309,0.189792338 17.6902174,0.110814987 C17.5985057,0.0302585976 17.4745243,-0.00923028038 17.3505435,0.00182662164 Z M1.30434783,4.05809302 L3.91304348,4.05809302 C4.15930696,4.05809302 4.34782609,4.23342239 4.34782609,4.46245602 L4.34782609,5.27118203 C4.34782609,5.50021567 4.15930696,5.67554504 3.91304348,5.67554504 L1.30434783,5.67554504 C1.05808435,5.67554504 0.869565217,5.50021567 0.869565217,5.27118203 L0.869565217,4.46245602 C0.869565217,4.23342239 1.05808435,4.05809302 1.30434783,4.05809302 Z M16.0869565,5.27118203 L18.6956522,5.27118203 C18.9419157,5.27118203 19.1304348,5.44651141 19.1304348,5.67554504 L19.1304348,6.48427105 C19.1304348,6.71330468 18.9419157,6.88863405 18.6956522,6.88863405 L16.0869565,6.88863405 C15.840693,6.88863405 15.6521739,6.71330468 15.6521739,6.48427105 L15.6521739,5.67554504 C15.6521739,5.44651141 15.840693,5.27118203 16.0869565,5.27118203 Z M2.17391304,6.88863405 L2.17391304,9.64335703 C2.17051652,9.66862971 2.17051652,9.6939024 2.17391304,9.71917509 L2.17391304,18.2107982 C2.17221478,18.3561162 2.25373652,18.4919571 2.38960609,18.5661953 C2.52547565,18.6388545 2.69191565,18.6388545 2.82778522,18.5661953 C2.96365478,18.4919571 3.04517652,18.3561162 3.04347826,18.2107982 L3.04347826,9.71917509 C3.04687522,9.6939024 3.04687522,9.66862971 3.04347826,9.64335703 L3.04347826,6.88863405 L2.17391304,6.88863405 Z M16.9565217,8.10172307 L16.9565217,10.856446 C16.9531252,10.8817187 16.9531252,10.9069914 16.9565217,10.9322641 L16.9565217,18.2107982 C16.9548235,18.3561162 17.0363452,18.4919571 17.1722148,18.5661953 C17.3080843,18.6388545 17.4745243,18.6388545 17.6103939,18.5661953 C17.7462635,18.4919571 17.8277852,18.3561162 17.826087,18.2107982 L17.826087,10.9322641 C17.8294839,10.9069914 17.8294839,10.8817187 17.826087,10.856446 L17.826087,8.10172307 L16.9565217,8.10172307 Z M8.69565217,12.5497161 L11.3043478,12.5497161 C11.5506113,12.5497161 11.7391304,12.7250455 11.7391304,12.9540791 L11.7391304,13.7628051 C11.7391304,13.9918388 11.5506113,14.1671681 11.3043478,14.1671681 L8.69565217,14.1671681 C8.4493887,14.1671681 8.26086957,13.9918388 8.26086957,13.7628051 L8.26086957,12.9540791 C8.26086957,12.7250455 8.4493887,12.5497161 8.69565217,12.5497161 Z M9.56521739,15.3802572 L9.56521739,16.1131651 C9.56182087,16.1384378 9.56182087,16.1637105 9.56521739,16.1889832 L9.56521739,18.2107982 C9.56351913,18.3561162 9.64504087,18.4919571 9.78091043,18.5661953 C9.91678,18.6388545 10.08322,18.6388545 10.2190896,18.5661953 C10.3549591,18.4919571 10.4364809,18.3561162 10.4347826,18.2107982 L10.4347826,16.1889832 C10.4381796,16.1637105 10.4381796,16.1384378 10.4347826,16.1131651 L10.4347826,15.3802572 L9.56521739,15.3802572 Z" id="Shape"></path>
            </g>
        </g>
    </g>
</svg>