<svg width="37" height="37" viewBox="0 0 37 37" fill="none" xmlns="http://www.w3.org/2000/svg">
<path d="M17.9546 10.848H5.71625C5.62638 10.8476 5.54002 10.8828 5.47607 10.946C5.41211 11.0091 5.37577 11.095 5.375 11.1849M17.9546 10.848L17.954 10.998C17.9541 10.998 17.9542 10.998 17.9543 10.998M17.9546 10.848C18.0033 10.8482 18.0513 10.8585 18.0958 10.8784C18.1402 10.8982 18.1801 10.9271 18.2127 10.9632M17.9546 10.848V10.998H17.9543M17.9543 10.998H5.71625H5.7156C5.6654 10.9978 5.61717 11.0174 5.58144 11.0527C5.54586 11.0878 5.52558 11.1356 5.525 11.1856M17.9543 10.998C17.982 10.9981 18.0093 11.0041 18.0347 11.0153C18.0568 11.0252 18.0769 11.039 18.094 11.056M5.525 11.1856V11.1849H5.375M5.525 11.1856C5.525 11.1858 5.525 11.186 5.52499 11.1861L5.375 11.1849M5.525 11.1856V18.4461M5.375 11.1849V18.4461H5.525M5.525 18.4461H30.3813M5.525 18.4461V18.5961M5.525 18.5961H30.3813V18.4461M5.525 18.5961L30.5312 14.4588M5.525 18.5961L30.3813 18.4461M30.3813 18.4461H30.5312V14.4588M30.5312 14.4588L30.3813 14.4608C30.3813 14.4605 30.3813 14.4602 30.3813 14.46V14.4588H30.5312ZM18.2127 10.9632L18.0863 11.044L18.094 11.056M18.2127 10.9632L18.1015 11.0638C18.0991 11.0611 18.0966 11.0585 18.094 11.056M18.2127 10.9632L18.094 11.056M3.51983 36.1513H3.52H33.48H33.4802C34.188 36.1505 34.8666 35.869 35.3671 35.3684C35.8676 34.8679 36.1492 34.1893 36.15 33.4815V33.4813V21.1161V21.1159C36.1492 20.4081 35.8676 19.7295 35.3671 19.229C34.8666 18.7285 34.188 18.4469 33.4802 18.4461H33.48H32.8687L32.8688 14.4544L32.8687 14.4538C32.8626 12.9828 31.6638 11.7874 30.1871 11.7874H21.5149L20.1562 9.66178L20.1563 9.66171L20.1526 9.65644C19.9047 9.30304 19.5756 9.01435 19.1929 8.81468C18.8102 8.615 18.3852 8.51018 17.9535 8.50903H17.9531L5.71479 8.50903L5.71428 8.50903C5.0067 8.51145 4.32866 8.79298 3.82746 9.29244C3.32626 9.79191 3.04238 10.469 3.0375 11.1765H3.0375V11.1776V18.4899C1.79531 18.7178 0.85 19.8091 0.85 21.1161L0.85 33.4813L0.85 33.4815C0.850818 34.1893 1.13237 34.8679 1.63288 35.3684C2.13339 35.869 2.812 36.1505 3.51983 36.1513ZM20.8336 14.2749L20.8333 14.1249V14.2749L20.8336 14.2749ZM19.7853 13.7011L19.9117 13.6203L19.7852 13.7009L19.7853 13.7011ZM3.39095 20.9871C3.42518 20.9528 3.4716 20.9336 3.52 20.9336H33.48C33.5284 20.9336 33.5748 20.9528 33.609 20.9871C33.6433 21.0213 33.6625 21.0677 33.6625 21.1161V33.4813C33.6625 33.5297 33.6433 33.5761 33.6091 33.6104C33.5748 33.6446 33.5284 33.6638 33.48 33.6638H3.52C3.41909 33.6638 3.3375 33.5822 3.3375 33.4813V21.1161C3.3375 21.0677 3.35673 21.0213 3.39095 20.9871Z" fill="#BDBECD" stroke="#BDBECD" stroke-width="0.3"/>
<path d="M13.3408 24.8482C13.574 25.0815 13.8904 25.2125 14.2202 25.2125H22.7806C23.1105 25.2125 23.4268 25.0815 23.6601 24.8482C23.8933 24.615 24.0244 24.2986 24.0244 23.9687C24.0244 23.6389 23.8933 23.3225 23.6601 23.0893C23.4268 22.856 23.1105 22.725 22.7806 22.725H14.2202C13.8904 22.725 13.574 22.856 13.3408 23.0893C13.1075 23.3225 12.9765 23.6389 12.9765 23.9687C12.9765 24.2986 13.1075 24.615 13.3408 24.8482Z" fill="#BDBECD" stroke="#BDBECD" stroke-width="0.3"/>
<path d="M28.5871 6.56766L28.4825 6.6751C28.4471 6.64063 28.3996 6.62144 28.3502 6.62167L28.3495 6.62167L20.8335 6.62167L20.8333 6.62167M28.5871 6.56766L20.8333 6.62167M28.5871 6.56766L28.4825 6.6751C28.5175 6.70925 28.5379 6.75569 28.5393 6.80458V8.65625C28.5393 8.98611 28.6703 9.30247 28.9036 9.53571C29.1368 9.76896 29.4532 9.9 29.783 9.9C30.1129 9.9 30.4293 9.76896 30.6625 9.53571C30.8958 9.30247 31.0268 8.98611 31.0268 8.65625L31.0268 6.79542L31.0268 6.79447C31.0175 5.32786 29.8172 4.13417 28.3437 4.13417H21.5149L20.1504 1.99415L20.1505 1.99405L20.1463 1.98814C19.8981 1.63731 19.5695 1.35095 19.188 1.15295C18.8065 0.954964 18.3832 0.851089 17.9534 0.85H17.953L7.54784 0.849998L7.54715 0.850002C6.84006 0.853258 6.1629 1.1358 5.6632 1.63609C5.1635 2.13637 4.88174 2.81385 4.8793 3.52094V3.52146V5.0425C4.8793 5.37236 5.01033 5.68872 5.24358 5.92196C5.47683 6.15521 5.79318 6.28625 6.12305 6.28625C6.45291 6.28625 6.76926 6.15521 7.00251 5.92196C7.23576 5.68872 7.3668 5.37236 7.3668 5.0425V3.52692C7.36766 3.47626 7.38844 3.42795 7.42467 3.39249C7.4611 3.35683 7.51016 3.33706 7.56113 3.33749V3.3375H7.56242H17.9542C17.9819 3.33766 18.0093 3.34357 18.0346 3.35486C18.0567 3.36472 18.0768 3.3785 18.0939 3.39549L19.7849 6.04595C19.7849 6.04599 19.785 6.04604 19.785 6.04609M28.5871 6.56766L19.785 6.04609M20.8333 6.62167C20.6242 6.62194 20.4184 6.56932 20.2351 6.46869C20.0518 6.36805 19.897 6.22267 19.785 6.04609M20.8333 6.62167L19.785 6.04609" fill="#BDBECD" stroke="#BDBECD" stroke-width="0.3"/>
</svg>
