<svg width="34" height="34" viewBox="0 0 34 34" fill="none" xmlns="http://www.w3.org/2000/svg">
<path d="M5.61554 28.3845C8.65629 31.4252 12.6997 33.1 17 33.1C21.3003 33.1 25.3438 31.4253 28.3845 28.3845C31.4252 25.3436 33.1 21.3003 33.1 17C33.1 12.6997 31.4252 8.65629 28.3845 5.61554C25.3437 2.57479 21.3003 0.9 17 0.9C12.6997 0.9 8.65623 2.57472 5.61554 5.61554C2.57485 8.65636 0.9 12.6997 0.9 17C0.9 21.3003 2.57479 25.3437 5.61554 28.3845ZM3.1 17C3.1 9.3356 9.3356 3.1 17 3.1C24.6644 3.1 30.9 9.3356 30.9 17C30.9 24.6644 24.6644 30.9 17 30.9C9.3356 30.9 3.1 24.6644 3.1 17Z" fill="#232456" stroke="black" stroke-width="0.2"/>
<path d="M17 15.9C15.6767 15.9 14.6 14.8233 14.6 13.5C14.6 12.1767 15.6767 11.1 17 11.1C18.3233 11.1 19.4 12.1767 19.4 13.5C19.4 14.1075 19.8925 14.6 20.5 14.6C21.1075 14.6 21.6 14.1075 21.6 13.5C21.6 11.3424 20.1067 9.52877 18.1 9.03432V8C18.1 7.39253 17.6075 6.9 17 6.9C16.3925 6.9 15.9 7.39253 15.9 8V9.03432C13.8933 9.52877 12.4 11.3424 12.4 13.5C12.4 16.0365 14.4635 18.1 17 18.1C18.3233 18.1 19.4 19.1767 19.4 20.5C19.4 21.8233 18.3233 22.9 17 22.9C15.6767 22.9 14.6 21.8233 14.6 20.5C14.6 19.8925 14.1075 19.4 13.5 19.4C12.8925 19.4 12.4 19.8925 12.4 20.5C12.4 22.6576 13.8933 24.4712 15.9 24.9657V26C15.9 26.6075 16.3925 27.1 17 27.1C17.6075 27.1 18.1 26.6075 18.1 26V24.9657C20.1067 24.4712 21.6 22.6576 21.6 20.5C21.6 17.9635 19.5365 15.9 17 15.9Z" fill="#232456" stroke="black" stroke-width="0.2"/>
</svg>
