<svg width="16" height="16" viewBox="0 0 16 16" fill="none" xmlns="http://www.w3.org/2000/svg">
<path d="M13.25 1H2.75C1.7835 1 1 1.7835 1 2.75V13.25C1 14.2165 1.7835 15 2.75 15H13.25C14.2165 15 15 14.2165 15 13.25V2.75C15 1.7835 14.2165 1 13.25 1Z" stroke="#29C97C" stroke-width="1.5" stroke-linecap="round" stroke-linejoin="round"/>
<path d="M5.8125 4.5C5.72597 4.5 5.64138 4.52566 5.56944 4.57373C5.49749 4.62181 5.44142 4.69013 5.4083 4.77008C5.37519 4.85002 5.36653 4.93799 5.38341 5.02285C5.40029 5.10772 5.44195 5.18567 5.50314 5.24686C5.56433 5.30804 5.64228 5.34971 5.72715 5.36659C5.81201 5.38347 5.89998 5.37481 5.97992 5.3417C6.05987 5.30858 6.12819 5.25251 6.17627 5.18056C6.22434 5.10862 6.25 5.02403 6.25 4.9375C6.25 4.82147 6.20391 4.71019 6.12186 4.62814C6.03981 4.54609 5.92853 4.5 5.8125 4.5Z" stroke="#29C97C" stroke-width="1.5" stroke-linecap="round" stroke-linejoin="round"/>
<path d="M15 12.3749L12.2105 8.19125C12.1317 8.07267 12.0251 7.97515 11.9 7.90717C11.7749 7.83919 11.635 7.80281 11.4927 7.8012C11.3503 7.79959 11.2097 7.8328 11.083 7.89793C10.9564 7.96307 10.8476 8.05815 10.7662 8.17492L8.43283 11.4999L6.99083 10.3461C6.89601 10.2704 6.7865 10.2153 6.66925 10.1841C6.552 10.153 6.42956 10.1465 6.30969 10.1652C6.18981 10.1838 6.07512 10.2272 5.97287 10.2924C5.87061 10.3577 5.78303 10.4435 5.71567 10.5444L2.75 14.9999" stroke="#29C97C" stroke-width="1.5" stroke-linecap="round" stroke-linejoin="round"/>
</svg>
