<?xml version="1.0" encoding="UTF-8" standalone="yes"?>
<svg xmlns="http://www.w3.org/2000/svg" viewBox="0 0 50 50" width="50" height="50" fill="#000000">
  <path d="M 25 2 C 23.355469 2 22 3.355469 22 5 L 22 6 L 5 6 C 4.96875 6 4.9375 6 4.90625 6 C 4.390625 6.046875 3.996094 6.480469 4 7 L 4 26 C 4 26.550781 4.449219 27 5 27 L 22 27 L 22 42.03125 L 22.40625 42.3125 C 22.40625 42.3125 22.722656 42.53125 23.15625 42.6875 C 23.589844 42.84375 24.203125 43 25 43 C 25.796875 43 26.410156 42.84375 26.84375 42.6875 C 27.277344 42.53125 27.59375 42.3125 27.59375 42.3125 L 28 42.03125 L 28 27 L 45 27 C 45.550781 27 46 26.550781 46 26 L 46 7 C 46 6.449219 45.550781 6 45 6 L 28 6 L 28 5 C 28 3.355469 26.644531 2 25 2 Z M 25 4 C 25.566406 4 26 4.433594 26 5 L 26 6 L 24 6 L 24 5 C 24 4.433594 24.433594 4 25 4 Z M 6 8 L 44 8 L 44 25 L 6 25 Z M 12.28125 11.78125 C 10.21875 11.78125 8.875 12.910156 8.875 14.59375 C 8.875 15.957031 9.683594 16.785156 11.3125 17.125 L 12.46875 17.375 C 13.566406 17.609375 14 17.960938 14 18.53125 C 14 19.207031 13.316406 19.65625 12.34375 19.65625 C 11.289063 19.65625 10.554688 19.191406 10.46875 18.46875 L 8.65625 18.46875 C 8.726563 20.132813 10.121094 21.1875 12.25 21.1875 C 14.492188 21.1875 15.875 20.082031 15.875 18.28125 C 15.875 16.894531 15.109375 16.128906 13.3125 15.75 L 12.21875 15.5 C 11.171875 15.277344 10.75 14.988281 10.75 14.4375 C 10.75 13.757813 11.378906 13.3125 12.3125 13.3125 C 13.214844 13.3125 13.851563 13.792969 13.9375 14.5 L 15.71875 14.5 C 15.664063 12.90625 14.25 11.78125 12.28125 11.78125 Z M 20.40625 12.03125 L 17.3125 20.96875 L 19.1875 20.96875 L 19.875 18.8125 L 23 18.8125 L 23.6875 20.96875 L 25.71875 20.96875 L 22.625 12.03125 Z M 27.5625 12.03125 L 27.5625 20.96875 L 33.40625 20.96875 L 33.40625 19.3125 L 29.4375 19.3125 L 29.4375 12.03125 Z M 35.40625 12.03125 L 35.40625 20.96875 L 41.34375 20.96875 L 41.34375 19.34375 L 37.28125 19.34375 L 37.28125 17.1875 L 41.09375 17.1875 L 41.09375 15.71875 L 37.28125 15.71875 L 37.28125 13.625 L 41.34375 13.625 L 41.34375 12.03125 Z M 21.40625 13.875 L 21.5 13.875 L 22.625 17.375 L 20.28125 17.375 Z M 24 27 L 26 27 L 26 40.84375 C 25.769531 40.917969 25.488281 41 25 41 C 24.511719 41 24.234375 40.917969 24 40.84375 Z M 8.8125 32 C 8.488281 32.066406 8.222656 32.289063 8.09375 32.59375 L 2.09375 46.59375 C 1.957031 46.902344 1.984375 47.257813 2.167969 47.542969 C 2.351563 47.824219 2.664063 47.996094 3 48 L 47 48 C 47.335938 47.996094 47.648438 47.824219 47.832031 47.542969 C 48.015625 47.257813 48.042969 46.902344 47.90625 46.59375 L 41.90625 32.59375 C 41.746094 32.234375 41.390625 32.003906 41 32 L 30 32 L 30 34 L 40.34375 34 L 45.5 46 L 4.5 46 L 9.65625 34 L 20 34 L 20 32 L 9 32 C 8.96875 32 8.9375 32 8.90625 32 C 8.875 32 8.84375 32 8.8125 32 Z"/>
</svg>
