<?xml version="1.0" encoding="UTF-8"?>
<svg width="14px" height="17px" viewBox="0 0 14 17" version="1.1" xmlns="http://www.w3.org/2000/svg" xmlns:xlink="http://www.w3.org/1999/xlink">
    <g id="Icon---map" stroke="none" stroke-width="1" fill="none" fill-rule="evenodd">
        <g id="MAP-PIN-Copy" transform="translate(1.000000, 1.000000)" fill-rule="nonzero" stroke="#323337">
            <path d="M5.4864,14.63344 C5.57568,14.76592 5.72496,14.84512 5.88432,14.84512 C6.04416,14.84512 6.19344,14.76544 6.28224,14.63344 L10.81152,8.7048 C11.35296,7.84128 11.63952,6.8496 11.63952,5.83632 C11.63952,2.77584 9.05568,0.2856 5.87952,0.2856 C2.70336,0.2856 0.11952,2.77584 0.11952,5.83632 C0.11952,6.85104 0.40704,7.84464 0.95904,8.72208 L5.4864,14.63344 Z" id="Shape"></path>
            <path d="M5.88,8.45568 C7.3848,8.45568 8.60928,7.27152 8.60928,5.81568 C8.60928,4.35984 7.38528,3.17568 5.88,3.17568 C4.37472,3.17568 3.15072,4.35984 3.15072,5.81568 C3.15072,7.27152 4.3752,8.45568 5.88,8.45568 Z" id="Shape"></path>
        </g>
    </g>
</svg>