<?xml version="1.0" encoding="UTF-8" standalone="yes"?>
<svg xmlns="http://www.w3.org/2000/svg" viewBox="0 0 50 50" width="50" height="50" fill="#000000">
  <path d="M 25 0 C 23.14 0 21.572953 1.277 21.126953 3 L 18 3 L 9 3 C 7.346 3 6 4.346 6 6 L 6 45 C 6 46.654 7.346 48 9 48 L 41 48 C 42.654 48 44 46.654 44 45 L 44 6 C 44 4.346 42.654 3 41 3 L 32 3 L 28.873047 3 C 28.429047 1.277 26.86 0 25 0 z M 25 2 C 26.103 2 27 2.897 27 4 C 27 4.552 27.447 5 28 5 L 31 5 L 31 7 L 19 7 L 19 5 L 22 5 C 22.552 5 23 4.552 23 4 C 23 2.897 23.897 2 25 2 z M 9 5 L 17 5 L 17 8 C 17 8.552 17.448 9 18 9 L 32 9 C 32.553 9 33 8.552 33 8 L 33 5 L 41 5 C 41.552 5 42 5.449 42 6 L 42 45 C 42 45.552 41.552 46 41 46 L 9 46 C 8.449 46 8 45.552 8 45 L 8 6 C 8 5.449 8.449 5 9 5 z M 15.136719 12.332031 L 11.603516 13.597656 L 11.603516 14.974609 L 13.625 14.347656 L 13.625 20.875 L 15.318359 20.875 L 15.318359 12.332031 L 15.136719 12.332031 z M 20 16 L 20 18 L 38 18 L 38 16 L 20 16 z M 14.001953 23.226562 C 13.427953 23.226562 12.913937 23.34975 12.460938 23.59375 C 12.007938 23.83775 11.656203 24.173516 11.408203 24.603516 C 11.160203 25.033516 11.035156 25.507344 11.035156 26.027344 L 12.734375 26.027344 C 12.734375 25.597344 12.846406 25.252281 13.066406 24.988281 C 13.286406 24.724281 13.587703 24.591797 13.970703 24.591797 C 14.325703 24.591797 14.600016 24.700969 14.791016 24.917969 C 14.982016 25.134969 15.078125 25.431547 15.078125 25.810547 C 15.078125 26.087547 14.988641 26.380453 14.806641 26.689453 C 14.624641 26.998453 14.343844 27.359437 13.964844 27.773438 L 11.205078 30.714844 L 11.205078 31.875 L 17.052734 31.875 L 17.054688 31.875 L 17.054688 30.509766 L 13.386719 30.509766 L 15.324219 28.464844 C 15.855219 27.882844 16.230219 27.372547 16.449219 26.935547 C 16.668219 26.498547 16.777344 26.068484 16.777344 25.646484 C 16.777344 24.877484 16.534828 24.281375 16.048828 23.859375 C 15.562828 23.437375 14.880953 23.226562 14.001953 23.226562 z M 20 27 L 20 29 L 38 29 L 38 27 L 20 27 z M 13.900391 34.226562 C 13.380391 34.226562 12.906609 34.326391 12.474609 34.525391 C 12.042609 34.724391 11.706797 35.002469 11.466797 35.355469 C 11.226797 35.708469 11.105469 36.107734 11.105469 36.552734 L 12.798828 36.552734 C 12.798828 36.267734 12.908953 36.037375 13.126953 35.859375 C 13.344953 35.681375 13.617406 35.591797 13.941406 35.591797 C 14.301406 35.591797 14.582109 35.686906 14.787109 35.878906 C 14.992109 36.070906 15.095703 36.337641 15.095703 36.681641 C 15.095703 37.036641 14.992156 37.322109 14.785156 37.537109 C 14.578156 37.752109 14.260078 37.859375 13.830078 37.859375 L 12.927734 37.859375 L 12.927734 39.183594 L 13.824219 39.183594 C 14.761219 39.183594 15.230469 39.608938 15.230469 40.460938 C 15.230469 40.812937 15.114719 41.095594 14.886719 41.308594 C 14.658719 41.521594 14.343406 41.626953 13.941406 41.626953 C 13.589406 41.626953 13.292734 41.525266 13.052734 41.322266 C 12.812734 41.119266 12.693359 40.857109 12.693359 40.537109 L 11 40.537109 C 11 41.275109 11.2715 41.869359 11.8125 42.318359 C 12.3535 42.767359 13.048391 42.992188 13.900391 42.992188 C 14.810391 42.992188 15.542703 42.763641 16.095703 42.306641 C 16.648703 41.849641 16.923828 41.242375 16.923828 40.484375 C 16.923828 40.015375 16.806313 39.608625 16.570312 39.265625 C 16.334313 38.922625 15.974141 38.664187 15.494141 38.492188 C 15.881141 38.316187 16.195594 38.064328 16.433594 37.736328 C 16.671594 37.408328 16.789062 37.049203 16.789062 36.658203 C 16.789062 35.900203 16.533484 35.304047 16.021484 34.873047 C 15.509484 34.442047 14.802391 34.226562 13.900391 34.226562 z M 20 38 L 20 40 L 38 40 L 38 38 L 20 38 z"/>
</svg>
