<svg width="24" height="24" viewBox="0 0 24 24" fill="none" xmlns="http://www.w3.org/2000/svg">
<path d="M12 23.5C7.451 23.5 3.75 19.799 3.75 15.25C3.75 13 4.642 10.9 6.264 9.32902L11.353 0.622022C11.4189 0.508699 11.5134 0.414654 11.627 0.349284C11.7406 0.283915 11.8694 0.249512 12.0005 0.249512C12.1316 0.249512 12.2604 0.283915 12.374 0.349284C12.4876 0.414654 12.5821 0.508699 12.648 0.622022L17.737 9.32902C18.5344 10.0948 19.1682 11.0144 19.6001 12.032C20.0321 13.0497 20.2532 14.1445 20.25 15.25C20.25 19.799 16.549 23.5 12 23.5ZM12 8.50002C8.278 8.50002 5.25 11.528 5.25 15.25C5.25 18.972 8.278 22 12 22C15.722 22 18.75 18.972 18.75 15.25C18.75 11.528 15.722 8.50002 12 8.50002ZM12 7.00002C13.014 7.00002 14.019 7.18902 14.961 7.55202L12 2.48602L9.039 7.55202C9.98371 7.1877 10.9875 7.00058 12 7.00002Z" fill="#111111"/>
<path d="M15.2 12V11.8H15H14.0033H13.8033V12V16.6509L9.9733 11.8749L9.91326 11.8H9.81728H9H8.8V12V19V19.2H9H9.99668H10.1967V19V14.3491L14.0267 19.1251L14.0867 19.2H14.1827H15H15.2V19V12Z" fill="black" stroke="black" stroke-width="0.4"/>
</svg>
