<?xml version="1.0" standalone="no"?>
<!DOCTYPE svg PUBLIC "-//W3C//DTD SVG 20010904//EN"
 "http://www.w3.org/TR/2001/REC-SVG-20010904/DTD/svg10.dtd">
<svg version="1.0" xmlns="http://www.w3.org/2000/svg"
 width="111.000000pt" height="110.000000pt" viewBox="0 0 111.000000 110.000000"
 preserveAspectRatio="xMidYMid meet">

<g transform="translate(0.000000,110.000000) scale(0.100000,-0.100000)"
fill="#000000" stroke="none">
<path d="M880 981 c-184 -106 -243 -151 -197 -151 8 0 77 36 152 80 76 44 139
79 141 77 2 -1 -117 -122 -263 -269 l-265 -266 -121 35 c-67 20 -126 39 -130
43 -5 4 69 51 163 105 94 54 173 102 176 107 4 6 1 15 -4 20 -8 8 -70 -23
-217 -107 -113 -64 -205 -121 -205 -125 0 -16 30 -28 172 -70 81 -24 151 -46
156 -49 5 -3 42 -63 81 -133 40 -71 76 -128 80 -128 4 0 47 36 94 80 l86 81
157 -46 c91 -27 160 -43 165 -38 13 13 7 865 -6 870 -5 1 -102 -50 -215 -116z
m186 -709 c-9 -9 -427 122 -422 133 2 6 98 143 212 305 l209 295 3 -364 c1
-200 0 -366 -2 -369z m-194 531 c-11 -16 -80 -114 -155 -220 l-136 -192 -3
-67 -3 -66 -47 83 -47 84 202 203 c111 111 203 202 205 202 2 0 -5 -12 -16
-27z m-145 -477 c1 -1 -22 -27 -52 -56 l-55 -54 0 71 0 72 53 -16 c28 -8 53
-16 54 -17z"/>
<path d="M594 799 c-10 -17 13 -36 27 -22 12 12 4 33 -11 33 -5 0 -12 -5 -16
-11z"/>
<path d="M225 240 c-87 -87 -107 -112 -97 -122 10 -10 35 10 122 97 61 60 109
114 107 119 -8 24 -29 9 -132 -94z"/>
<path d="M410 145 c-51 -51 -62 -67 -52 -77 10 -10 26 1 77 52 36 36 64 69 62
74 -8 23 -26 12 -87 -49z"/>
<path d="M760 145 c-51 -51 -62 -67 -52 -77 10 -10 26 1 77 52 36 36 64 69 62
74 -8 23 -26 12 -87 -49z"/>
<path d="M40 55 c-27 -27 -31 -38 -22 -47 10 -10 20 -5 48 24 20 20 33 41 30
47 -11 17 -20 14 -56 -24z"/>
<path d="M274 29 c-10 -17 13 -36 27 -22 12 12 4 33 -11 33 -5 0 -12 -5 -16
-11z"/>
</g>
</svg>
