<svg width="99" height="69" viewBox="0 0 99 69" fill="none" xmlns="http://www.w3.org/2000/svg">
<circle cx="95.8877" cy="65.1748" r="3.10355" transform="rotate(-180 95.8877 65.1748)" fill="#5A6885"/>
<circle cx="80.3691" cy="65.1748" r="3.10355" transform="rotate(-180 80.3691 65.1748)" fill="#5A6885"/>
<circle cx="64.8535" cy="65.1748" r="3.10355" transform="rotate(-180 64.8535 65.1748)" fill="#5A6885"/>
<circle cx="49.3359" cy="65.1748" r="3.10355" transform="rotate(-180 49.3359 65.1748)" fill="#5A6885"/>
<circle cx="33.8173" cy="65.1748" r="3.10355" transform="rotate(-180 33.8173 65.1748)" fill="#5A6885"/>
<circle cx="95.8877" cy="49.6572" r="3.10355" transform="rotate(-180 95.8877 49.6572)" fill="#5A6885"/>
<circle cx="80.3691" cy="49.6572" r="3.10355" transform="rotate(-180 80.3691 49.6572)" fill="#5A6885"/>
<circle cx="64.8535" cy="49.6569" r="3.10355" transform="rotate(-180 64.8535 49.6569)" fill="#5A6885"/>
<circle cx="49.3359" cy="49.6569" r="3.10355" transform="rotate(-180 49.3359 49.6569)" fill="#5A6885"/>
<circle cx="33.8173" cy="49.6569" r="3.10355" transform="rotate(-180 33.8173 49.6569)" fill="#5A6885"/>
<circle cx="95.8877" cy="34.1394" r="3.10355" transform="rotate(-180 95.8877 34.1394)" fill="#5A6885"/>
<circle cx="80.3691" cy="34.1394" r="3.10355" transform="rotate(-180 80.3691 34.1394)" fill="#5A6885"/>
<circle cx="95.8877" cy="18.6215" r="3.10355" transform="rotate(-180 95.8877 18.6215)" fill="#5A6885"/>
<circle cx="80.3691" cy="18.6215" r="3.10355" transform="rotate(-180 80.3691 18.6215)" fill="#5A6885"/>
<circle cx="80.3691" cy="3.10385" r="3.10355" transform="rotate(-180 80.3691 3.10385)" fill="#5A6885"/>
<circle cx="18.4599" cy="65.1748" r="3.10355" transform="rotate(-180 18.4599 65.1748)" fill="#5A6885"/>
<circle cx="18.4599" cy="49.6569" r="3.10355" transform="rotate(-180 18.4599 49.6569)" fill="#5A6885"/>
<circle cx="3.10348" cy="49.6569" r="3.10355" transform="rotate(-180 3.10348 49.6569)" fill="#5A6885"/>
</svg>
