<svg width="99" height="69" viewBox="0 0 99 69" fill="none" xmlns="http://www.w3.org/2000/svg">
<circle r="3.10355" transform="matrix(1 1.74846e-07 1.74846e-07 -1 3.10355 65.1745)" fill="#5A6885"/>
<circle r="3.10355" transform="matrix(1 1.74846e-07 1.74846e-07 -1 18.6221 65.1746)" fill="#5A6885"/>
<circle r="3.10355" transform="matrix(1 1.74846e-07 1.74846e-07 -1 34.1377 65.1746)" fill="#5A6885"/>
<circle r="3.10355" transform="matrix(1 1.74846e-07 1.74846e-07 -1 49.6553 65.1746)" fill="#5A6885"/>
<circle r="3.10355" transform="matrix(1 1.74846e-07 1.74846e-07 -1 65.1739 65.1746)" fill="#5A6885"/>
<circle r="3.10355" transform="matrix(1 1.74846e-07 1.74846e-07 -1 3.10355 49.6568)" fill="#5A6885"/>
<circle r="3.10355" transform="matrix(1 1.74846e-07 1.74846e-07 -1 18.6221 49.6568)" fill="#5A6885"/>
<circle r="3.10355" transform="matrix(1 1.74846e-07 1.74846e-07 -1 34.1377 49.6568)" fill="#5A6885"/>
<circle r="3.10355" transform="matrix(1 1.74846e-07 1.74846e-07 -1 49.6553 49.6568)" fill="#5A6885"/>
<circle r="3.10355" transform="matrix(1 1.74846e-07 1.74846e-07 -1 65.1739 49.6568)" fill="#5A6885"/>
<circle r="3.10355" transform="matrix(1 1.74846e-07 1.74846e-07 -1 3.10355 34.1391)" fill="#5A6885"/>
<circle r="3.10355" transform="matrix(1 1.74846e-07 1.74846e-07 -1 18.6221 34.1391)" fill="#5A6885"/>
<circle r="3.10355" transform="matrix(1 1.74846e-07 1.74846e-07 -1 3.10355 18.6213)" fill="#5A6885"/>
<circle r="3.10355" transform="matrix(1 1.74846e-07 1.74846e-07 -1 18.6221 18.6213)" fill="#5A6885"/>
<circle r="3.10355" transform="matrix(1 1.74846e-07 1.74846e-07 -1 18.6221 3.1036)" fill="#5A6885"/>
<circle r="3.10355" transform="matrix(1 1.74846e-07 1.74846e-07 -1 80.5313 65.1746)" fill="#5A6885"/>
<circle r="3.10355" transform="matrix(1 1.74846e-07 1.74846e-07 -1 80.5313 49.6568)" fill="#5A6885"/>
<circle r="3.10355" transform="matrix(1 1.74846e-07 1.74846e-07 -1 95.8877 49.6568)" fill="#5A6885"/>
</svg>
