<svg width="99" height="69" viewBox="0 0 99 69" fill="none" xmlns="http://www.w3.org/2000/svg">
<circle r="3.10355" transform="matrix(-1 0 0 1 95.8964 3.59403)" fill="#5A6885"/>
<circle r="3.10355" transform="matrix(-1 0 0 1 80.3779 3.59403)" fill="#5A6885"/>
<circle r="3.10355" transform="matrix(-1 0 0 1 64.8623 3.59403)" fill="#5A6885"/>
<circle r="3.10355" transform="matrix(-1 0 0 1 49.3447 3.59403)" fill="#5A6885"/>
<circle r="3.10355" transform="matrix(-1 0 0 1 33.8261 3.59403)" fill="#5A6885"/>
<circle r="3.10355" transform="matrix(-1 0 0 1 95.8964 19.1117)" fill="#5A6885"/>
<circle r="3.10355" transform="matrix(-1 0 0 1 80.3779 19.1117)" fill="#5A6885"/>
<circle r="3.10355" transform="matrix(-1 0 0 1 64.8623 19.1117)" fill="#5A6885"/>
<circle r="3.10355" transform="matrix(-1 0 0 1 49.3447 19.1117)" fill="#5A6885"/>
<circle r="3.10355" transform="matrix(-1 0 0 1 33.8261 19.1117)" fill="#5A6885"/>
<circle r="3.10355" transform="matrix(-1 0 0 1 95.8964 34.6294)" fill="#5A6885"/>
<circle r="3.10355" transform="matrix(-1 0 0 1 80.3779 34.6294)" fill="#5A6885"/>
<circle r="3.10355" transform="matrix(-1 0 0 1 95.8964 50.1473)" fill="#5A6885"/>
<circle r="3.10355" transform="matrix(-1 0 0 1 80.3779 50.1473)" fill="#5A6885"/>
<circle r="3.10355" transform="matrix(-1 0 0 1 80.3779 65.665)" fill="#5A6885"/>
<circle r="3.10355" transform="matrix(-1 0 0 1 18.4687 3.59403)" fill="#5A6885"/>
<circle r="3.10355" transform="matrix(-1 0 0 1 18.4687 19.1117)" fill="#5A6885"/>
<circle r="3.10355" transform="matrix(-1 0 0 1 3.11227 19.1117)" fill="#5A6885"/>
</svg>
