<?xml version="1.0" encoding="UTF-8"?>
<svg width="438px" height="284px" viewBox="0 0 438 284" version="1.1" xmlns="http://www.w3.org/2000/svg" xmlns:xlink="http://www.w3.org/1999/xlink">
    <!-- Generator: Sketch 59.1 (86144) - https://sketch.com -->
    <title>city-img</title>
    <desc>Created with Sketch.</desc>
    <defs>
        <polygon id="path-1" points="0.671784561 0.204586667 19.9718717 0.204586667 19.9718717 55.8586311 0.671784561 55.8586311"></polygon>
        <polygon id="path-3" points="0.223575628 0.2334 144.810725 0.2334 144.810725 3 0.223575628 3"></polygon>
        <polygon id="path-5" points="0.13135359 0.2334 155.397041 0.2334 155.397041 3 0.13135359 3"></polygon>
        <polygon id="path-7" points="0 167 395 167 395 0 0 0"></polygon>
    </defs>
    <g id="Page-1" stroke="none" stroke-width="1" fill="none" fill-rule="evenodd" opacity="0.703739">
        <g id="single-estate-view-upd-4" transform="translate(-216.000000, -1855.000000)">
            <g id="why-buy" transform="translate(168.000000, 1801.000000)">
                <g id="city-img" transform="translate(47.020560, 53.721413)">
                    <path d="M101.45967,4.03105319 C227.284823,-22.1138434 224.981477,102.278587 343.47944,102.278587 C434.97944,102.278587 472.47944,195.778587 402.97944,245.278587 C339.069386,290.797258 146.272534,307.325846 56.8501024,232.65983 C-39.0844515,152.556317 -3.14926349,25.7674841 101.45967,4.03105319 Z" id="bg-copy" fill-opacity="0.07" fill="#035B43"></path>
                    <g id="Group-104" transform="translate(28.979440, 85.278587)">
                        <path d="M174,143.999397 C174,148.970239 169.970509,153 165,153 C160.029491,153 156,148.970239 156,143.999397 C156,139.029761 160.029491,135 165,135 C169.970509,135 174,139.029761 174,143.999397" id="Fill-1" fill-opacity="0.35" fill="#035B43"></path>
                        <g id="Group-5" transform="translate(375.000000, 81.000000)">
                            <mask id="mask-2" fill="white">
                                <use xlink:href="#path-1"></use>
                            </mask>
                            <g id="Clip-4"></g>
                            <path d="M10.3219572,0.204586667 C5.24104813,0.677475556 -1.40435294,36.41792 1.29414973,45.9640533 C3.65441711,54.3105422 10.3219572,55.8586311 10.3219572,55.8586311 C10.3219572,55.8586311 16.9894973,54.3105422 19.3497647,45.9640533 C22.0482674,36.41792 15.4028663,0.677475556 10.3219572,0.204586667" id="Fill-3" fill-opacity="0.3" fill="#035B43" mask="url(#mask-2)"></path>
                        </g>
                        <path d="M154,83 C148.734185,83.4661121 141.848697,118.787326 144.644949,128.221484 C147.089479,136.47007 154,138 154,138 C154,138 160.910521,136.47007 163.355051,128.221484 C166.151303,118.787326 159.265815,83.4661121 154,83" id="Fill-6" fill-opacity="0.35" fill="#035B43"></path>
                        <g id="Group-10" transform="translate(169.000000, 165.000000)">
                            <mask id="mask-4" fill="white">
                                <use xlink:href="#path-3"></use>
                            </mask>
                            <g id="Clip-9"></g>
                            <path d="M143.670589,0.2334 L1.3637124,0.2334 C0.734287653,0.2334 0.223575628,0.8529 0.223575628,1.6164 C0.223575628,2.3814 0.734287653,3.0009 1.3637124,3.0009 L143.670589,3.0009 C144.300013,3.0009 144.810725,2.3814 144.810725,1.6164 C144.810725,0.8529 144.300013,0.2334 143.670589,0.2334" id="Fill-8" fill="#000000" mask="url(#mask-4)"></path>
                        </g>
                        <g id="Group-13" transform="translate(1.000000, 165.000000)">
                            <mask id="mask-6" fill="white">
                                <use xlink:href="#path-5"></use>
                            </mask>
                            <g id="Clip-12"></g>
                            <path d="M154.257843,0.2334 L1.270551,0.2334 C0.641644836,0.2334 0.13135359,0.8529 0.13135359,1.6164 C0.13135359,2.3814 0.641644836,3.0009 1.270551,3.0009 L154.257843,3.0009 C154.88675,3.0009 155.397041,2.3814 155.397041,1.6164 C155.397041,0.8529 154.88675,0.2334 154.257843,0.2334" id="Fill-11" fill="#000000" mask="url(#mask-6)"></path>
                        </g>
                        <path d="M282.5,90.3261547 C282.719232,90.3261547 282.938464,90.3895242 283.129208,90.5162631 L313.407997,110.568352 C313.593787,110.692606 313.817973,110.734852 314.040921,110.688878 C314.263869,110.644147 314.453374,110.514923 314.575996,110.328542 C314.699855,110.140919 314.741968,109.916019 314.697378,109.693605 C314.65155,109.469948 314.523974,109.279839 314.336946,109.155585 L283.038791,88.4287982 C282.856716,88.3070294 282.669688,88.2883913 282.545828,88.292119 C282.516102,88.2933615 282.485137,88.2933615 282.454172,88.292119 C282.329073,88.2871488 282.144522,88.3070294 281.959971,88.4287982 L250.663054,109.155585 C250.477264,109.279839 250.34845,109.469948 250.30386,109.693605 C250.258032,109.916019 250.300145,110.140919 250.424004,110.328542 C250.546626,110.514923 250.736131,110.644147 250.959079,110.688878 C251.180788,110.734852 251.406213,110.692606 251.592003,110.568352 L281.870792,90.5162631 C282.061536,90.3895242 282.280768,90.3261547 282.5,90.3261547 M313.862563,113 C313.256888,113 312.664837,112.822317 312.148342,112.480619 L282.5,92.8447806 L252.851658,112.480619 C252.155566,112.941601 251.321989,113.103131 250.500798,112.934145 C249.680845,112.766403 248.976082,112.289268 248.516562,111.590961 C247.566557,110.147131 247.964147,108.196346 249.403399,107.243318 L280.701554,86.5165312 C281.236629,86.1611652 281.864599,85.9884523 282.5,86.0008777 C283.142833,85.9859672 283.764609,86.1611652 284.298446,86.5165312 L315.596601,107.243318 C317.035853,108.196346 317.433443,110.147131 316.483438,111.590961 C316.023918,112.289268 315.320393,112.766403 314.499202,112.934145 C314.287402,112.977634 314.074363,113 313.862563,113" id="Fill-14" fill="#000000"></path>
                        <path d="M282.5,102.270523 C279.064065,102.270523 276.270523,105.065296 276.270523,108.5 C276.270523,111.935935 279.064065,114.729477 282.5,114.729477 C285.935935,114.729477 288.729477,111.935935 288.729477,108.5 C288.729477,105.065296 285.935935,102.270523 282.5,102.270523 M282.5,117 C277.812509,117 274,113.18626 274,108.5 C274,103.81374 277.812509,100 282.5,100 C287.18626,100 291,103.81374 291,108.5 C291,113.18626 287.18626,117 282.5,117" id="Fill-16" fill="#000000"></path>
                        <path d="M282,117 C281.447939,117 281,116.491711 281,115.865272 L281,101.134728 C281,100.508289 281.447939,100 282,100 C282.552061,100 283,100.508289 283,101.134728 L283,115.865272 C283,116.491711 282.552061,117 282,117" id="Fill-18" fill="#000000"></path>
                        <path d="M289.86148,109 L275.13852,109 C274.509988,109 274,108.552304 274,108.000542 C274,107.447696 274.509988,107 275.13852,107 L289.86148,107 C290.490012,107 291,107.447696 291,108.000542 C291,108.552304 290.490012,109 289.86148,109" id="Fill-20" fill="#000000"></path>
                        <path d="M197.436045,111.296483 C197.349951,111.296483 197.271237,111.320135 197.201132,111.367439 L172.463994,127.896584 C172.267209,128.027293 172.210633,128.307385 172.339774,128.506561 C172.425867,128.637271 172.550088,128.679596 172.616503,128.694534 C172.682918,128.706983 172.813288,128.718186 172.942428,128.632292 L196.875207,112.640923 C197.255248,112.386973 197.745982,112.386973 198.126023,112.640923 L222.057572,128.632292 C222.186712,128.716941 222.315852,128.706983 222.383497,128.694534 C222.449912,128.679596 222.574133,128.637271 222.660226,128.506561 C222.790597,128.307385 222.732791,128.027293 222.537236,127.895339 L197.798868,111.367439 C197.705395,111.303952 197.608232,111.293993 197.545507,111.296483 C197.514759,111.297728 197.485241,111.297728 197.455723,111.296483 L197.436045,111.296483 Z M172.711206,131 C172.529179,131 172.344693,130.981327 172.161437,130.942737 C171.45301,130.795844 170.842976,130.380064 170.446945,129.771331 C169.625367,128.512786 169.968511,126.811073 171.213178,125.979512 L195.951546,109.450367 C196.411531,109.142889 196.951461,108.987283 197.5,109.000976 C198.055918,108.986038 198.588469,109.142889 199.049684,109.451612 L223.786822,125.979512 C225.031489,126.811073 225.374633,128.512786 224.553055,129.772576 C224.157024,130.380064 223.54699,130.795844 222.838563,130.942737 C222.130136,131.089629 221.40818,130.950206 220.806755,130.548119 L197.5,114.973776 L174.193245,130.548119 C173.748018,130.845638 173.235147,131 172.711206,131 L172.711206,131 Z" id="Fill-22" fill="#000000"></path>
                        <path d="M198,123.153577 C196.981606,123.153577 196.153577,123.981606 196.153577,125 C196.153577,126.017226 196.981606,126.845255 198,126.845255 C199.017226,126.845255 199.845255,126.017226 199.845255,125 C199.845255,123.981606 199.017226,123.153577 198,123.153577 M198,129 C195.793869,129 194,127.204964 194,125 C194,122.793869 195.793869,121 198,121 C200.204964,121 202,122.793869 202,125 C202,127.204964 200.204964,129 198,129" id="Fill-24" fill="#000000"></path>
                        <path d="M219.867292,157 L176.132708,157 C175.507385,157 175,156.492899 175,155.867925 L175,128.133303 C175,127.507101 175.507385,127 176.132708,127 C176.758032,127 177.265417,127.507101 177.265417,128.133303 L177.265417,154.734621 L218.734583,154.734621 L218.734583,128.133303 C218.734583,127.507101 219.241968,127 219.867292,127 C220.492615,127 221,127.507101 221,128.133303 L221,155.867925 C221,156.492899 220.492615,157 219.867292,157" id="Fill-26" fill="#000000"></path>
                        <path d="M211.883254,156 C211.266742,156 210.766508,155.492525 210.766508,154.865861 L210.766508,134.267049 L184.234703,134.267049 L184.234703,154.865861 C184.234703,155.492525 183.734469,156 183.116746,156 C182.500234,156 182,155.492525 182,154.865861 L182,133.134139 C182,132.507475 182.500234,132 183.116746,132 L211.883254,132 C212.499766,132 213,132.507475 213,133.134139 L213,154.865861 C213,155.492525 212.499766,156 211.883254,156" id="Fill-28" fill="#000000"></path>
                        <path d="M212.185024,138 L182.813739,138 C182.364822,138 182,137.552012 182,136.999241 C182,136.447988 182.364822,136 182.813739,136 L212.185024,136 C212.635178,136 213,136.447988 213,136.999241 C213,137.552012 212.635178,138 212.185024,138" id="Fill-30" fill="#000000"></path>
                        <path d="M212.185024,141 L182.813739,141 C182.364822,141 182,140.552012 182,140.000759 C182,139.447988 182.364822,139 182.813739,139 L212.185024,139 C212.635178,139 213,139.447988 213,140.000759 C213,140.552012 212.635178,141 212.185024,141" id="Fill-32" fill="#000000"></path>
                        <path d="M212.185024,144 L182.813739,144 C182.364822,144 182,143.552352 182,143 C182,142.449165 182.364822,142 182.813739,142 L212.185024,142 C212.635178,142 213,142.449165 213,143 C213,143.552352 212.635178,144 212.185024,144" id="Fill-34" fill="#000000"></path>
                        <path d="M212.185024,148 L182.813739,148 C182.364822,148 182,147.552012 182,146.999241 C182,146.447988 182.364822,146 182.813739,146 L212.185024,146 C212.635178,146 213,146.447988 213,146.999241 C213,147.552012 212.635178,148 212.185024,148" id="Fill-36" fill="#000000"></path>
                        <path d="M212.185024,151 L182.813739,151 C182.364822,151 182,150.552012 182,150.000759 C182,149.447988 182.364822,149 182.813739,149 L212.185024,149 C212.635178,149 213,149.447988 213,150.000759 C213,150.552012 212.635178,151 212.185024,151" id="Fill-38" fill="#000000"></path>
                        <path d="M212.185024,154 L182.813739,154 C182.364822,154 182,153.552012 182,152.999241 C182,152.447988 182.364822,152 182.813739,152 L212.185024,152 C212.635178,152 213,152.447988 213,152.999241 C213,153.552012 212.635178,154 212.185024,154" id="Fill-40" fill="#000000"></path>
                        <path d="M382,159 C381.447939,159 381,158.488739 381,157.8574 L381,103.141362 C381,102.510023 381.447939,102 382,102 C382.552061,102 383,102.510023 383,103.141362 L383,157.8574 C383,158.488739 382.552061,159 382,159" id="Fill-42" fill="#000000"></path>
                        <path d="M381.987509,114 C381.728346,114 381.469183,113.901167 381.271517,113.7035 L377.297323,109.729307 C376.900892,109.333974 376.900892,108.692656 377.297323,108.297323 C377.691558,107.900892 378.332876,107.900892 378.729307,108.297323 L382.7035,112.271517 C383.098833,112.66685 383.098833,113.308167 382.7035,113.702402 C382.505834,113.901167 382.246671,114 381.987509,114" id="Fill-44" fill="#000000"></path>
                        <path d="M381.109979,122 C380.890789,122 380.670394,121.935651 380.476494,121.803379 C379.973078,121.45661 379.849031,120.772606 380.198291,120.274499 L384.977128,113.472594 C385.326388,112.973295 386.018886,112.850556 386.523506,113.196132 C387.026922,113.542901 387.150969,114.229288 386.801709,114.726204 L382.022872,121.528109 C381.807294,121.835553 381.461648,122 381.109979,122" id="Fill-46" fill="#000000"></path>
                        <path d="M381.499614,82.3460535 C380.338259,83.2202904 377.999822,89.3104386 376.053343,101.025951 C374.256872,111.834027 373.729424,121.813362 374.73956,125.857476 C376.35215,132.318959 380.402375,134.259249 381.500824,134.67485 C382.622257,134.25679 386.644658,132.331255 388.260877,125.857476 C389.271014,121.813362 388.742355,111.834027 386.947094,101.025951 C385.000615,89.3104386 382.660969,83.2202904 381.499614,82.3460535 M381.499614,137 C381.405254,137 381.312103,136.987704 381.220163,136.964342 C380.957648,136.895485 374.762546,135.172833 372.576537,126.415709 C370.350607,117.503656 374.9803,87.1402161 379.457565,81.2922967 C379.916058,80.6910283 380.406005,80.2987898 380.918936,80.1168108 C381.066525,80.041806 381.23468,80 381.412512,80 L381.587925,80 C381.765758,80 381.932702,80.041806 382.081501,80.1168108 C382.594433,80.2987898 383.08317,80.6910283 383.542873,81.2922967 C388.020138,87.1402161 392.648621,117.503656 390.4239,126.415709 C388.236682,135.172833 382.041579,136.895485 381.779065,136.964342 C381.687124,136.987704 381.593974,137 381.499614,137" id="Fill-48" fill="#000000"></path>
                        <path d="M151,160 C150.447939,160 150,159.486397 150,158.852165 L150,104.146591 C150,103.513603 150.447939,103 151,103 C151.552061,103 152,103.513603 152,104.146591 L152,158.852165 C152,159.486397 151.552061,160 151,160" id="Fill-50" fill="#000000"></path>
                        <path d="M149.984372,115 C149.724406,115 149.464441,114.900845 149.266162,114.702534 L145.298382,110.735219 C144.900723,110.338597 144.900723,109.695189 145.297281,109.297466 C145.693838,108.900845 146.337143,108.900845 146.734802,109.297466 L150.702582,113.265883 C151.099139,113.662505 151.099139,114.305913 150.702582,114.702534 C150.504303,114.900845 150.244337,115 149.984372,115" id="Fill-52" fill="#000000"></path>
                        <path d="M151.113188,124 C150.893294,124 150.672193,123.935419 150.478879,123.802669 C149.972641,123.454648 149.848196,122.766978 150.199784,122.267072 L154.969783,115.472892 C155.321371,114.972986 156.01609,114.849804 156.521121,115.197824 C157.027359,115.544649 157.151804,116.232319 156.800216,116.732225 L152.029009,123.526405 C151.81274,123.833763 151.465984,124 151.113188,124" id="Fill-54" fill="#000000"></path>
                        <path d="M151.499997,84.3641919 C150.522068,85.164608 148.166537,90.3475491 146.060043,103.036861 C144.266972,113.838773 143.739741,123.811858 144.74804,127.85223 C146.362533,134.321025 150.379935,136.245482 151.499997,136.664218 C152.620058,136.245482 156.63746,134.321025 158.251953,127.85223 C159.261467,123.811858 158.734236,113.838773 156.941165,103.036861 C154.833456,90.3475491 152.477925,85.164608 151.499997,84.3641919 M151.5,139 C151.405241,139 151.3117,138.988883 151.219374,138.964179 C150.956973,138.895007 144.762618,137.171889 142.575946,128.413015 C140.351615,119.50221 144.98007,89.1419841 149.454244,83.2945001 C149.913445,82.6929528 150.404231,82.2989208 150.916884,82.1173449 C151.066307,82.0419971 151.233951,82 151.41253,82 L151.587463,82 C151.766042,82 151.933686,82.0419971 152.083109,82.1173449 C152.596977,82.2989208 153.086548,82.6929528 153.546964,83.2945001 C158.019923,89.1419841 162.648378,119.50221 160.424047,128.413015 C158.237375,137.171889 152.04302,138.895007 151.780619,138.964179 C151.688293,138.988883 151.594752,139 151.5,139" id="Fill-56" fill="#000000"></path>
                        <path d="M306.865231,157 L257.136,157 C256.508308,157 256,156.485679 256,155.85056 L256,108.146949 C256,107.514321 256.508308,107 257.136,107 C257.762462,107 258.270769,107.514321 258.270769,108.146949 L258.270769,154.702366 L305.730462,154.702366 L305.730462,108.146949 C305.730462,107.514321 306.238769,107 306.865231,107 C307.492923,107 308,107.514321 308,108.146949 L308,155.85056 C308,156.485679 307.492923,157 306.865231,157" id="Fill-58" fill="#000000"></path>
                        <path d="M344.858443,109 L314.307308,109 C313.676393,109 313.165475,108.493441 313.165475,107.867909 C313.165475,107.242377 313.676393,106.737045 314.307308,106.737045 L343.320742,106.737045 L333.69372,75.2629553 L230.306532,75.2629553 L220.67951,106.737045 L249.452949,106.737045 C250.082627,106.737045 250.593544,107.242377 250.593544,107.867909 C250.593544,108.493441 250.082627,109 249.452949,109 L219.140572,109 C218.779342,109 218.44038,108.829512 218.225127,108.542503 C218.008636,108.254267 217.944308,107.882628 218.04946,107.540425 L228.368014,73.8046063 C228.513991,73.3274846 228.958106,73 229.460364,73 L334.539888,73 C335.042146,73 335.486261,73.3274846 335.632237,73.8046063 L345.950792,107.540425 C346.055944,107.882628 345.990378,108.254267 345.775125,108.542503 C345.559872,108.829512 345.219672,109 344.858443,109" id="Fill-60" fill="#000000"></path>
                        <path d="M340.647479,157 L224.144052,157 C223.512466,157 223,156.492042 223,155.864782 L223,108.133988 C223,107.506728 223.512466,107 224.144052,107 C224.775638,107 225.288103,107.506728 225.288103,108.133988 L225.288103,154.730795 L339.50839,154.730795 L339.711888,108.129068 C339.714369,107.504268 340.225594,107 340.855939,107 L340.860903,107 C341.492489,107.00246 342.002473,107.512877 342,108.137677 L341.79153,155.870932 C341.789049,156.495732 341.277824,157 340.647479,157" id="Fill-62" fill="#000000"></path>
                        <path d="M290.879844,157 C290.261451,157 289.759689,156.496668 289.759689,155.875119 L289.759689,127.248543 L274.241526,127.248543 L274.241526,155.336444 C274.241526,155.956773 273.739764,156.460106 273.12137,156.460106 C272.502977,156.460106 272,155.956773 272,155.336444 L272,126.123662 C272,125.503332 272.502977,125 273.12137,125 L290.879844,125 C291.498238,125 292,125.503332 292,126.123662 L292,155.875119 C292,156.496668 291.498238,157 290.879844,157" id="Fill-64" fill="#000000"></path>
                        <mask id="mask-8" fill="white">
                            <use xlink:href="#path-7"></use>
                        </mask>
                        <g id="Clip-67"></g>
                        <path d="M235.343229,137.731895 L246.656771,137.731895 L246.656771,120.268105 L235.343229,120.268105 L235.343229,137.731895 Z M247.82775,140 L234.17225,140 C233.524528,140 233,139.492289 233,138.866562 L233,119.134667 C233,118.507711 233.524528,118 234.17225,118 L247.82775,118 C248.475472,118 249,118.507711 249,119.134667 L249,138.866562 C249,139.492289 248.475472,140 247.82775,140 L247.82775,140 Z" id="Fill-66" fill="#000000" mask="url(#mask-8)"></path>
                        <path d="M318.343229,137.731895 L329.656771,137.731895 L329.656771,120.268105 L318.343229,120.268105 L318.343229,137.731895 Z M330.82775,140 L317.17225,140 C316.525798,140 316,139.492289 316,138.866562 L316,119.134667 C316,118.507711 316.525798,118 317.17225,118 L330.82775,118 C331.475472,118 332,118.507711 332,119.134667 L332,138.866562 C332,139.492289 331.475472,140 330.82775,140 L330.82775,140 Z" id="Fill-68" fill="#000000" mask="url(#mask-8)"></path>
                        <path d="M343.286043,154.656925 L366.713957,154.656925 L366.713957,132.344346 L343.286043,132.344346 L343.286043,154.656925 Z M367.856359,157 L342.143641,157 C341.511727,157 341,156.475222 341,155.827192 L341,131.171537 C341,130.524778 341.511727,130 342.143641,130 L367.856359,130 C368.487034,130 369,130.524778 369,131.171537 L369,155.827192 C369,156.475222 368.487034,157 367.856359,157 L367.856359,157 Z" id="Fill-69" fill="#000000" mask="url(#mask-8)"></path>
                        <path d="M344,155.827192 L344,131.171537 C344,130.524778 344.447939,130 345,130 C345.552061,130 346,130.524778 346,131.171537 L346,155.827192 C346,156.475222 345.552061,157 345,157 C344.447939,157 344,156.475222 344,155.827192 Z" id="Fill-70" fill="#000000" mask="url(#mask-8)"></path>
                        <path d="M348,155.827192 L348,131.171537 C348,130.524778 348.447939,130 349,130 C349.552061,130 350,130.524778 350,131.171537 L350,155.827192 C350,156.475222 349.552061,157 349,157 C348.447939,157 348,156.475222 348,155.827192 Z" id="Fill-71" fill="#000000" mask="url(#mask-8)"></path>
                        <path d="M352,155.827192 L352,131.171537 C352,130.524778 352.447939,130 353,130 C353.552061,130 354,130.524778 354,131.171537 L354,155.827192 C354,156.475222 353.552061,157 353,157 C352.447939,157 352,156.475222 352,155.827192 Z" id="Fill-72" fill="#000000" mask="url(#mask-8)"></path>
                        <path d="M355,155.827192 L355,131.171537 C355,130.524778 355.447939,130 356,130 C356.552061,130 357,130.524778 357,131.171537 L357,155.827192 C357,156.475222 356.552061,157 356,157 C355.447939,157 355,156.475222 355,155.827192 Z" id="Fill-73" fill="#000000" mask="url(#mask-8)"></path>
                        <path d="M359,155.827192 L359,131.171537 C359,130.524778 359.446855,130 360,130 C360.552061,130 361,130.524778 361,131.171537 L361,155.827192 C361,156.475222 360.552061,157 360,157 C359.446855,157 359,156.475222 359,155.827192 Z" id="Fill-74" fill="#000000" mask="url(#mask-8)"></path>
                        <path d="M363,155.827192 L363,131.171537 C363,130.524778 363.447939,130 364,130 C364.552061,130 365,130.524778 365,131.171537 L365,155.827192 C365,156.475222 364.552061,157 364,157 C363.447939,157 363,156.475222 363,155.827192 Z" id="Fill-75" fill="#000000" mask="url(#mask-8)"></path>
                        <path d="M163,165.889815 L163,140.108982 C163,139.495554 163.447939,139 164,139 C164.552061,139 165,139.495554 165,140.108982 L165,165.889815 C165,166.503243 164.552061,167 164,167 C163.447939,167 163,166.503243 163,165.889815 Z" id="Fill-76" fill="#000000" mask="url(#mask-8)"></path>
                        <path d="M163.828645,146 C163.530091,146 163.231536,145.885314 163.002857,145.657216 L160.345088,143.009242 C159.886458,142.551772 159.885188,141.807587 160.340007,141.347568 C160.796096,140.886276 161.539305,140.883727 161.997936,141.342471 L164.654433,143.991719 C165.113064,144.447915 165.115604,145.1921 164.659515,145.653393 C164.430835,145.88404 164.12974,146 163.828645,146" id="Fill-77" fill="#000000" mask="url(#mask-8)"></path>
                        <path d="M163.271688,150 C163.027471,150 162.780495,149.945006 162.562494,149.830705 C161.978858,149.524463 161.824325,148.90551 162.217555,148.450461 L165.671081,144.43913 C166.064311,143.983003 166.854911,143.86331 167.437167,144.169551 C168.020804,144.475792 168.175336,145.093667 167.783486,145.549794 L164.32858,149.561126 C164.081604,149.845801 163.680095,150 163.271688,150" id="Fill-78" fill="#000000" mask="url(#mask-8)"></path>
                        <path d="M163.5,135.279386 C158.967173,135.279386 155.279386,138.967173 155.279386,143.5 C155.279386,148.032827 158.967173,151.72185 163.5,151.72185 C168.032827,151.72185 171.720614,148.032827 171.720614,143.5 C171.720614,138.967173 168.032827,135.279386 163.5,135.279386 M163.5,154 C157.710731,154 153,149.290505 153,143.5 C153,137.710731 157.710731,133 163.5,133 C169.290505,133 174,137.710731 174,143.5 C174,149.290505 169.290505,154 163.5,154" id="Fill-79" fill="#000000" mask="url(#mask-8)"></path>
                        <path d="M53.0373325,51.6781943 C52.2831815,52.1765657 52.0746663,53.1983524 52.5728554,53.9534228 C53.069796,54.7097453 54.088649,54.9188609 54.8415514,54.4192373 L97.3649296,26.266259 C97.7507453,26.0108123 98.2489344,26.0108123 98.6347501,26.266259 L141.158128,54.4192373 C141.911031,54.9188609 142.929884,54.7097453 143.426824,53.9534228 C143.925013,53.1983524 143.716498,52.1765657 142.962347,51.6781943 L99.0068312,22.5773085 C98.7234003,22.3894801 98.3900256,22.3005746 98.0454136,22.3118443 C98.0141987,22.3130965 97.985481,22.3130965 97.9542662,22.3118443 C97.6096541,22.2980702 97.2762794,22.3882279 96.9928485,22.5773085 L53.0373325,51.6781943 Z M53.9463092,57 C52.6652514,57 51.4079169,56.3764096 50.6500201,55.2268996 C49.4538667,53.4087203 49.9558016,50.9519243 51.7675121,49.7510745 L95.7242766,20.6489365 C96.3997662,20.2019049 97.1863806,19.9790151 98.0004642,20.0015545 C98.8108019,19.9790151 99.5999135,20.2019049 100.275403,20.6489365 L144.232168,49.7510745 C146.045127,50.9519243 146.545813,53.4087203 145.34966,55.2268996 C144.152258,57.0450788 141.702515,57.5472068 139.889556,56.3476092 L98.0004642,28.6141144 L56.1101233,56.3476092 C55.4433739,56.7896322 54.6904715,57 53.9463092,57 L53.9463092,57 Z" id="Fill-80" fill="#000000" mask="url(#mask-8)"></path>
                        <path d="M137.861919,158 L59.1380808,158 C58.5097911,158 58,157.4858 58,156.85083 L58,53.1479245 C58,52.5142005 58.5097911,52 59.1380808,52 C59.7663705,52 60.277396,52.5142005 60.277396,53.1479245 L60.277396,155.702906 L136.723838,155.702906 L136.723838,53.7542578 C136.723838,53.1205337 137.233629,52.6063332 137.861919,52.6063332 C138.490209,52.6063332 139,53.1205337 139,53.7542578 L139,156.85083 C139,157.4858 138.490209,158 137.861919,158" id="Fill-81" fill="#000000" mask="url(#mask-8)"></path>
                        <path d="M97.5006154,40.269292 C94.0644321,40.269292 91.270687,43.0640654 91.270687,46.4987694 C91.270687,49.9347039 94.0644321,52.7294773 97.5006154,52.7294773 C100.935568,52.7294773 103.730544,49.9347039 103.730544,46.4987694 C103.730544,43.0640654 100.935568,40.269292 97.5006154,40.269292 M97.5006154,55 C92.8127851,55 89,51.1862603 89,46.4987694 C89,41.812509 92.8127851,38 97.5006154,38 C102.187215,38 106,41.812509 106,46.4987694 C106,51.1862603 102.187215,55 97.5006154,55" id="Fill-82" fill="#000000" mask="url(#mask-8)"></path>
                        <path d="M98,55 C97.4479393,55 97,54.4917107 97,53.8640411 L97,39.1334974 C97,38.5070586 97.4479393,38 98,38 C98.5520607,38 99,38.5070586 99,39.1334974 L99,53.8640411 C99,54.4917107 98.5520607,55 98,55" id="Fill-83" fill="#000000" mask="url(#mask-8)"></path>
                        <path d="M104.86148,47 L90.1385196,47 C89.5099877,47 89,46.5523035 89,45.999458 C89,45.4466125 89.5099877,45 90.1385196,45 L104.86148,45 C105.490012,45 106,45.4466125 106,45.999458 C106,46.5523035 105.490012,47 104.86148,47" id="Fill-84" fill="#000000" mask="url(#mask-8)"></path>
                        <path d="M112.272167,93.7241994 L124.727833,93.7241994 L124.727833,71.2745671 L112.272167,71.2745671 L112.272167,93.7241994 Z M125.8633,96 L111.135468,96 C110.508621,96 110,95.490566 110,94.8614829 L110,70.1372836 C110,69.5082005 110.508621,69 111.135468,69 L125.8633,69 C126.490148,69 127,69.5082005 127,70.1372836 L127,94.8614829 C127,95.490566 126.490148,96 125.8633,96 L125.8633,96 Z" id="Fill-85" fill="#000000" mask="url(#mask-8)"></path>
                        <path d="M125.86445,83 L111.13555,83 C110.508658,83 110,82.5523035 110,82.000542 C110,81.4476965 110.508658,81 111.13555,81 L125.86445,81 C126.491342,81 127,81.4476965 127,82.000542 C127,82.5523035 126.491342,83 125.86445,83" id="Fill-86" fill="#000000" mask="url(#mask-8)"></path>
                        <path d="M91.2721675,93.7241994 L103.729064,93.7241994 L103.729064,71.2745671 L91.2721675,71.2745671 L91.2721675,93.7241994 Z M104.864532,96 L90.135468,96 C89.5086207,96 89,95.490566 89,94.8614829 L89,70.1372836 C89,69.5082005 89.5086207,69 90.135468,69 L104.864532,69 C105.491379,69 106,69.5082005 106,70.1372836 L106,94.8614829 C106,95.490566 105.491379,96 104.864532,96 L104.864532,96 Z" id="Fill-87" fill="#000000" mask="url(#mask-8)"></path>
                        <path d="M104.864532,83 L90.1366995,83 C89.5086207,83 89,82.5523035 89,82.000542 C89,81.4476965 89.5086207,81 90.1366995,81 L104.864532,81 C105.491379,81 106,81.4476965 106,82.000542 C106,82.5523035 105.491379,83 104.864532,83" id="Fill-88" fill="#000000" mask="url(#mask-8)"></path>
                        <path d="M111.272167,130.725329 L123.729064,130.725329 L123.729064,108.275905 L111.272167,108.275905 L111.272167,130.725329 Z M124.8633,133 L110.135468,133 C109.508621,133 109,132.491776 109,131.863898 L109,107.137336 C109,106.509457 109.508621,106 110.135468,106 L124.8633,106 C125.491379,106 126,106.509457 126,107.137336 L126,131.863898 C126,132.491776 125.491379,133 124.8633,133 L124.8633,133 Z" id="Fill-89" fill="#000000" mask="url(#mask-8)"></path>
                        <path d="M124.86445,120 L110.13555,120 C109.508658,120 109,119.552304 109,118.999458 C109,118.447696 109.508658,118 110.13555,118 L124.86445,118 C125.492574,118 126,118.447696 126,118.999458 C126,119.552304 125.492574,120 124.86445,120" id="Fill-90" fill="#000000" mask="url(#mask-8)"></path>
                        <path d="M91.2721675,130.725329 L103.729064,130.725329 L103.729064,108.275905 L91.2721675,108.275905 L91.2721675,130.725329 Z M104.864532,133 L90.1366995,133 C89.5098522,133 89,132.491776 89,131.863898 L89,107.137336 C89,106.509457 89.5098522,106 90.1366995,106 L104.864532,106 C105.491379,106 106,106.509457 106,107.137336 L106,131.863898 C106,132.491776 105.491379,133 104.864532,133 L104.864532,133 Z" id="Fill-91" fill="#000000" mask="url(#mask-8)"></path>
                        <path d="M104.864532,120 L90.1366995,120 C89.5086207,120 89,119.552304 89,118.999458 C89,118.447696 89.5086207,118 90.1366995,118 L104.864532,118 C105.491379,118 106,118.447696 106,118.999458 C106,119.552304 105.491379,120 104.864532,120" id="Fill-92" fill="#000000" mask="url(#mask-8)"></path>
                        <path d="M72.270936,93.7241994 L84.7278325,93.7241994 L84.7278325,71.2745671 L72.270936,71.2745671 L72.270936,93.7241994 Z M85.8633005,96 L71.135468,96 C70.5086207,96 70,95.490566 70,94.8614829 L70,70.1372836 C70,69.5082005 70.5086207,69 71.135468,69 L85.8633005,69 C86.4913793,69 87,69.5082005 87,70.1372836 L87,94.8614829 C87,95.490566 86.4913793,96 85.8633005,96 L85.8633005,96 Z" id="Fill-93" fill="#000000" mask="url(#mask-8)"></path>
                        <path d="M85.8644498,83 L71.1355502,83 C70.5086575,83 70,82.5523035 70,82.000542 C70,81.4476965 70.5086575,81 71.1355502,81 L85.8644498,81 C86.4913425,81 87,81.4476965 87,82.000542 C87,82.5523035 86.4913425,83 85.8644498,83" id="Fill-94" fill="#000000" mask="url(#mask-8)"></path>
                        <path d="M72.2721675,130.725329 L84.729064,130.725329 L84.729064,108.275905 L72.2721675,108.275905 L72.2721675,130.725329 Z M85.864532,133 L71.1366995,133 C70.5098522,133 70,132.491776 70,131.863898 L70,107.137336 C70,106.509457 70.5098522,106 71.1366995,106 L85.864532,106 C86.4913793,106 87,106.509457 87,107.137336 L87,131.863898 C87,132.491776 86.4913793,133 85.864532,133 L85.864532,133 Z" id="Fill-95" fill="#000000" mask="url(#mask-8)"></path>
                        <path d="M85.8644498,120 L71.1355502,120 C70.5086575,120 70,119.552304 70,118.999458 C70,118.447696 70.5086575,118 71.1355502,118 L85.8644498,118 C86.4913425,118 87,118.447696 87,118.999458 C87,119.552304 86.4913425,120 85.8644498,120" id="Fill-96" fill="#000000" mask="url(#mask-8)"></path>
                        <path d="M58.840759,61 L1.14721998,61 C0.698296249,61 0.290409866,60.7385599 0.10387646,60.3302153 C-0.0826569466,59.9218708 -0.0142613642,59.441319 0.279217862,59.1014468 L30.2004198,24.3983849 C30.4180421,24.1444145 30.7351489,24 31.0684219,24 L91.8534413,24 C92.4864114,24 93,24.5141655 93,25.1478466 C93,25.7827725 92.4864114,26.2969381 91.8534413,26.2969381 L31.5932026,26.2969381 L3.65174185,58.7030619 L58.840759,58.7030619 C59.4737291,58.7030619 59.9873177,59.2172275 59.9873177,59.8521534 C59.9873177,60.4858345 59.4737291,61 58.840759,61" id="Fill-97" fill="#000000" mask="url(#mask-8)"></path>
                        <path d="M58.8585143,158 L4.14272372,158 C3.51131625,158 3,157.489818 3,156.859811 L3,60.1401887 C3,59.5101819 3.51131625,59 4.14272372,59 C4.77289314,59 5.28420938,59.5101819 5.28420938,60.1401887 L5.28420938,155.720858 L58.8585143,155.720858 C59.4886838,155.720858 60,156.23104 60,156.859811 C60,157.489818 59.4886838,158 58.8585143,158" id="Fill-98" fill="#000000" mask="url(#mask-8)"></path>
                        <path d="M42.8267509,158 C42.1790461,158 41.6535017,157.491603 41.6535017,156.8638 L41.6535017,118.271169 L19.3464983,118.271169 L19.3464983,156.8638 C19.3464983,157.491603 18.8209539,158 18.1732491,158 C17.5255443,158 17,157.491603 17,156.8638 L17,117.134969 C17,116.508397 17.5255443,116 18.1732491,116 L42.8267509,116 C43.4744557,116 44,116.508397 44,117.134969 L44,156.8638 C44,157.491603 43.4744557,158 42.8267509,158" id="Fill-99" fill="#000000" mask="url(#mask-8)"></path>
                        <path d="M15.2875881,83.7732332 L48.7136518,83.7732332 L48.7136518,70.224353 L15.2875881,70.224353 L15.2875881,83.7732332 Z M49.8568259,86 L14.1431741,86 C13.5120726,86 13,85.5015422 13,84.8872201 L13,69.1127799 C13,68.4972509 13.5120726,68 14.1431741,68 L49.8568259,68 C50.4879274,68 51,68.4972509 51,69.1127799 L51,84.8872201 C51,85.5015422 50.4879274,86 49.8568259,86 L49.8568259,86 Z" id="Fill-100" fill="#000000" mask="url(#mask-8)"></path>
                        <path d="M49.8568259,74 L14.144414,74 C13.5133125,74 13,73.5523035 13,72.999458 C13,72.4476965 13.5133125,72 14.144414,72 L49.8568259,72 C50.4879274,72 51,72.4476965 51,72.999458 C51,73.5523035 50.4879274,74 49.8568259,74" id="Fill-101" fill="#000000" mask="url(#mask-8)"></path>
                        <path d="M31,86 C30.4479393,86 30,85.4935415 30,84.8693591 L30,72.1294147 C30,71.5064585 30.4479393,71 31,71 C31.5520607,71 32,71.5064585 32,72.1294147 L32,84.8693591 C32,85.4935415 31.5520607,86 31,86" id="Fill-102" fill="#000000" mask="url(#mask-8)"></path>
                        <path d="M190.296977,19 C185.964211,19 182.212374,22.1846955 181.570354,26.4085716 L181.440106,27.263363 L180.565254,27.3009237 C175.763363,27.5103533 172,31.3950444 172,36.1447708 C172,41.0288053 176.022707,45 180.967524,45 L203.033628,45 C207.977293,45 212,41.0288053 212,36.1447708 C212,31.2630127 207.977293,27.2906799 203.033628,27.2906799 C202.15186,27.2906799 201.27816,27.4181587 200.435582,27.6697019 L199.208022,28.0362037 L199.070858,26.7762115 C198.591361,22.3440441 194.818776,19 190.296977,19 M202.970202,47 L181.029798,47 C174.947593,47 170,42.1187246 170,36.1180461 C170,30.5594754 174.194624,25.966531 179.696916,25.3175034 C180.825797,20.5221619 185.243905,17 190.306105,17 C195.480621,17 199.859762,20.5459068 200.940508,25.4226594 C201.608668,25.299412 202.287143,25.2360923 202.970202,25.2360923 C209.051261,25.2360923 214,30.1184984 214,36.1180461 C214,42.1187246 209.051261,47 202.970202,47" id="Fill-103" fill="#000000" mask="url(#mask-8)"></path>
                    </g>
                </g>
            </g>
        </g>
    </g>
</svg>