<svg width="190" height="33" viewBox="0 0 190 33" fill="none" xmlns="http://www.w3.org/2000/svg"><path d="M48.404 32.36c-.137 0-.229-.091-.229-.229V.252c0-.137.092-.23.23-.23h5.041c.137 0 .23.093.23.23v26.872c0 .138.045.184.182.184h15.584c.138 0 .23.092.23.23v4.593c0 .138-.093.23-.23.23H48.404z" fill="#29C97C"/><path fill-rule="evenodd" clip-rule="evenodd" d="M72.926 20.74c0 7.165 4.216 12.08 11.367 12.08 7.15 0 11.412-4.915 11.412-12.08 0-7.166-4.262-12.082-11.412-12.082-7.15 0-11.367 4.87-11.367 12.081zm5.5 0c0-4.318 2.016-7.029 5.867-7.029 3.895 0 5.912 2.71 5.912 7.028s-2.017 7.028-5.912 7.028c-3.85 0-5.867-2.71-5.867-7.028z" fill="#29C97C"/><path d="M97.815 13.94c-.138 0-.23-.09-.23-.229V9.347c0-.137.092-.23.23-.23h3.758c.137 0 .229-.09.229-.229V2.687c0-.138.092-.23.229-.23h5.042c.137 0 .229.092.229.23v6.201c0 .138.092.23.229.23h4.675c.138 0 .229.092.229.23v4.363c0 .138-.091.23-.229.23h-4.675c-.137 0-.229.092-.229.23v11.667c0 .919.734 1.47 1.65 1.47h3.254c.138 0 .229.092.229.23v4.593c0 .138-.091.23-.229.23h-3.575c-4.812 0-6.829-1.883-6.829-6.477V14.171c0-.138-.092-.23-.229-.23h-3.758zm46.888 18.42c-.138 0-.229-.091-.229-.229V19.407c0-2.756-1.009-5.696-4.171-5.696-3.117 0-4.125 2.48-4.125 5.696v12.724c0 .138-.092.23-.229.23h-5.042c-.138 0-.229-.092-.229-.23V19.407c0-2.756-1.009-5.696-4.171-5.696-3.117 0-4.125 2.48-4.125 5.696v12.724c0 .138-.092.23-.229.23h-5.042c-.138 0-.229-.092-.229-.23V9.347c0-.137.091-.23.229-.23h4.354c.275 0 .367.093.458.277l.459 1.377c.091.184.275.23.412.092.963-.964 3.438-2.205 5.546-2.205 2.704 0 4.767 1.103 5.959 2.71a.214.214 0 00.366 0c1.284-1.377 3.163-2.71 6.096-2.71 5.775 0 9.213 3.308 9.213 10.474v13c0 .137-.092.229-.23.229h-5.041z" fill="#29C97C"/><path fill-rule="evenodd" clip-rule="evenodd" d="M155.383 6.316c0 .138.092.23.229.23h5.959c.138 0 .229-.092.229-.23V.252c0-.137-.091-.23-.229-.23h-5.959c-.137 0-.229.093-.229.23v6.064zm.459 25.815c0 .138.091.23.229.23h5.041c.138 0 .23-.092.23-.23V9.347c0-.137-.092-.23-.23-.23h-5.041c-.138 0-.229.093-.229.23v22.784z" fill="#29C97C"/><path d="M189.805 31.993c.137.184 0 .368-.184.368h-5.774a.547.547 0 01-.413-.23l-5.133-6.844c-.092-.138-.23-.138-.321 0l-5.088 6.844c-.092.138-.229.23-.366.23h-5.821c-.184 0-.321-.184-.184-.368l8.296-10.978c.092-.138.092-.23 0-.367l-8.296-11.163c-.137-.184 0-.367.184-.367h5.637c.138 0 .275.092.367.23l5.271 7.027a.214.214 0 00.366 0l5.271-7.028a.547.547 0 01.413-.23h5.591c.184 0 .321.184.184.368l-8.296 11.163c-.092.137-.092.23 0 .367l8.296 10.978z" fill="#29C97C"/><path fill-rule="evenodd" clip-rule="evenodd" d="M32.765 0H.235C.095 0 0 .09 0 .227v31.546c0 .136.094.227.235.227h32.53c.14 0 .235-.091.235-.227V.227C33 .091 32.906 0 32.765 0zM2.618 2.525h2.305L2.618 4.752V2.525zm6.634 0L2.616 8.934v.7l7.36-7.109h-.724zM2.616 13.036L13.5 2.526h1.449L2.616 14.435v-1.4zM17.75 2.526L2.616 17.138v2.098L19.923 2.525H17.75zM2.616 21.24L21.998 2.525h2.898L2.616 24.04v-2.798zm23.63-18.716L2.617 25.343v3.498L29.869 2.525h-3.622zm4.139 26.812h-2.306l2.305-2.227v2.227zm-6.677 0l6.677-6.447v-.7l-7.402 7.147h.725zm6.677-10.55l-10.926 10.55H18.01l12.374-11.949v1.4zM15.21 29.337l15.174-14.652v-2.099l-17.347 16.75h2.173zm15.174-18.754L10.962 29.337H8.064l22.32-21.553v2.799zM6.714 29.337L30.383 6.48V2.982L3.091 29.337h3.622z" fill="#29C97C"/></svg>