<svg width="145" height="16" viewBox="0 0 145 16" xmlns="http://www.w3.org/2000/svg"><g id="wirefame" stroke="none" stroke-width="1" fill="none" fill-rule="evenodd"><g id="landing-page_upd_v-1" transform="translate(-919 -5389)" fill="#FFF" fill-rule="nonzero"><g id="Landconnect-white" transform="translate(919 5389)"><path d="M23.078 15.074a.1.1 0 01-.107-.107V.107A.1.1 0 0123.078 0h2.358a.1.1 0 01.107.107v12.52c0 .064.02.086.085.086h7.284a.1.1 0 01.108.107v2.141a.1.1 0 01-.108.108l-9.834.005z" id="Path"/><path d="M38.12 15.792c-3.01 0-4.382-1.528-4.382-3.516-.002-1.878 1.614-3.537 4.845-3.537h2.08c.442 0 .663-.261.663-.48 0-.459-.154-1.55-2.323-1.55-1.681 0-2.169.7-2.234 1.441a.104.104 0 01-.031.079.107.107 0 01-.08.03h-2.411a.106.106 0 01-.08-.03.103.103 0 01-.03-.079c0-2.576 2.256-3.843 4.867-3.843 3.054 0 4.979 1.42 4.979 4.148v4.237c0 .437.332.7.797.7h.332c.03-.002.06.008.08.03.022.02.033.05.03.079v1.96a.101.101 0 01-.03.079.104.104 0 01-.08.03h-1.135c-1.15 0-1.747-.437-2.169-1.049a.124.124 0 00-.198 0c-.572.573-1.743 1.271-3.49 1.271zm3.208-4.759a.101.101 0 00-.03-.08.104.104 0 00-.081-.029h-2.523c-1.97 0-2.303.785-2.303 1.354 0 .459.399 1.12 1.727 1.12 2.28-.008 3.208-1.274 3.208-2.366l.002.001z" id="Shape"/><path d="M52.108 4.307c3.423 0 4.6 2.492 4.6 5.297v6.077a.105.105 0 01-.03.08.1.1 0 01-.08.03h-2.397a.1.1 0 01-.08-.03.105.105 0 01-.029-.08V9.604c0-1.335-.699-2.853-2.42-2.853-1.7 0-2.398 1.284-2.398 2.626v6.3a.105.105 0 01-.03.08.1.1 0 01-.079.03h-2.397a.1.1 0 01-.08-.03.105.105 0 01-.03-.08V4.64a.105.105 0 01.03-.081.1.1 0 01.08-.03h2.07c.132 0 .175.02.197.11l.24.691a.139.139 0 00.24.021c.457-.489 1.678-1.045 2.593-1.045z" id="Path"/><path d="M62.479 15.792c-3.111 0-5.053-2.366-5.053-5.813 0-3.446 2.14-5.812 5.053-5.812 1.414 0 2.427.62 2.868 1.062.088.088.198.044.198-.067V.111a.104.104 0 01.11-.11h2.427a.103.103 0 01.11.11v15.35a.104.104 0 01-.11.11h-2.094c-.133 0-.177-.023-.22-.11l-.221-.71c-.044-.089-.155-.089-.244 0-.53.532-1.7 1.041-2.824 1.041zm.441-2.433c1.765 0 2.625-1.393 2.625-3.384 0-2.211-.86-3.384-2.625-3.384-1.875 0-2.847 1.394-2.847 3.384s.972 3.384 2.847 3.384z" id="Shape"/><path d="M80.343 8.145c.023.087-.044.109-.11.109h-2.54a.172.172 0 01-.158-.11c-.381-.962-1.121-1.529-2.42-1.529-1.885 0-2.781 1.485-2.781 3.43 0 1.946.904 3.43 2.786 3.43 1.502 0 2.084-.568 2.467-1.529a.166.166 0 01.156-.11h2.537c.066 0 .134.023.112.11-.471 2.492-2.443 3.846-5.269 3.846-3.498 0-5.494-2.338-5.494-5.742 0-3.405 1.996-5.743 5.494-5.743 2.844-.008 4.84 1.499 5.22 3.838z" id="Path"/><path d="M86.487 15.792c-3.38 0-5.373-2.338-5.373-5.742 0-3.405 1.993-5.743 5.373-5.743s5.394 2.338 5.394 5.743c0 3.404-2.008 5.742-5.394 5.742zm0-9.09c-1.82 0-2.777 1.289-2.777 3.343 0 2.055.952 3.344 2.777 3.344 1.825 0 2.794-1.293 2.794-3.344 0-2.05-.952-3.343-2.794-3.343z" id="Shape"/><path d="M98.049 4.307c3.421 0 4.6 2.492 4.6 5.297v6.077a.105.105 0 01-.03.08.1.1 0 01-.08.03h-2.397a.1.1 0 01-.08-.03.105.105 0 01-.03-.08V9.604c0-1.335-.698-2.853-2.42-2.853-1.7 0-2.397 1.284-2.397 2.626v6.3a.105.105 0 01-.03.08.1.1 0 01-.08.03h-2.397a.1.1 0 01-.08-.03.105.105 0 01-.029-.08V4.64a.105.105 0 01.03-.081.1.1 0 01.08-.03h2.07c.131 0 .175.02.196.11l.24.691a.139.139 0 00.24.021c.457-.489 1.678-1.045 2.594-1.045zm11.485 0c3.422 0 4.6 2.492 4.6 5.297v6.077a.11.11 0 01-.03.08.102.102 0 01-.08.03h-2.397a.1.1 0 01-.08-.03.105.105 0 01-.03-.08V9.604c0-1.335-.698-2.853-2.42-2.853-1.72 0-2.397 1.284-2.397 2.626v6.3a.105.105 0 01-.03.08.1.1 0 01-.079.03h-2.398a.1.1 0 01-.079-.03.105.105 0 01-.03-.08V4.64a.105.105 0 01.03-.081.1.1 0 01.08-.03h2.07c.13 0 .175.02.196.11l.24.691a.139.139 0 00.239.021c.458-.489 1.68-1.045 2.595-1.045z" id="Path"/><path d="M125.398 11.048h-7.678a.104.104 0 00-.08.03.102.102 0 00-.03.078c0 1.203 1.059 2.23 2.626 2.23.97 0 1.765-.241 2.14-.98.03-.07.1-.113.177-.11h2.58c.067 0 .134.044.111.11-.485 2.119-2.493 3.386-5.008 3.386-3.222 0-5.385-2.338-5.385-5.742 0-3.405 2.163-5.743 5.385-5.743s5.383 2.324 5.383 5.736c-.003.301-.04.601-.11.895-.022.065-.044.11-.11.11zm-2.687-2.186c.066 0 .088-.021.088-.087 0-.874-.75-2.076-2.559-2.076-1.809 0-2.626 1.224-2.626 2.076 0 .066.022.087.089.087h5.008z" id="Shape"/><path d="M137.055 8.145c.022.087-.046.109-.112.109h-2.534a.172.172 0 01-.158-.11c-.381-.962-1.12-1.529-2.42-1.529-1.885 0-2.782 1.485-2.782 3.43 0 1.946.897 3.43 2.781 3.43 1.502 0 2.086-.568 2.467-1.529a.166.166 0 01.157-.11h2.534c.067 0 .133.023.112.11-.472 2.492-2.444 3.846-5.27 3.846-3.498 0-5.493-2.338-5.493-5.742 0-3.405 1.995-5.743 5.493-5.743 2.848-.008 4.843 1.499 5.225 3.838zm.878-1.197a.104.104 0 01-.111-.11V4.743a.103.103 0 01.11-.11h1.816a.104.104 0 00.11-.11V1.546a.103.103 0 01.111-.11h2.44a.104.104 0 01.112.11v2.977a.103.103 0 00.11.11h2.258a.104.104 0 01.11.11v2.095a.103.103 0 01-.11.11h-2.258a.104.104 0 00-.11.11v5.602c0 .44.353.706.796.706h1.572a.104.104 0 01.11.11v2.206a.103.103 0 01-.11.11h-1.727c-2.324 0-3.298-.905-3.298-3.11V7.058a.103.103 0 00-.11-.11h-1.821z" id="Path"/><path d="M14.966 0H.108A.1.1 0 000 .107v14.86a.1.1 0 00.108.107h14.858a.1.1 0 00.108-.107V.107A.1.1 0 0014.966 0zM1.196 1.19h1.052L1.195 2.24V1.19zm0 3.02l3.032-3.02h.33L1.195 4.538V4.21zm0 1.932l4.97-4.952h.662L1.195 6.8v-.658zm0 1.932L8.107 1.19h.99L1.194 9.06v-.985zm0 1.933l8.853-8.817h1.324L1.195 11.324v-1.317zm0 1.934L11.991 1.19h1.654L1.196 13.587V11.94zm12.68 1.881h-1.05l1.053-1.048-.003 1.048zm0-3.037L10.83 13.82h-.33l3.379-3.367-.003.332zm0-1.932l-4.99 4.97h-.661l5.651-5.628v.658zm0-1.933l-6.927 6.9h-.994l7.924-7.89-.003.99zm0-1.932L5.008 13.82H3.683l10.2-10.157-.007 1.325zm0-1.933L3.067 13.82H1.413L13.88 1.406l-.004 1.65z" id="Shape"/></g></g></g></svg>