<svg width="351" height="298" viewBox="0 0 351 298" fill="none" xmlns="http://www.w3.org/2000/svg">
  <path opacity=".14" d="M51.4 247.03c-68.54 11.57-68.54 30.33 0 41.9 68.55 11.57 179.68 11.57 248.2 0 68.54-11.58 68.54-30.34 0-41.9-68.55-11.58-179.65-11.58-248.2 0z" fill="url(#paint0_linear)"/>
  <path d="M315.42 256.47h-2.39l-20.81-54.14a4.41 4.41 0 00-4.08-2.81H62.86a4.28 4.28 0 00-4.08 2.81l-20.8 54.14h-2.4v7.03a4.3 4.3 0 004.36 4.36h270.98c2.53 0 4.36-2.1 4.36-4.36v-7.03h.14z" fill="#D6D7DB"/>
  <path d="M285.75 30.35H65.39a5.64 5.64 0 00-5.62 5.62v151.17c0 3.1 2.53 5.63 5.62 5.63h220.36c3.1 0 5.62-2.53 5.62-5.63V35.97c0-3.09-2.53-5.62-5.62-5.62z" fill="#fff"/>
  <path d="M277.77 179.37V43.95H73.31v135.42h204.46z" fill="#6EC5EF"/>
  <path d="M315.14 255.06l-22.78-59.48a4.41 4.41 0 00-4.08-2.81H62.86a4.28 4.28 0 00-4.08 2.81l-22.92 59.48a4.4 4.4 0 004.08 6.05h270.98c3.23 0 5.34-3.1 4.22-6.05z" fill="#EBF0F3"/>
  <path d="M207 248.6l-4.08-10.69a1.83 1.83 0 00-1.68-1.13h-51.47c-.7 0-1.4.43-1.7 1.13L144 248.6a1.79 1.79 0 001.69 2.39h59.62c1.27 0 2.11-1.27 1.69-2.4zM280.44 208.52H71.05c-1.13 0-1.97.7-2.4 1.69l-7.58 19.68a2.55 2.55 0 002.39 3.52h224.43c1.83 0 3.1-1.83 2.39-3.52l-7.6-19.68a2.24 2.24 0 00-2.24-1.7z" fill="#D6D7DB"/>
  <path d="M179.72 37.38c0 1.26-.98 2.25-2.25 2.25a2.22 2.22 0 01-2.25-2.25c0-1.27.98-2.25 2.25-2.25s2.25.98 2.25 2.25z" fill="#EA4F44"/>
  <path d="M176.49 1.66c-1.83-1.69-4.93-1.69-6.61 0L117.7 51.58c-1.83 1.69-1.27 3.1 1.26 3.1l108.42-1.7c2.53 0 3.1-1.4 1.27-3.23L176.49 1.66z" fill="#F8E676"/>
  <path d="M176.34 2.64a5.13 5.13 0 00-6.75 0L117.7 51.58c-1.82 1.69-1.26 3.1 1.27 3.1h110.1c2.54 0 3.1-1.41 1.13-3.1L176.34 2.64z" fill="#F8E676"/>
  <path d="M236.95 133.42c0 2.53-2.1 4.64-4.64 4.64h-112.5a4.68 4.68 0 01-4.64-4.64V54.4c0-2.53 2.11-4.64 4.64-4.64h112.5c2.53 0 4.64 2.11 4.64 4.64v79.03z" fill="#D9A245"/>
  <path d="M232.73 128.78c0 2.53-2.1 4.64-4.64 4.64H119.81a4.68 4.68 0 01-4.64-4.64V53.41c0-2.53 2.11-4.64 4.64-4.64h108.42c2.53 0 4.65 2.1 4.65 4.64v75.37h-.15z" fill="#F3D151"/>
  <path d="M176.34 101.92c-1.82 1.7-4.92 1.7-6.6 0L117.55 52c-1.83-1.68-1.26-3.09 1.27-3.09l108.42 1.69c2.53 0 3.1 1.4 1.26 3.23l-52.17 48.1z" fill="#A68937"/>
  <path d="M176.2 100.94a5.13 5.13 0 01-6.75 0L117.56 52c-1.83-1.68-1.26-3.09 1.27-3.09h110.1c2.54 0 3.1 1.4 1.13 3.1l-53.86 48.93z" fill="#F8E676"/>
  <path d="M176.34 101.92c-1.82 1.7-4.92 1.7-6.6 0L117.55 52c-1.83-1.68-1.26-3.09 1.27-3.09l108.42 1.69c2.53 0 3.1 1.4 1.26 3.23l-52.17 48.1z" fill="#A68937"/>
  <path d="M176.2 100.94a5.13 5.13 0 01-6.75 0L117.56 52c-1.83-1.68-1.26-3.09 1.27-3.09h110.1c2.54 0 3.1 1.4 1.13 3.1l-53.86 48.93z" fill="#F8E676"/>
  <path d="M184.36 17.27h-43.88c-5.9 0-10.68 4.5-10.68 9.98v71.02c0 5.48 4.78 9.98 10.69 9.98h71.15c5.9 0 10.69-4.5 10.69-9.98V46.94l-37.97-29.67z" fill="#fff"/>
  <path d="M188.44 26.13l33.89 20.67s-5.06 0-8.02.7c-1.97.43-3.51 1.13-6.19 1.97-7.59 2.11-10.68-2.1-12.37-4.07-2.53-2.96-2.67-8.72-3.8-11.96-.42-1.26-1.96-6.47-3.51-7.3z" fill="#B8B8B8"/>
  <path d="M184.36 17.27l38.1 29.53s-5.9-.56-9.41-.14c-2.25.28-4.22.98-7.46 1.55-9.14 1.54-12.37-3.8-14.06-6.33-2.81-3.94-2.25-10.83-3.23-14.9-.57-1.7-2.25-8.59-3.94-9.71z" fill="#E4E3E3"/>
  <path d="M176.2 100.94a5.13 5.13 0 01-6.75 0l-50.9-47.95c-1.83-1.7-3.38-1.13-3.38 1.4v74.4c0 2.52 2.11 4.63 4.64 4.63h108.42c2.53 0 4.65-2.1 4.65-4.64V54.11c0-2.53-1.55-3.23-3.38-1.55l-53.3 48.38z" fill="#F3D151"/>
  <path d="M176.77 93.77a7.1 7.1 0 00-7.46 0l-50.34 36.98c-1.97 1.55-1.69 2.68.84 2.68h108.42c2.54 0 2.96-1.13.85-2.68l-52.31-36.98z" fill="#DEB747"/>
  <path d="M194.63 57.91a19 19 0 00-37.97 0c0 10.4 8.58 18.98 18.98 18.98 10.4.14 18.99-8.43 18.99-18.98z" fill="#EC6260"/>
  <path d="M178.17 57.91l6.05-6.05c.7-.7.7-1.97 0-2.67s-1.97-.7-2.67 0l-6.05 6.05-6.04-6.05c-.7-.7-1.97-.7-2.68 0-.7.7-.7 1.97 0 2.67l6.05 6.05-6.05 6.05c-.7.7-.7 1.97 0 2.67.43.42.85.56 1.27.56.42 0 .98-.14 1.26-.56l6.05-6.05 6.05 6.05c.42.42.84.56 1.26.56.43 0 .99-.14 1.27-.56.7-.7.7-1.97 0-2.67l-5.77-6.05z" fill="#fff"/>
  <defs>
    <linearGradient id="paint0_linear" x1="74.15" y1="297.61" x2="106.08" y2="188.4" gradientUnits="userSpaceOnUse">
      <stop stop-color="#1ED6FE" stop-opacity=".62"/>
      <stop offset="1" stop-opacity=".61"/>
    </linearGradient>
  </defs>
</svg>