<svg xmlns="http://www.w3.org/2000/svg" xmlns:xlink="http://www.w3.org/1999/xlink" version="1.1" x="0px" y="0px" viewBox="-255 347 100 100" enable-background="new -255 347 100 100" xml:space="preserve"><path fill="#3D40C6" d="M-178.5,390l-24.6-17.7c-0.7-0.5-1.6-0.5-2.3,0l-7.6,5.3v-2.4c0-1.1-0.9-2-2-2h-8.4c-1.1,0-2,0.9-2,2v11  c0,0,0,0,0,0l-5.3,3.7c-0.9,0.6-1.1,1.9-0.5,2.8c0.4,0.6,1,0.9,1.6,0.9c0.4,0,0.8-0.1,1.1-0.4l1.5-1V417c0,1.1,0.9,2,2,2h14.6  c1.1,0,2-0.9,2-2v-10.3h7.5V417c0,1.1,0.9,2,2,2h14.7c1.1,0,2-0.9,2-2v-24.7l1.3,1c0.9,0.6,2.1,0.4,2.8-0.5  C-177.4,391.9-177.6,390.7-178.5,390z M-221.5,377.2h4.4v3.2l-4.4,3.1V377.2z M-186.2,415h-10.7v-10.3c0-1.1-0.9-2-2-2h-11.5  c-1.1,0-2,0.9-2,2V415H-223v-24.9c0-0.2,0-0.4-0.1-0.6l18.8-13.1l18.1,13V415z"></path></svg>