<svg width="16" height="16" viewBox="0 0 16 16" fill="none" xmlns="http://www.w3.org/2000/svg">
<path d="M8.9375 8C8.9375 8.51777 8.51777 8.9375 8 8.9375C7.48223 8.9375 7.0625 8.51777 7.0625 8C7.0625 7.48223 7.48223 7.0625 8 7.0625C8.51777 7.0625 8.9375 7.48223 8.9375 8Z" fill="#38393B" stroke="#38393B" stroke-width="0.125"/>
<path d="M4.9375 8C4.9375 8.51777 4.51777 8.9375 4 8.9375C3.48223 8.9375 3.0625 8.51777 3.0625 8C3.0625 7.48223 3.48223 7.0625 4 7.0625C4.51777 7.0625 4.9375 7.48223 4.9375 8Z" fill="#38393B" stroke="#38393B" stroke-width="0.125"/>
<path d="M12.9375 8C12.9375 8.51777 12.5178 8.9375 12 8.9375C11.4822 8.9375 11.0625 8.51777 11.0625 8C11.0625 7.48223 11.4822 7.0625 12 7.0625C12.5178 7.0625 12.9375 7.48223 12.9375 8Z" fill="#38393B" stroke="#38393B" stroke-width="0.125"/>
</svg>
