<svg xmlns="http://www.w3.org/2000/svg" xmlns:xlink="http://www.w3.org/1999/xlink" version="1.1" x="0px" y="0px" viewBox="0 0 100 100" enable-background="new 0 0 100 100" xml:space="preserve"><g><circle fill='#565656' cx="47.109" cy="17.648" r="3.413"></circle><ellipse fill='#565656' cx="37.927" cy="17.27" rx="4.259" ry="5.309"></ellipse><circle fill='#565656' cx="54.146" cy="21.062" r="3.034"></circle><circle fill='#565656' cx="59.834" cy="25.234" r="2.655"></circle><circle fill='#565656' cx="63.247" cy="30.922" r="2.275"></circle></g><path fill='#565656' d="M42.356,24.854C42.356,24.854,43.802,24.854,42.356,24.854c-4.342,0-6.51,2.17-6.51,5.789c0,2.895,0.722,5.789,3.616,8.683  c3.618,3.618,9.408,7.236,9.408,12.301c0,2.894-0.365,8.321-4.344,12.301c-5.065,5.065-7.825,9.711-7.825,14.776  c0,5.066,3.312,9.102,9.101,9.102c5.788,0,9.102-4.106,9.102-10.618s-0.246-12.537,2.649-19.049  c2.895-6.512,4.341-9.406,5.065-11.577c0.724-2.17,0.724-3.618,0.724-5.065c0-4.341-3.258-7.599-5.067-9.408  C53.21,27.023,48.144,24.854,42.356,24.854z"></path><rect fill="none" width="100" height="100"></rect></svg>