<?xml version="1.0" encoding="UTF-8" standalone="no"?>
<!DOCTYPE svg PUBLIC "-//W3C//DTD SVG 1.1//EN" "http://www.w3.org/Graphics/SVG/1.1/DTD/svg11.dtd">
<svg version="1.1" xmlns="http://www.w3.org/2000/svg" xmlns:xlink="http://www.w3.org/1999/xlink" preserveAspectRatio="xMidYMid meet" viewBox="0 0 150 150" width="90" height="90"><defs><path d="M0 0L150 0L150 150L0 150L0 0Z" id="b1WJQffx9A"></path><path d="M0 0L30 0L30 30L0 30L0 0Z" id="bhlHLFT3"></path><path d="M30 0L60 0L60 30L30 30L30 0Z" id="a1ebvPEXHu"></path><path d="M60 0L90 0L90 30L60 30L60 0Z" id="a2ks8OhsQ9"></path><path d="M90 0L120 0L120 30L90 30L90 0Z" id="a5EezqdHDa"></path><path d="M120 0L150 0L150 30L120 30L120 0Z" id="axDTzWVGj"></path><path d="M0 30L30 30L30 60L0 60L0 30Z" id="agivlbFnT"></path><path d="M30 30L60 30L60 60L30 60L30 30Z" id="apeITCs"></path><path d="M60.01 30L90.01 30L90.01 60L60.01 60L60.01 30Z" id="a63GMAGr4"></path><path d="M90 30L120 30L120 60L90 60L90 30Z" id="g4V5nHEPx"></path><path d="M120.01 30L150.01 30L150.01 60L120.01 60L120.01 30Z" id="bNd1rSMZd"></path><path d="M0 60L30 60L30 90L0 90L0 60Z" id="b17cOoN8ml"></path><path d="M30 60L60 60L60 90L30 90L30 60Z" id="c3QcoR08Bu"></path><path d="M60 60L90 60L90 90L60 90L60 60Z" id="d1DFcsWhZ0"></path><path d="M90.01 60L120.01 60L120.01 90L90.01 90L90.01 60Z" id="bamuWGY8u"></path><path d="M120 60L150 60L150 90L120 90L120 60Z" id="aiEjBQU7p"></path><path d="M0 90L30 90L30 120L0 120L0 90Z" id="a13vURkbhx"></path><path d="M30 90L60 90L60 120L30 120L30 90Z" id="cvIV6YXso"></path><path d="M60.01 90L90.01 90L90.01 120L60.01 120L60.01 90Z" id="c4w9DMV44j"></path><path d="M90.01 90L120.01 90L120.01 120L90.01 120L90.01 90Z" id="en8aVmKfc"></path><path d="M120.01 90L150.01 90L150.01 120L120.01 120L120.01 90Z" id="godoOoJfz"></path><path d="M0 120L30 120L30 150L0 150L0 120Z" id="d1CwPejkn6"></path><path d="M30 120L60 120L60 150L30 150L30 120Z" id="b61TUIXMOG"></path><path d="M60.01 120L90.01 120L90.01 150L60.01 150L60.01 120Z" id="atuTzRekH"></path><path d="M90.01 120L120.01 120L120.01 150L90.01 150L90.01 120Z" id="b1ySxnCcHs"></path><path d="M120.01 120L150.01 120L150.01 150L120.01 150L120.01 120Z" id="c1glYWB3lu"></path></defs><g><g><g><g><use xlink:href="#b1WJQffx9A" opacity="1" fill-opacity="0" stroke="#e1eaec" stroke-width="1" stroke-opacity="1"></use></g></g><g><g><use xlink:href="#bhlHLFT3" opacity="1" fill-opacity="0" stroke="#fafafa" stroke-width="1" stroke-opacity="1"></use></g></g><g><g><use xlink:href="#a1ebvPEXHu" opacity="1" fill-opacity="0" stroke="#fafafa" stroke-width="1" stroke-opacity="1"></use></g></g><g><g><use xlink:href="#a2ks8OhsQ9" opacity="1" fill-opacity="0" stroke="#fafafa" stroke-width="1" stroke-opacity="1"></use></g></g><g><g><use xlink:href="#a5EezqdHDa" opacity="1" fill-opacity="0" stroke="#fafafa" stroke-width="1" stroke-opacity="1"></use></g></g><g><g><use xlink:href="#axDTzWVGj" opacity="1" fill-opacity="0" stroke="#fafafa" stroke-width="1" stroke-opacity="1"></use></g></g><g><g><use xlink:href="#agivlbFnT" opacity="1" fill-opacity="0" stroke="#fafafa" stroke-width="1" stroke-opacity="1"></use></g></g><g><g><use xlink:href="#apeITCs" opacity="1" fill-opacity="0" stroke="#fafafa" stroke-width="1" stroke-opacity="1"></use></g></g><g><g><use xlink:href="#a63GMAGr4" opacity="1" fill-opacity="0" stroke="#fafafa" stroke-width="1" stroke-opacity="1"></use></g></g><g><g><use xlink:href="#g4V5nHEPx" opacity="1" fill-opacity="0" stroke="#fafafa" stroke-width="1" stroke-opacity="1"></use></g></g><g><g><use xlink:href="#bNd1rSMZd" opacity="1" fill-opacity="0" stroke="#fafafa" stroke-width="1" stroke-opacity="1"></use></g></g><g><g><use xlink:href="#b17cOoN8ml" opacity="1" fill-opacity="0" stroke="#fafafa" stroke-width="1" stroke-opacity="1"></use></g></g><g><g><use xlink:href="#c3QcoR08Bu" opacity="1" fill-opacity="0" stroke="#fafafa" stroke-width="1" stroke-opacity="1"></use></g></g><g><g><use xlink:href="#d1DFcsWhZ0" opacity="1" fill-opacity="0" stroke="#fafafa" stroke-width="1" stroke-opacity="1"></use></g></g><g><g><use xlink:href="#bamuWGY8u" opacity="1" fill-opacity="0" stroke="#fafafa" stroke-width="1" stroke-opacity="1"></use></g></g><g><g><use xlink:href="#aiEjBQU7p" opacity="1" fill-opacity="0" stroke="#fafafa" stroke-width="1" stroke-opacity="1"></use></g></g><g><g><use xlink:href="#a13vURkbhx" opacity="1" fill-opacity="0" stroke="#fafafa" stroke-width="1" stroke-opacity="1"></use></g></g><g><g><use xlink:href="#cvIV6YXso" opacity="1" fill-opacity="0" stroke="#fafafa" stroke-width="1" stroke-opacity="1"></use></g></g><g><g><use xlink:href="#c4w9DMV44j" opacity="1" fill-opacity="0" stroke="#fafafa" stroke-width="1" stroke-opacity="1"></use></g></g><g><g><use xlink:href="#en8aVmKfc" opacity="1" fill-opacity="0" stroke="#fafafa" stroke-width="1" stroke-opacity="1"></use></g></g><g><g><use xlink:href="#godoOoJfz" opacity="1" fill-opacity="0" stroke="#fafafa" stroke-width="1" stroke-opacity="1"></use></g></g><g><g><use xlink:href="#d1CwPejkn6" opacity="1" fill-opacity="0" stroke="#fafafa" stroke-width="1" stroke-opacity="1"></use></g></g><g><g><use xlink:href="#b61TUIXMOG" opacity="1" fill-opacity="0" stroke="#fafafa" stroke-width="1" stroke-opacity="1"></use></g></g><g><g><use xlink:href="#atuTzRekH" opacity="1" fill-opacity="0" stroke="#fafafa" stroke-width="1" stroke-opacity="1"></use></g></g><g><g><use xlink:href="#b1ySxnCcHs" opacity="1" fill-opacity="0" stroke="#fafafa" stroke-width="1" stroke-opacity="1"></use></g></g><g><g><use xlink:href="#c1glYWB3lu" opacity="1" fill-opacity="0" stroke="#fafafa" stroke-width="1" stroke-opacity="1"></use></g></g></g></g></svg>