<svg width="16" height="16" viewBox="0 0 16 16" fill="none" xmlns="http://www.w3.org/2000/svg">
<path d="M13.5 13.4996V7.2184C13.4989 7.1492 13.4839 7.08093 13.456 7.0176C13.4281 6.95427 13.3878 6.89716 13.3375 6.84965L8.33751 2.3059C8.24533 2.22157 8.12493 2.1748 8.00001 2.1748C7.87508 2.1748 7.75468 2.22157 7.66251 2.3059L2.66251 6.84965C2.61101 6.89623 2.56993 6.95315 2.54193 7.01669C2.51393 7.08023 2.49964 7.14896 2.50001 7.2184V13.4996" stroke="#38393B" stroke-linecap="round" stroke-linejoin="round"/>
<path d="M1 13.5H15" stroke="#38393B" stroke-linecap="round" stroke-linejoin="round"/>
<path d="M9.5 13.5V10C9.5 9.86739 9.44732 9.74021 9.35355 9.64645C9.25979 9.55268 9.13261 9.5 9 9.5H7C6.86739 9.5 6.74021 9.55268 6.64645 9.64645C6.55268 9.74021 6.5 9.86739 6.5 10V13.5" stroke="#38393B" stroke-linecap="round" stroke-linejoin="round"/>
</svg>
