<svg xmlns="http://www.w3.org/2000/svg" viewBox="0 0 109.36 109.83" width="109.36" height="109.83"><g id="Layer_2"><g id="Isolation_Mode"><path class="cls-1" d="M108.58,0H.78A.74.74,0,0,0,0,.78V109a.74.74,0,0,0,.78.78h107.8a.74.74,0,0,0,.78-.78V.78A.74.74,0,0,0,108.58,0ZM8.67,8.67h7.64L8.67,16.31Zm0,22,22-22h2.4L8.67,33.06Zm0,14.08L44.74,8.67h4.8L8.67,49.54Zm0,14.08L58.82,8.67H66L8.67,66Zm0,14.08L72.9,8.67h9.6L8.67,82.51ZM8.67,87,87,8.67H99L8.67,99Zm92,13.71H93.05L100.69,93Zm0-22.13L78.57,100.69h-2.4l24.53-24.53Zm0-14.08L64.49,100.69h-4.8l41-41Zm0-14.08L50.41,100.69H43.2L100.69,43.2Zm0-14.08L36.33,100.69h-9.6l74-74Zm0-14.08L22.25,100.69h-12l90.45-90.45Z"/></g></g></svg>