<svg xmlns="http://www.w3.org/2000/svg" viewBox="0 0 790.82 141.21"><defs><style>.cls-1{fill:#3D40C6;}</style></defs><title>Asset 1</title><g id="Layer_2" data-name="Layer 2"><g id="Isolation_Mode" data-name="Isolation Mode"><path class="cls-1" d="M108.58.55H.78A.74.74,0,0,0,0,1.33V109.59a.74.74,0,0,0,.78.78h107.8a.74.74,0,0,0,.78-.78V1.33A.74.74,0,0,0,108.58.55ZM8.67,9.21h7.64L8.67,16.86Zm0,22,22-22h2.4L8.67,33.61Zm0,14.08L44.74,9.21h4.8L8.67,50.09Zm0,14.08L58.82,9.21H66L8.67,66.57Zm0,14.08L72.9,9.21h9.6L8.67,83.05Zm0,14.08L87,9.21H99L8.67,99.53Zm92,13.71H93.05l7.64-7.64Zm0-22.13L78.57,101.23h-2.4l24.53-24.53Zm0-14.08L64.49,101.23h-4.8l41-41Zm0-14.08L50.41,101.23H43.2l57.49-57.49Zm0-14.08L36.33,101.23h-9.6l74-74Zm0-14.08L22.25,101.23h-12l90.45-90.45Z"/><path class="cls-1" d="M161.49,110.21a.74.74,0,0,1-.78-.78V.78a.74.74,0,0,1,.78-.78h17.22a.74.74,0,0,1,.78.78V92.37c0,.47.16.63.63.63h53.23a.74.74,0,0,1,.78.78v15.66a.74.74,0,0,1-.78.78Z"/><path class="cls-1" d="M267.32,111.78c-21.29,0-31-11-31-25.21,0-13.46,11.43-25.36,34.29-25.36h14.72c3.13,0,4.7-1.88,4.7-3.44,0-3.29-1.1-11.12-16.44-11.12-11.9,0-15.34,5-15.81,10.33a.74.74,0,0,1-.78.78H239.93a.74.74,0,0,1-.78-.78c0-18.47,16-27.55,34.44-27.55,21.6,0,35.23,10.18,35.23,29.75V89.55c0,3.13,2.35,5,5.64,5h2.35a.74.74,0,0,1,.78.78v14.09a.74.74,0,0,1-.78.78h-8c-8.14,0-12.37-3.13-15.34-7.51a.88.88,0,0,0-1.41,0C288,106.77,279.69,111.78,267.32,111.78ZM290,77.65a.74.74,0,0,0-.78-.78H271.39c-13.93,0-16.28,5.64-16.28,9.71,0,3.29,2.82,8,12.21,8C283.45,94.56,290,85.48,290,77.65Z"/><path class="cls-1" d="M365,29.43c24.58,0,33,17.53,33,37.26v42.74a.74.74,0,0,1-.78.78H380a.74.74,0,0,1-.78-.78V66.69c0-9.39-5-20-17.38-20-12.21,0-17.22,9.08-17.22,18.47v44.3a.74.74,0,0,1-.78.78H326.65a.74.74,0,0,1-.78-.78V31.78a.74.74,0,0,1,.78-.78h14.87c.94,0,1.25.16,1.41.78l1.72,4.85a1,1,0,0,0,1.72.16C349.67,33.35,358.43,29.43,365,29.43Z"/><path class="cls-1" d="M447.67,111.78c-22.07,0-35.85-16.75-35.85-41.17S427,29.43,447.67,29.43c10,0,17.22,4.38,20.35,7.51.63.63,1.41.31,1.41-.47V.78a.74.74,0,0,1,.78-.78h17.22a.74.74,0,0,1,.78.78V109.43a.74.74,0,0,1-.78.78H472.56c-.94,0-1.25-.16-1.57-.78l-1.57-5c-.31-.63-1.1-.63-1.72,0C463.95,108.18,455.65,111.78,447.67,111.78Zm3.13-17.22c12.52,0,18.63-9.86,18.63-24,0-15.66-6.11-24-18.63-24-13.31,0-20.2,9.86-20.2,24S437.49,94.56,450.8,94.56Z"/><path class="cls-1" d="M530.32,111.78c-23.33,0-35.69-13.46-35.69-27.55a.74.74,0,0,1,.78-.78h18a.74.74,0,0,1,.78.78c0,5,4.85,10.33,16.13,10.33,6.58,0,16-1.25,16-8.92,0-6.89-9.55-6.89-16-7.51C514.2,76.4,496,73.58,496,53.85c0-13.46,13.15-24.42,32.72-24.42,19.88,0,34.13,9.39,34.29,27.55,0,.47-.16.78-.63.78H544.88a.74.74,0,0,1-.78-.78c0-4.38-3.91-10.33-15.34-10.33-9.39,0-13.93,3.13-13.93,7.2,0,5,6.73,5.95,13.93,6.89,13.78,1.72,36.32,2.66,36.32,24.89C565.08,102.39,551.62,111.78,530.32,111.78Z"/><path class="cls-1" d="M616.74,29.43c22.07,0,35.85,16.75,35.85,41.17s-15.19,41.17-35.85,41.17c-10,0-17.22-4.38-20.35-7.51-.63-.63-1.41-.31-1.41.47v35.69a.74.74,0,0,1-.78.78H577a.74.74,0,0,1-.78-.78V31.78A.74.74,0,0,1,577,31h14.87c.94,0,1.25.16,1.57.78l1.57,5c.31.63,1.1.63,1.72,0C600.46,33,608.75,29.43,616.74,29.43Zm-3.13,17.22c-12.52,0-18.63,9.86-18.63,24,0,15.66,6.11,24,18.63,24,13.31,0,20.2-9.86,20.2-24S626.92,46.65,613.61,46.65Z"/><path class="cls-1" d="M701,111.78c-24.42,0-38.83-16.75-38.83-41.17,0-24.58,14.4-41.17,38.83-41.17s39,16.75,39,41.17S725.39,111.78,701,111.78Zm0-65.13c-13.15,0-20,9.24-20,24s6.89,24,20,24c13.31,0,20.2-9.24,20.2-24S714.27,46.65,701,46.65Z"/><path class="cls-1" d="M740.88,47.44a.74.74,0,0,1-.78-.78V31.78a.74.74,0,0,1,.78-.78h12.84a.74.74,0,0,0,.78-.78V9.08a.74.74,0,0,1,.78-.78h17.22a.74.74,0,0,1,.78.78V30.21a.74.74,0,0,0,.78.78h16a.74.74,0,0,1,.78.78V46.65a.74.74,0,0,1-.78.78h-16a.74.74,0,0,0-.78.78V88c0,3.13,2.5,5,5.64,5H790a.74.74,0,0,1,.78.78v15.66a.74.74,0,0,1-.78.78H777.83c-16.44,0-23.33-6.42-23.33-22.07V48.22a.74.74,0,0,0-.78-.78Z"/></g></g></svg>