<?xml version="1.0" encoding="utf-8"?>
<svg version="1.1" id="Layer_1" x="0px" y="0px" viewBox="-3.606 20.247 656.571 116.165" style="enable-background:new 0 0 652.1333008 165.2568359;" xmlns="http://www.w3.org/2000/svg">
  <style type="text/css">
	.st0{enable-background:new;}
	.st1{fill:#29C97C;}
</style>
  <g class="st0">
    <path class="st1" d="M163.375,132.8302307c-0.4677734,0-0.7797852-0.3115234-0.7797852-0.7792969V23.8565922 c0-0.4677734,0.3120117-0.7792969,0.7797852-0.7792969h17.1489258c0.4672852,0,0.7792969,0.3115234,0.7792969,0.7792969v91.2011719 c0,0.4677734,0.1557617,0.6240234,0.6235352,0.6240234h53.0058594c0.4677734,0,0.7792969,0.3115234,0.7792969,0.7792969v15.5898514 c0,0.4677734-0.3115234,0.7792969-0.7792969,0.7792969H163.375z"/>
    <path class="st1" d="M285.4458008,134.3888245c-24.3203125,0-38.6630859-16.6806717-38.6630859-41.0009842 c0-24.4765625,14.3427734-41.0019531,38.6630859-41.0019531s38.8188477,16.6816406,38.8188477,41.0019531 S309.7661133,134.3888245,285.4458008,134.3888245z M285.4458008,69.5353012 c-13.0957031,0-19.9550781,9.1982422-19.9550781,23.8525391s6.859375,23.8525391,19.9550781,23.8525391 c13.2514648,0,20.1108398-9.1982422,20.1108398-23.8525391S298.6972656,69.5353012,285.4458008,69.5353012z"/>
    <path class="st1" d="M331.4394531,70.3145981c-0.4677734,0-0.7792969-0.3115234-0.7792969-0.7792969V54.7247543 c0-0.4677734,0.3115234-0.7792969,0.7792969-0.7792969h12.7832031c0.4677734,0,0.7802734-0.3115234,0.7802734-0.7792969v-21.046875 c0-0.4677715,0.3115234-0.779295,0.7792969-0.779295h17.1484375c0.4677734,0,0.7792969,0.3115234,0.7792969,0.779295v21.046875 c0,0.4677734,0.3125,0.7792969,0.7802734,0.7792969h15.9013672c0.4677734,0,0.7792969,0.3115234,0.7792969,0.7792969v14.8105469 c0,0.4677734-0.3115234,0.7792969-0.7792969,0.7792969h-15.9013672c-0.4677734,0-0.7802734,0.3115234-0.7802734,0.7792969 v39.5986328c0,3.1181641,2.4951172,4.9892578,5.6123047,4.9892578h11.0693359c0.4677734,0,0.7792969,0.3115234,0.7792969,0.7792969 v15.5898514c0,0.4677734-0.3115234,0.7792969-0.7792969,0.7792969h-12.1601562 c-16.3691406,0-23.2285156-6.3916092-23.2285156-21.9814529V71.093895c0-0.4677734-0.3125-0.7792969-0.7802734-0.7792969 H331.4394531z"/>
    <path class="st1" d="M490.9257812,132.8302307c-0.4677734,0-0.7802734-0.3115234-0.7802734-0.7792969V88.8663559 c0-9.3535156-3.4296875-19.3310547-14.1865234-19.3310547c-10.6015625,0-14.03125,8.4179688-14.03125,19.3310547v43.1845779 c0,0.4677734-0.3115234,0.7792969-0.7792969,0.7792969H444c-0.4677734,0-0.7802734-0.3115234-0.7802734-0.7792969V88.8663559 c0-9.3535156-3.4296875-19.3310547-14.1865234-19.3310547c-10.6005859,0-14.0302734,8.4179688-14.0302734,19.3310547v43.1845779 c0,0.4677734-0.3125,0.7792969-0.7802734,0.7792969h-17.1484375c-0.4677734,0-0.7792969-0.3115234-0.7792969-0.7792969V54.7247543 c0-0.4677734,0.3115234-0.7792969,0.7792969-0.7792969h14.8105469c0.9355469,0,1.2470703,0.3115234,1.5585938,0.9355469 l1.5595703,4.6767578c0.3115234,0.6230469,0.9345703,0.7792969,1.4023438,0.3115234 c3.2744141-3.2734375,11.6923828-7.4833984,18.8642578-7.4833984c9.1982422,0,16.2128906,3.7421875,20.2666016,9.1982422 c0.3115234,0.4677734,0.9355469,0.4677734,1.2470703,0c4.3652344-4.6767578,10.7568359-9.1982422,20.734375-9.1982422 c19.6435547,0,31.3359375,11.2255859,31.3359375,35.5458984v44.1191483c0,0.4677734-0.3115234,0.7792969-0.7792969,0.7792969 H490.9257812z"/>
    <path class="st1" d="M528.0341797,45.2149887c-0.4677734,0-0.7792969-0.3115234-0.7792969-0.7792969V23.8565922 c0-0.4677734,0.3115234-0.7792969,0.7792969-0.7792969h20.2675781c0.4677734,0,0.7792969,0.3115234,0.7792969,0.7792969v20.5790997 c0,0.4677734-0.3115234,0.7792969-0.7792969,0.7792969H528.0341797z M529.59375,132.8302307 c-0.4677734,0-0.7792969-0.3115234-0.7792969-0.7792969V54.7247543c0-0.4677734,0.3115234-0.7792969,0.7792969-0.7792969 h17.1484375c0.4677734,0,0.7792969,0.3115234,0.7792969,0.7792969v77.3261795c0,0.4677734-0.3115234,0.7792969-0.7792969,0.7792969 H529.59375z"/>
    <path class="st1" d="M644.3359375,131.5831604c0.4677734,0.6230469,0,1.2470703-0.6240234,1.2470703h-19.6425781 c-0.4677734,0-1.0917969-0.3115234-1.4033203-0.7792969l-17.4609375-23.2294998 c-0.3115234-0.4677734-0.7792969-0.4677734-1.0908203,0l-17.3046875,23.2294998 c-0.3125,0.4677734-0.7802734,0.7792969-1.2470703,0.7792969h-19.7998047c-0.6240234,0-1.0917969-0.6240234-0.6240234-1.2470703 l28.21875-37.2597733c0.3115234-0.4677734,0.3115234-0.7792969,0-1.2470703l-28.21875-37.8837891 c-0.4677734-0.6240234,0-1.2470703,0.6240234-1.2470703h19.1757812c0.4677734,0,0.9355469,0.3115234,1.2470703,0.7792969 l17.9287109,23.8525391c0.3115234,0.4677734,0.9355469,0.4677734,1.2470703,0l17.9287109-23.8525391 c0.3115234-0.4677734,0.9345703-0.7792969,1.4023438-0.7792969h19.0195312c0.6240234,0,1.0917969,0.6230469,0.6240234,1.2470703 l-28.2177734,37.8837891c-0.3115234,0.4677734-0.3115234,0.7792969,0,1.2470703L644.3359375,131.5831604z"/>
  </g>
  <g>
    <path class="st1" d="M108.581604,23.0022945H0.7802734C0.3120117,23.0022945,0,23.3143063,0,23.782568v108.2675858 c0,0.4677734,0.3120117,0.7802734,0.7802734,0.7802734H108.581604c0.4682617,0,0.7802734-0.3125,0.7802734-0.7802734V23.782568 C109.3618774,23.3143063,109.0498657,23.0022945,108.581604,23.0022945z M8.6744995,31.6700191h7.6403809l-7.6403809,7.64044 V31.6700191z M8.6678467,53.664402l21.9944458-21.9943829h2.4011841L8.6678467,56.0655861V53.664402z M8.6678467,67.743866 l36.0740356-36.0738449h4.8024292L8.6678467,72.5462341V67.743866z M8.6678467,81.8240662l50.1540527-50.1540451h7.2036133 L8.6678467,89.0276794V81.8240662z M8.6678467,95.9035339l64.2337646-64.2335205h9.6047974l-73.838562,73.8382568V95.9035339z M8.6678467,109.9838562l78.3139648-78.3138428h12.0050659L8.6678467,121.9890442V109.9838562z M100.6939697,123.6895447 h-7.6403809l7.6403809-7.6404419V123.6895447z M100.6939697,101.5627747l-22.1270752,22.126709h-2.4011841l24.5282593-24.5278931 V101.5627747z M100.6939697,87.4826355l-36.206543,36.2068481h-4.8023682l41.0089111-41.0093384V87.4826355z M100.6939697,73.4032288l-50.2863159,50.2862549h-7.2035522l57.4898682-57.4898682V73.4032288z M100.6939697,59.3237038 l-64.3660278,64.3657837h-9.6048584l73.9708862-73.9706421V59.3237038z M100.6939697,45.2433205l-78.446167,78.446167h-12.005127 l90.4512939-90.4512329V45.2433205z"/>
  </g>
</svg>