<svg width="16" height="16" viewBox="0 0 16 16" fill="none" xmlns="http://www.w3.org/2000/svg">
<path d="M2.33662 2.97412L5.99912 13.5554C6.15537 14.0116 6.80537 13.9991 6.94912 13.5366L8.42412 8.74912C8.44638 8.67086 8.48862 8.59974 8.5467 8.54275C8.60478 8.48577 8.6767 8.44488 8.75537 8.42412L13.5366 6.94912C13.9991 6.80537 14.0116 6.15537 13.5554 5.99912L2.97412 2.33662C2.88521 2.30537 2.78929 2.29989 2.69741 2.32079C2.60552 2.3417 2.52141 2.38815 2.45478 2.45478C2.38815 2.52141 2.3417 2.60552 2.32079 2.69741C2.29989 2.78929 2.30537 2.88522 2.33662 2.97412V2.97412Z" stroke="white" stroke-width="1.5" stroke-linecap="round" stroke-linejoin="round"/>
</svg>
